<svg width="598" height="588" xmlns="http://www.w3.org/2000/svg">
 <g>
  <title>background</title>
  <rect x="-1" y="-1" width="600" height="590" id="canvas_background" fill="none"/>
 </g>

 <g>
  <title>Layer 1</title>
  <ellipse stroke="#000" opacity="0.55" ry="263.79808" rx="265.500003" id="svg_1" cy="285.29808" cx="290.000003" stroke-opacity="null" stroke-width="0" fill="#000000"/>
  <ellipse fill="#2c3e50" stroke-width="null" stroke-opacity="null" cx="270.000006" cy="268.999992" id="svg_207" rx="264.500006" ry="265.999992" stroke="null"/>
  <ellipse fill="#1a91a1" stroke="null" stroke-width="null" stroke-opacity="null" cx="269.5" cy="268" id="svg_205" rx="250" ry="250"/>
  <g id="svg_4" stroke="null"/>
  <g id="svg_5" stroke="null"/>
  <g id="svg_6" stroke="null"/>
  <g id="svg_7" stroke="null"/>
  <g id="svg_8" stroke="null"/>
  <g id="svg_9" stroke="null"/>
  <g id="svg_10" stroke="null"/>
  <g id="svg_11" stroke="null"/>
  <g id="svg_12" stroke="null"/>
  <g id="svg_13" stroke="null"/>
  <g id="svg_14" stroke="null"/>
  <g id="svg_15" stroke="null"/>
  <g id="svg_16" stroke="null"/>
  <g id="svg_17" stroke="null"/>
  <g id="svg_18" stroke="null"/>
  <g id="svg_187" transform="matrix(2.976173516862351,0,0,2.976173516862351,75.75106624811437,347.61961882537275) " stroke="null"/>
  <g id="svg_188" transform="matrix(2.976173516862351,0,0,2.976173516862351,75.75106624811437,347.61961882537275) " stroke="null"/>
  <g id="svg_189" transform="matrix(2.976173516862351,0,0,2.976173516862351,75.75106624811437,347.61961882537275) " stroke="null"/>
  <g id="svg_190" transform="matrix(2.976173516862351,0,0,2.976173516862351,75.75106624811437,347.61961882537275) " stroke="null"/>
  <g id="svg_191" transform="matrix(2.976173516862351,0,0,2.976173516862351,75.75106624811437,347.61961882537275) " stroke="null"/>
  <g id="svg_192" transform="matrix(2.976173516862351,0,0,2.976173516862351,75.75106624811437,347.61961882537275) " stroke="null"/>
  <g id="svg_193" transform="matrix(2.976173516862351,0,0,2.976173516862351,75.75106624811437,347.61961882537275) " stroke="null"/>
  <g id="svg_194" transform="matrix(2.976173516862351,0,0,2.976173516862351,75.75106624811437,347.61961882537275) " stroke="null"/>
  <g id="svg_195" transform="matrix(2.976173516862351,0,0,2.976173516862351,75.75106624811437,347.61961882537275) " stroke="null"/>
  <g id="svg_196" transform="matrix(2.976173516862351,0,0,2.976173516862351,75.75106624811437,347.61961882537275) " stroke="null"/>
  <g id="svg_197" transform="matrix(2.976173516862351,0,0,2.976173516862351,75.75106624811437,347.61961882537275) " stroke="null"/>
  <g id="svg_198" transform="matrix(2.976173516862351,0,0,2.976173516862351,75.75106624811437,347.61961882537275) " stroke="null"/>
  <g id="svg_199" transform="matrix(2.976173516862351,0,0,2.976173516862351,75.75106624811437,347.61961882537275) " stroke="null"/>
  <g id="svg_200" transform="matrix(2.976173516862351,0,0,2.976173516862351,75.75106624811437,347.61961882537275) " stroke="null"/>
  <g id="svg_201" transform="matrix(2.976173516862351,0,0,2.976173516862351,75.75106624811437,347.61961882537275) " stroke="null"/>
  <ellipse fill="#1a91a1" stroke="null" stroke-width="null" stroke-opacity="null" cx="340.5" cy="633" id="svg_206"/>
  <g id="svg_304" stroke="null">
   <path d="m447.529799,406.672094l-358.813381,0l0,-280.322954l358.813381,0l0,280.322954z" fill="#715539" id="svg_278" stroke="null"/>
   <rect x="1985.138663" y="1799.229941" width="256" height="400" fill="#5A422D" id="svg_279" transform="matrix(0.7008073838946808,0,0,0.7008073838946808,-1123.0767243170933,-1134.5644870680992) " stroke="null"/>
   <path d="m412.48943,371.631725l-288.732642,0l0,-210.242215l288.732642,0l0,210.242215z" fill="#C8AD92" id="svg_280" stroke="null"/>
   <rect x="1985.138663" y="1849.233941" width="206" height="300" fill="#AB825B" id="svg_281" transform="matrix(0.7008073838946808,0,0,0.7008073838946808,-1123.0767243170933,-1134.5644870680992) " stroke="null"/>
   <path d="m339.216514,419.404363l-104.849194,-56.571274l56.571274,-104.849194l104.849194,56.571274l-56.571274,104.849194z" fill="#FFDF47" id="svg_282" stroke="null"/>
   <path d="m269.524724,333.087319l-119.137255,0l0,-133.153403l119.137255,0l0,133.153403z" fill="#FFEC97" id="svg_283" stroke="null"/>
   <path d="m209.956096,234.974285c-13.524882,0 -24.528258,-11.003377 -24.528258,-24.528258s11.003377,-24.528258 24.528258,-24.528258s24.528258,11.003377 24.528258,24.528258s-11.003377,24.528258 -24.528258,24.528258z" fill="#FF3C62" id="svg_284" stroke="null"/>
   <g id="svg_285" transform="matrix(0.7008073838946808,0,0,0.7008073838946808,-1123.0767243170933,-1134.5644870680992) " stroke="null">
    <rect x="1867.138647" y="1963.233919" width="70" height="30" fill="#FF8900" id="svg_286" stroke="null"/>
    <rect x="1867.138647" y="2012.233919" width="70" height="30" fill="#FF8900" id="svg_287" stroke="null"/>
   </g>
   <path d="m339.605462,318.370364c-13.524882,0 -24.528258,-11.003377 -24.528258,-24.528258s11.003377,-24.528258 24.528258,-24.528258s24.528258,11.003377 24.528258,24.528258s-11.003377,24.528258 -24.528258,24.528258z" fill="#00AD00" id="svg_288" stroke="null"/>
   <g id="svg_289" transform="matrix(0.7008073838946808,0,0,0.7008073838946808,-1123.0767243170933,-1134.5644870680992) " stroke="null"/>
   <g id="svg_290" transform="matrix(0.7008073838946808,0,0,0.7008073838946808,-1123.0767243170933,-1134.5644870680992) " stroke="null"/>
   <g id="svg_291" transform="matrix(0.7008073838946808,0,0,0.7008073838946808,-1123.0767243170933,-1134.5644870680992) " stroke="null"/>
   <g id="svg_292" transform="matrix(0.7008073838946808,0,0,0.7008073838946808,-1123.0767243170933,-1134.5644870680992) " stroke="null"/>
   <g id="svg_293" transform="matrix(0.7008073838946808,0,0,0.7008073838946808,-1123.0767243170933,-1134.5644870680992) " stroke="null"/>
   <g id="svg_294" transform="matrix(0.7008073838946808,0,0,0.7008073838946808,-1123.0767243170933,-1134.5644870680992) " stroke="null"/>
   <g id="svg_295" transform="matrix(0.7008073838946808,0,0,0.7008073838946808,-1123.0767243170933,-1134.5644870680992) " stroke="null"/>
   <g id="svg_296" transform="matrix(0.7008073838946808,0,0,0.7008073838946808,-1123.0767243170933,-1134.5644870680992) " stroke="null"/>
   <g id="svg_297" transform="matrix(0.7008073838946808,0,0,0.7008073838946808,-1123.0767243170933,-1134.5644870680992) " stroke="null"/>
   <g id="svg_298" transform="matrix(0.7008073838946808,0,0,0.7008073838946808,-1123.0767243170933,-1134.5644870680992) " stroke="null"/>
   <g id="svg_299" transform="matrix(0.7008073838946808,0,0,0.7008073838946808,-1123.0767243170933,-1134.5644870680992) " stroke="null"/>
   <g id="svg_300" transform="matrix(0.7008073838946808,0,0,0.7008073838946808,-1123.0767243170933,-1134.5644870680992) " stroke="null"/>
   <g id="svg_301" transform="matrix(0.7008073838946808,0,0,0.7008073838946808,-1123.0767243170933,-1134.5644870680992) " stroke="null"/>
   <g id="svg_302" transform="matrix(0.7008073838946808,0,0,0.7008073838946808,-1123.0767243170933,-1134.5644870680992) " stroke="null"/>
   <g id="svg_303" transform="matrix(0.7008073838946808,0,0,0.7008073838946808,-1123.0767243170933,-1134.5644870680992) " stroke="null"/>
  </g>
 </g>
</svg>