<?xml version="1.0" encoding="utf-8"?>
<!-- Generator: Adobe Illustrator 21.1.0, SVG Export Plug-In . SVG Version: 6.00 Build 0)  -->
<svg version="1.1" id="Camada_1" xmlns="http://www.w3.org/2000/svg" xmlns:xlink="http://www.w3.org/1999/xlink" x="0px" y="0px"
	 viewBox="0 0 239.8 228.1" style="enable-background:new 0 0 239.8 228.1;" xml:space="preserve">
<style type="text/css">
	.st0{fill:#FFFD04;}
	.st1{fill:url(#SVGID_1_);}
	.st2{fill:url(#SVGID_2_);}
	.st3{fill:url(#SVGID_3_);}
	.st4{fill:#FFFFFF;}
	.st5{fill:url(#SVGID_4_);}
	.st6{fill:url(#SVGID_5_);}
	.st7{fill:#ED1C24;}
	.st8{fill:url(#SVGID_6_);}
	.st9{fill:url(#SVGID_7_);}
	.st10{fill:url(#SVGID_8_);}
	.st11{fill:url(#SVGID_9_);}
	.st12{fill:url(#SVGID_10_);}
	.st13{fill:url(#SVGID_11_);}
	.st14{fill:url(#SVGID_12_);}
	.st15{fill:url(#SVGID_13_);}
	.st16{fill:url(#SVGID_14_);}
	.st17{fill:url(#SVGID_15_);}
	.st18{fill:url(#SVGID_16_);}
	.st19{fill:url(#SVGID_17_);}
	.st20{fill:url(#SVGID_18_);}
	.st21{fill:url(#SVGID_19_);}
	.st22{fill:url(#SVGID_20_);}
	.st23{fill:url(#SVGID_21_);}
	.st24{fill:url(#SVGID_22_);}
	.st25{fill:url(#SVGID_23_);}
	.st26{fill:#DA1C5C;}
	.st27{fill:url(#SVGID_24_);}
	.st28{fill:url(#SVGID_25_);}
	.st29{fill:url(#SVGID_26_);}
	.st30{fill:url(#SVGID_27_);}
	.st31{opacity:0.5;fill:#6D6E71;enable-background:new    ;}
	.st32{fill:url(#SVGID_28_);}
	.st33{fill:url(#SVGID_29_);}
	.st34{fill:#F8004E;}
	.st35{fill:url(#SVGID_30_);}
	.st36{fill:url(#SVGID_31_);}
	.st37{fill:url(#SVGID_32_);}
	.st38{fill:url(#SVGID_33_);}
	.st39{fill:url(#SVGID_34_);}
	.st40{fill:url(#SVGID_35_);}
	.st41{fill:url(#SVGID_36_);}
	.st42{fill:url(#SVGID_37_);}
	.st43{fill:url(#SVGID_38_);}
</style>
<title>108</title>
<g>
	<g id="Layer_1">
		<path class="st0" d="M182,84.9c0-0.2,0-0.4,0-0.6c0-16.2-16.2-29.3-36.2-29.3c-3.7,0-7.4,0.5-11.1,1.4c-4.6-5.7-11.6-9-18.9-9
			c-4.6,0-9.2,1.4-13.1,3.9c-6-5.3-13.7-8.2-21.6-8.2c-18.6,0-33.6,15.5-33.6,34.7c0,2.6,0.3,5.2,0.9,7.7
			c-9.4,6.3-15.3,15.9-15.3,26.7c0,13.8,9.8,25.7,23.9,31.2c3.9,18.7,22.2,30.7,40.9,26.8c2.5-0.5,5-1.3,7.4-2.4
			c4,6.7,10.7,11.1,18.3,11.1c8.7,0,16.2-5.7,19.8-14c1.8,0.8,3.6,1.4,5.5,1.9c16.6,4.3,33.2-4.7,37.2-20c0.7-2.8,1-5.7,0.8-8.6
			c12.4-5.1,20.8-14.7,20.8-25.7C207.7,100,197,89.4,182,84.9z"/>
		
			<radialGradient id="SVGID_1_" cx="147.7777" cy="51.919" r="14.8888" gradientTransform="matrix(1 0 0 -1 0 230)" gradientUnits="userSpaceOnUse">
			<stop  offset="0.57" style="stop-color:#130C0E"/>
			<stop  offset="0.8" style="stop-color:#130C0E"/>
			<stop  offset="1" style="stop-color:#130C0E"/>
		</radialGradient>
		<polygon class="st1" points="136.3,160.5 159.3,195.7 154.2,195.7 		"/>
		
			<radialGradient id="SVGID_2_" cx="29.8527" cy="127.644" r="12.5793" gradientTransform="matrix(1 0 0 -1 0 230)" gradientUnits="userSpaceOnUse">
			<stop  offset="0.57" style="stop-color:#130C0E"/>
			<stop  offset="0.8" style="stop-color:#130C0E"/>
			<stop  offset="1" style="stop-color:#130C0E"/>
		</radialGradient>
		<polygon class="st2" points="46.7,96.6 13,106.8 14.2,108.1 		"/>
		
			<radialGradient id="SVGID_3_" cx="29.8527" cy="130.479" r="16.7004" gradientTransform="matrix(1 0 0 -1 0 230)" gradientUnits="userSpaceOnUse">
			<stop  offset="0.57" style="stop-color:#130C0E"/>
			<stop  offset="0.8" style="stop-color:#130C0E"/>
			<stop  offset="1" style="stop-color:#130C0E"/>
		</radialGradient>
		<polygon class="st3" points="6.9,101 52.8,94 7.9,105 		"/>
		<polygon class="st4" points="43.6,95.6 7.9,104.3 7.1,101.1 		"/>
		
			<radialGradient id="SVGID_4_" cx="119.6227" cy="118.2294" r="81.5688" gradientTransform="matrix(1 0 0 -1 0 230)" gradientUnits="userSpaceOnUse">
			<stop  offset="0.57" style="stop-color:#130C0E"/>
			<stop  offset="0.8" style="stop-color:#130C0E"/>
			<stop  offset="1" style="stop-color:#130C0E"/>
		</radialGradient>
		<path class="st5" d="M208.4,104.8c-2.7-9.7-11.6-17.9-24.1-22.1c-0.2-2.3-0.8-4.5-1.6-6.7c-3.9-13.7-18.9-23.9-36.8-23.9
			c-3.5,0-7.1,0.4-10.5,1.2c-8.1-9.3-21.7-11.5-32.4-5.3c-12.7-10.5-31-10.5-43.6,0c-9.9,7.2-15.8,18.7-15.7,31
			c0,2.1,0.2,4.3,0.5,6.4c-9.6,7.1-15,17.3-15,28.1c0,14,9.5,27.1,24.4,33.5c4.3,16.7,19.4,28.4,36.6,28.5c4.5,0,9-0.8,13.2-2.4
			c4.5,6.3,11.8,10.2,19.5,10.3c8.8,0,16.7-4.9,21.3-13.1c1.1,0.4,2.1,0.7,3.2,1c3,0.8,6.1,1.2,9.1,1.2c15.2,0,28.3-9.6,31.9-23.4
			c0.6-2.4,0.9-4.9,0.9-7.4c12.8-6,20.7-16.5,20.7-27.8C210.1,110.7,209.5,107.7,208.4,104.8z M186.9,138.3c0.2,2.9,0,5.8-0.8,8.6
			c-3.9,15.3-20.6,24.2-37.2,20c-1.9-0.5-3.7-1.1-5.5-1.9c-3.6,8.3-11.1,14-19.8,14c-7.6,0-14.4-4.4-18.3-11.1
			c-1.1-2.1-1.6-4.5-1.3-6.9c-0.7,1.1-1.3,2.4-1.6,3.7c-0.2,1.4-0.2,2.9,0,4.4c-18,6.4-37.8-3.1-44.1-21.1c-0.5-1.5-0.9-3-1.3-4.5
			c-14.1-5.5-23.9-17.4-23.9-31.2c0-10.8,6-20.4,15.3-26.7c-0.6-2.5-0.9-5.1-0.9-7.7c0-19.2,15-34.7,33.6-34.7
			c8,0,15.6,2.9,21.6,8.1l0,0c1.3,1.2,2.2,2.7,2.8,4.3c0,0,2.2-1-0.5-5.6c3.4-1.7,7-2.6,10.8-2.6c7.3,0,14.3,3.3,18.9,9
			c3.6-0.9,7.3-1.4,11.1-1.4c19.2,0,35,12.2,36.1,27.6c-1.9,0-3.7,0.3-5.5,0.8L182,85c15.1,4.4,25.7,15.1,25.7,27.5
			C207.7,123.5,199.3,133.1,186.9,138.3z"/>
		<path class="st4" d="M64.6,180.7c0.3-2.2,1.2-9-2.5-10.1c-1.3-0.3-2.6-0.6-4-0.6c0.4,0.9,0.6,1.9,0.7,2.9c0,0-0.5-1.3-1.3-3
			c-1-0.1-2-0.1-3,0.1c0.9-0.3,1.8-0.6,2.7-0.7c-1.5-2.8-4.3-6.3-8.4-7c-1.8-0.3-5.3,0.2-8.2,0.9c1.9,1.2,3.7,2.5,5.4,3.7
			c-1.3-0.5-4.5-1.8-8.1-3l-0.8,0.3l-1,0.4c0.3-0.2,0.7-0.3,1-0.4l0.7-0.3c-4.9-1.5-10.5-2.8-12.7-1.3c-6.2,4.2-3.6,14.3-2.8,23.3
			c-1.2-3.8-2.6-7.8-3.6-11.7c-1.6,3.2-2.1,7-1.2,10.5c1.2,4.6,6.6,7.1,12.7,8.6l-0.2-1.2c0.4,0.4,0.7,0.9,1.1,1.4
			c3.5,0.9,7.3,1.4,10.5,1.9c-0.5,0.1-6.3,1.5-6.8,1.6l-1.5,0.3c2.5,4.4,4.9,9.1,8.8,9.2c4.4,0.1,6.7-2.2,10.4-4.7
			c-2.2-0.7-4.2-1.7-6-3.1c3.3,1.2,11.8,0.7,15.2-3.3c3.7-4.5,3-8.8,0.7-16.8C63.2,179.3,63.9,180,64.6,180.7z"/>
		
			<radialGradient id="SVGID_5_" cx="39.5008" cy="44.9103" r="28.8496" gradientTransform="matrix(1 0 0 -1 0 230)" gradientUnits="userSpaceOnUse">
			<stop  offset="0.57" style="stop-color:#130C0E"/>
			<stop  offset="0.8" style="stop-color:#130C0E"/>
			<stop  offset="1" style="stop-color:#130C0E"/>
		</radialGradient>
		<path class="st6" d="M65.4,170.7c-1.9-1.5-4.9-1.8-7.6-1.4c-1.6-3.6-4.8-7.1-8.3-7.8c-2.6-0.5-5.5,0.1-9.4,1.6
			c-7-4.5-15-8.3-19.5-5.4c-4.3,2.8-3.8,9.2-2,16.3c-6,3.6-9.3,9.4-7.9,15c1.8,7,10.6,9.7,20.3,8.8c1.5,7.7,3.8,15.8,9.2,15.9
			c6,0.2,9.9-4.5,12.6-11.6c5.7,1.7,10.8,0.2,13-2.5c4.3-5.6,3.8-13.5-1-18.5C66.4,177.5,68.4,173,65.4,170.7z M61.6,195.4
			c-3.4,4.1-11.9,4.6-15.2,3.3c1.8,1.4,3.8,2.4,6,3.1c-3.7,2.5-6,4.9-10.4,4.7c-3.9-0.1-6.4-4.9-8.8-9.2l1.5-0.3
			c0.5-0.1,6.3-1.4,6.8-1.6c-3.2-0.5-7-1.1-10.5-1.9c-0.3-0.5-0.7-0.9-1.1-1.4l0.2,1.2c-6.1-1.6-11.6-4-12.7-8.6
			c-0.9-3.5-0.5-7.3,1.2-10.5c1,3.9,2.4,7.9,3.6,11.7c-0.8-9-3.4-19.1,2.8-23.3c2.2-1.5,7.8-0.2,12.7,1.4l-0.7,0.3l0.8-0.3
			c3.6,1.2,6.9,2.5,8.1,3c-1.6-1.2-3.5-2.5-5.4-3.7c2.9-0.7,6.4-1.2,8.2-0.9c4.2,0.6,6.9,4.1,8.4,7c-0.9,0.1-1.8,0.4-2.7,0.7
			c1-0.2,2-0.2,3-0.1c0.9,1.7,1.3,2.9,1.3,3c-0.1-1-0.3-2-0.6-3c1.4,0.1,2.7,0.3,4,0.6c3.6,1.1,2.8,8,2.5,10.1
			c-0.7-0.8-1.5-1.5-2.3-2.1C64.7,186.6,65.4,190.9,61.6,195.4z"/>
		<path class="st7" d="M36.9,164.3c-0.3,0.1-0.7,0.3-1,0.4L36.9,164.3z"/>
		<polygon class="st4" points="27.5,170.5 82.7,128.3 84.1,128.4 51.6,189.9 		"/>
		
			<radialGradient id="SVGID_6_" cx="56.0527" cy="73.709" r="27.3455" gradientTransform="matrix(1 0 0 -1 0 230)" gradientUnits="userSpaceOnUse">
			<stop  offset="0.57" style="stop-color:#130C0E"/>
			<stop  offset="0.8" style="stop-color:#130C0E"/>
			<stop  offset="1" style="stop-color:#130C0E"/>
		</radialGradient>
		<polygon class="st8" points="83.6,129.1 36.9,180.6 28.5,183.5 		"/>
		
			<radialGradient id="SVGID_7_" cx="68.6827" cy="73.544" r="15.0927" gradientTransform="matrix(1 0 0 -1 0 230)" gradientUnits="userSpaceOnUse">
			<stop  offset="0.57" style="stop-color:#130C0E"/>
			<stop  offset="0.8" style="stop-color:#130C0E"/>
			<stop  offset="1" style="stop-color:#130C0E"/>
		</radialGradient>
		<polygon class="st9" points="78.7,137.6 58.7,173.2 59.4,175.3 		"/>
		
			<radialGradient id="SVGID_8_" cx="62.3877" cy="68.934" r="22.9127" gradientTransform="matrix(1 0 0 -1 0 230)" gradientUnits="userSpaceOnUse">
			<stop  offset="0.57" style="stop-color:#130C0E"/>
			<stop  offset="0.8" style="stop-color:#130C0E"/>
			<stop  offset="1" style="stop-color:#130C0E"/>
		</radialGradient>
		<polygon class="st10" points="44.2,181.4 79.9,134.2 80.5,134.7 44.8,187.9 		"/>
		<polygon class="st4" points="80,134.3 44.5,181.4 44.9,186.6 		"/>
		
			<radialGradient id="SVGID_9_" cx="57.9627" cy="83.084" r="25.3928" gradientTransform="matrix(1 0 0 -1 0 230)" gradientUnits="userSpaceOnUse">
			<stop  offset="0.57" style="stop-color:#130C0E"/>
			<stop  offset="0.8" style="stop-color:#130C0E"/>
			<stop  offset="1" style="stop-color:#130C0E"/>
		</radialGradient>
		<polygon class="st11" points="86.8,125.6 35.2,168.3 29.1,168.2 		"/>
		<path class="st4" d="M28.6,45.9c1.1-1.6,2.6-2.9,4.3-3.8c-3.7-2.2-6.3-2.8-8.3-2.4c-4.5,1-4.8,4.2-5.3,9.1
			c2.4-0.7,4.8-1.2,7.3-1.4c-2.6,1-5.1,2.1-7.5,3.4c-0.1,0.5-0.1,1-0.2,1.5L18.5,51c-3.2,1.7-6.1,3.7-6.5,5.3
			c-1.2,4.4,3.3,7.2,7.6,10.8l0.2-0.6c0.1,0.3,0.2,0.6,0.3,0.9c0.8,0.6,1.5,1.3,2.2,2c-0.6-0.4-1.3-0.8-2-1.2
			c0.6,3.1,0.5,6.3,3.9,7.5c2.5,0.9,4.6,0.5,7.1,0c-1-0.7-2-1.5-2.8-2.2c0.1,0,8.1,3.7,10.6,0c0.9-1.5,1.6-3.1,2.2-4.8
			c-0.7,0.1-1.3,0.2-2,0.3c0.7-0.1,1.4-0.2,2-0.5c0.3-0.7,0.4-1.4,0.5-2.1c0.1,0.6,0.1,1.3,0,1.9c1.8-0.7,3.2-2.3,3.5-4.3
			c0.3-1.7-0.3-5.1-0.9-7.5l-0.3,0.5c0.1-0.3,0.2-0.6,0.2-1c-0.1-0.5-0.3-1-0.4-1.3c0.2,0.4,0.3,0.7,0.5,1.1c0.4-2.9-0.4-7.9-3.1-10
			C37.6,43.3,34.4,43.9,28.6,45.9z"/>
		
			<radialGradient id="SVGID_10_" cx="26.3354" cy="171.8763" r="21.0995" gradientTransform="matrix(1 0 0 -1 0 230)" gradientUnits="userSpaceOnUse">
			<stop  offset="0.57" style="stop-color:#130C0E"/>
			<stop  offset="0.8" style="stop-color:#130C0E"/>
			<stop  offset="1" style="stop-color:#130C0E"/>
		</radialGradient>
		<path class="st12" d="M43.9,42.8c-2.8-2.1-6.6-2.6-9.9-1.3c-2.6-3.6-6.2-6.2-9.8-5.1c-4.4,1.3-7.4,4.8-6.1,12.7
			c-5.5,1.8-10.8,4.7-11.7,7.9c-1.5,4.9,6.2,7.4,12.9,10.9C17.3,73,15.6,78,20,79.6c3.9,1.4,8,0,12.3-3.1c1.9,1,3.8,1.5,5.7,0.1
			c2.2-1.7,3.4-5.1,3.7-7.9c2.1-0.6,3.8-1.6,4.2-3.9c0.5-2.2-0.1-4.7-1.6-8.4C47.8,50.8,46.7,44.9,43.9,42.8z M44.2,56
			c-0.2-0.4-0.3-0.7-0.5-1.1c0.1,0.4,0.3,0.8,0.4,1.3c0,0.3-0.1,0.6-0.2,1l0.3-0.5c0.6,2.5,1.2,5.9,0.9,7.5
			c-0.3,1.9-1.6,3.6-3.5,4.3c0.1-0.6,0.1-1.3,0-1.9c-0.1,0.7-0.3,1.4-0.5,2.1c-0.6,0.2-1.3,0.4-2,0.5c0.7-0.1,1.3-0.2,2-0.3
			c-0.6,1.7-1.3,3.3-2.2,4.8c-2.5,3.7-10.5,0-10.6,0c0.9,0.7,1.8,1.5,2.8,2.2c-2.6,0.5-4.7,0.9-7.1,0c-3.4-1.2-3.4-4.3-4-7.5
			c0.7,0.4,1.4,0.8,2,1.2c-0.7-0.7-1.4-1.3-2.2-2c-0.1-0.3-0.2-0.6-0.3-0.9l-0.2,0.6c-4.3-3.5-8.8-6.4-7.6-10.8
			c0.4-1.6,3.4-3.6,6.5-5.3l0.3,1.2c0.1-0.5,0.2-1,0.2-1.5c2.4-1.3,5-2.4,7.5-3.4c-2.5,0.2-4.9,0.7-7.3,1.4c0.6-4.8,0.8-8.1,5.3-9.1
			c2-0.4,4.6,0.2,8.3,2.4c-1.7,0.9-3.2,2.2-4.3,3.8c5.9-1.9,9.1-2.5,12.5,0.1C43.7,48.1,44.5,53.1,44.2,56z"/>
		
			<radialGradient id="SVGID_11_" cx="43.4877" cy="175.504" r="0.3" gradientTransform="matrix(1 0 0 -1 0 230)" gradientUnits="userSpaceOnUse">
			<stop  offset="0.57" style="stop-color:#130C0E"/>
			<stop  offset="0.8" style="stop-color:#130C0E"/>
			<stop  offset="1" style="stop-color:#130C0E"/>
		</radialGradient>
		<path class="st13" d="M43.7,54.9c-0.1-0.3-0.2-0.5-0.3-0.8L43.7,54.9z"/>
		
			<radialGradient id="SVGID_12_" cx="38.4677" cy="160.804" r="0.52" gradientTransform="matrix(1 0 0 -1 0 230)" gradientUnits="userSpaceOnUse">
			<stop  offset="0.57" style="stop-color:#130C0E"/>
			<stop  offset="0.8" style="stop-color:#130C0E"/>
			<stop  offset="1" style="stop-color:#130C0E"/>
		</radialGradient>
		<path class="st14" d="M39.2,69.1c-0.5,0-1,0.1-1.5,0.1C38.2,69.2,38.7,69.2,39.2,69.1z"/>
		
			<radialGradient id="SVGID_13_" cx="37.5077" cy="160.734" r="0.16" gradientTransform="matrix(1 0 0 -1 0 230)" gradientUnits="userSpaceOnUse">
			<stop  offset="0.57" style="stop-color:#130C0E"/>
			<stop  offset="0.8" style="stop-color:#130C0E"/>
			<stop  offset="1" style="stop-color:#130C0E"/>
		</radialGradient>
		<path class="st15" d="M37.3,69.3h0.5C37.6,69.3,37.4,69.3,37.3,69.3z"/>
		<polygon class="st4" points="34.6,46.1 64,86.2 63.9,87.2 20.4,63 		"/>
		
			<radialGradient id="SVGID_14_" cx="41.6727" cy="163.544" r="12.1705" gradientTransform="matrix(1 0 0 -1 0 230)" gradientUnits="userSpaceOnUse">
			<stop  offset="0.57" style="stop-color:#130C0E"/>
			<stop  offset="0.8" style="stop-color:#130C0E"/>
			<stop  offset="1" style="stop-color:#130C0E"/>
		</radialGradient>
		<polygon class="st16" points="54.6,77.9 28.8,55.1 32.8,55.7 		"/>
		
			<radialGradient id="SVGID_15_" cx="45.9127" cy="152.744" r="8.8169" gradientTransform="matrix(1 0 0 -1 0 230)" gradientUnits="userSpaceOnUse">
			<stop  offset="0.57" style="stop-color:#130C0E"/>
			<stop  offset="0.8" style="stop-color:#130C0E"/>
			<stop  offset="1" style="stop-color:#130C0E"/>
		</radialGradient>
		<polygon class="st17" points="56.8,83.4 37.2,71.5 35,71.2 		"/>
		
			<radialGradient id="SVGID_16_" cx="45.0127" cy="156.239" r="12.7327" gradientTransform="matrix(1 0 0 -1 0 230)" gradientUnits="userSpaceOnUse">
			<stop  offset="0.57" style="stop-color:#130C0E"/>
			<stop  offset="0.8" style="stop-color:#130C0E"/>
			<stop  offset="1" style="stop-color:#130C0E"/>
		</radialGradient>
		<polygon class="st18" points="59.7,84.2 33.9,63.6 30.3,63.3 		"/>
		
			<radialGradient id="SVGID_17_" cx="52.4477" cy="159.889" r="16.2546" gradientTransform="matrix(1 0 0 -1 0 230)" gradientUnits="userSpaceOnUse">
			<stop  offset="0.57" style="stop-color:#130C0E"/>
			<stop  offset="0.8" style="stop-color:#130C0E"/>
			<stop  offset="1" style="stop-color:#130C0E"/>
		</radialGradient>
		<polygon class="st19" points="40.6,57 39.1,51.4 65.8,88.8 		"/>
		<polygon class="st4" points="61,82.3 40.9,56.5 40,53 		"/>
		<path class="st4" d="M198,40.1c2.5,0.9,5.5,1.8,8.2,3c1.2-5.6,1.6-11.6-2.8-15.8c-1.9-1.8-5.3-2-8.6-1.6c0.5,1,1.8,4.3,1.8,4.3
			c-2.1-0.9-4-2.1-5.8-3.6c-1.8,0.4-3.3,0.9-4,1.1c1-0.6,2.1-1.2,3.3-1.8c-3-3.1-6.1-5.2-9.1-4.1c-2.2,0.8-3.2,3.9-4.2,6.7
			c2.7-0.7,5.5-0.6,8.1,0.3c-6.9,2.1-10.3,3.6-12.1,8.1c-1.4,3.5,0.7,8.4,2.8,10.8c-0.1-0.3-0.1-0.5-0.1-0.8c0,0.3,0.1,0.5,0.1,0.8
			c0.3,0.4,0.6,0.7,1,1c-0.3-0.1-0.6-0.2-0.9-0.3c0.6,2.6,2.4,7.1,3.9,8.7c2.1,2.2,5.4,2.5,8.1,2.3c-0.3-0.3-0.5-0.7-0.7-1.1
			c0.3,0.4,0.7,0.7,1.1,1c1.5-0.2,2.9-0.4,4.4-0.8c-1.1,0.7-2.4,1.1-3.7,1.3c1.6,1.1,3.2,2.1,5,2.9c4.6,1.7,10.2-6.8,10.3-6.8
			c-0.2,0.6-0.4,1.2-0.7,1.9c1.9-1.8,3.4-3.3,4-6C208.4,47.1,200.9,43.8,198,40.1z"/>
		
			<radialGradient id="SVGID_18_" cx="190.7341" cy="190.464" r="24.0021" gradientTransform="matrix(1 0 0 -1 0 230)" gradientUnits="userSpaceOnUse">
			<stop  offset="0.57" style="stop-color:#130C0E"/>
			<stop  offset="0.8" style="stop-color:#130C0E"/>
			<stop  offset="1" style="stop-color:#130C0E"/>
		</radialGradient>
		<path class="st20" d="M206.7,43.3c2.8-7.5,3.4-18-0.4-21c-2.5-2-7.6-0.6-12.5,1.6c-3.3-6.3-7.8-11-13.1-8.9
			c-4,1.6-5.1,8.3-5.3,13.9c-3.3,1.3-5.9,3.8-7.2,7c-1.5,3.6,0.8,9.6,7.5,12.4c0.7,5,1.6,7.9,3.6,9.8s5.7,2.4,9,1.9
			c1.9,2.3,5.1,4.7,8.4,4.8s4.9-2.4,6.2-5.1c5.8-1.4,9.8-4,10.8-8.6C214.2,47.6,210.9,45.2,206.7,43.3z M207.5,51.6
			c-0.6,2.7-2.1,4.2-4,6c0.2-0.7,0.5-1.3,0.7-1.9c-0.1,0.1-5.7,8.5-10.3,6.8c-1.8-0.8-3.4-1.7-5-2.9c1.3-0.2,2.5-0.7,3.7-1.3
			c-1.4,0.4-2.9,0.7-4.4,0.8c-0.4-0.3-0.8-0.7-1.1-1c0.2,0.4,0.5,0.7,0.7,1.1c-2.7,0.2-6-0.1-8.1-2.3c-1.5-1.5-3.3-6-3.9-8.7
			c0.3,0.1,0.6,0.2,0.9,0.3c-0.4-0.3-0.7-0.6-1-1c0-0.3-0.1-0.5-0.1-0.8c0,0.3,0,0.5,0.1,0.8c-2-2.4-4.1-7.3-2.8-10.8
			c1.8-4.5,5.2-6.1,12.1-8.1c-2.6-0.9-5.4-1-8.1-0.3c1-2.8,2-5.9,4.2-6.7c3-1.2,6.1,1,9.1,4.1c-1.2,0.6-2.3,1.2-3.3,1.8
			c0.7-0.2,2.2-0.7,4-1.1c1.8,1.4,3.7,2.6,5.8,3.6c0,0-1.4-3.4-1.8-4.3c3.3-0.4,6.7-0.3,8.6,1.6c4.4,4.2,4,10.2,2.8,15.8
			c-2.7-1.2-5.6-2.1-8.2-3C200.9,43.8,208.4,47.1,207.5,51.6L207.5,51.6z"/>
		<polygon class="st4" points="187.2,31.5 160.4,73.4 161.7,75.3 202.1,46.6 		"/>
		
			<radialGradient id="SVGID_19_" cx="176.4477" cy="171.044" r="21.2639" gradientTransform="matrix(1 0 0 -1 0 230)" gradientUnits="userSpaceOnUse">
			<stop  offset="0.57" style="stop-color:#130C0E"/>
			<stop  offset="0.8" style="stop-color:#130C0E"/>
			<stop  offset="1" style="stop-color:#130C0E"/>
		</radialGradient>
		<polygon class="st21" points="191,37.8 196.9,36.9 156,81 		"/>
		<polygon class="st4" points="164.3,71.7 196.1,37.5 191.5,38.2 		"/>
		
			<radialGradient id="SVGID_20_" cx="178.3227" cy="166.139" r="8.7047" gradientTransform="matrix(1 0 0 -1 0 230)" gradientUnits="userSpaceOnUse">
			<stop  offset="0.57" style="stop-color:#130C0E"/>
			<stop  offset="0.8" style="stop-color:#130C0E"/>
			<stop  offset="1" style="stop-color:#130C0E"/>
		</radialGradient>
		<polygon class="st22" points="168.1,70.7 186.4,57 188.5,57.1 		"/>
		
			<radialGradient id="SVGID_21_" cx="180.7427" cy="172.659" r="14.9073" gradientTransform="matrix(1 0 0 -1 0 230)" gradientUnits="userSpaceOnUse">
			<stop  offset="0.57" style="stop-color:#130C0E"/>
			<stop  offset="0.8" style="stop-color:#130C0E"/>
			<stop  offset="1" style="stop-color:#130C0E"/>
		</radialGradient>
		<polygon class="st23" points="165.6,72 195.9,42.7 195.1,45.9 		"/>
		
			<radialGradient id="SVGID_22_" cx="170.3427" cy="172.924" r="16.4968" gradientTransform="matrix(1 0 0 -1 0 230)" gradientUnits="userSpaceOnUse">
			<stop  offset="0.57" style="stop-color:#130C0E"/>
			<stop  offset="0.8" style="stop-color:#130C0E"/>
			<stop  offset="1" style="stop-color:#130C0E"/>
		</radialGradient>
		<polygon class="st24" points="158,76.9 182,43.1 182.7,37.3 		"/>
		<path class="st4" d="M205.3,167.1c-0.2,2.5-1,4.9-2.3,7c-0.7-7.9-0.7-12.9-5.6-15.5c-3.8-2.1-10.9,0.2-14.3,2.3h1.4
			c-0.5,0-1.1,0.1-1.7,0.2c-0.4,0.2-0.7,0.5-1.1,0.8c0.2-0.2,0.3-0.5,0.5-0.7c-3.3,0.5-7.6,1.6-9.5,2.8c-2.1,1.3-3.4,3.7-3.3,6.2
			c0.8-0.4,1.6-0.7,2.4-1c-0.9,0.5-1.7,1.1-2.4,1.8c0.1,0.9,0.2,1.7,0.5,2.6c-0.3-0.8-0.5-1.6-0.6-2.4c-1.6,1.5-3.1,3.1-4.3,4.9
			c-1.3,2.1-0.5,4.6,0.8,6.8l0,0c1.3,2.1,2.9,3.9,4.6,5.6c-1.3-0.7-2.6-1.4-3.8-2.2c0.7,3.2,1.4,5.9,3.6,8.3c2.9,3.1,6.3,1.9,9.9,1
			c-0.6-0.5-1.1-1-1.6-1.5c0.9,0.4,1.9,0.8,2.8,1.2c0.7-0.2,1.4-0.3,2.1-0.4c-0.4,0.3-0.8,0.6-1.1,0.8c6.5,3.3,12.3,7.4,17,3.6
			c2.2-1.8,4-6.9,5-11.1l-0.3,0.1c-0.5,0.1-3,0.6-3.5,0.7c1.4-0.9,2.8-1.7,4.1-2.5c0.3-1.2,0.4-2.5,0.3-3.8c0.4,1,0.7,2,0.9,3.1
			c4.6-2.7,8-5.8,7.3-11.2C212.7,171.3,210.8,169.8,205.3,167.1z"/>
		
			<radialGradient id="SVGID_23_" cx="188.9795" cy="51.0481" r="26.1336" gradientTransform="matrix(1 0 0 -1 0 230)" gradientUnits="userSpaceOnUse">
			<stop  offset="0.57" style="stop-color:#130C0E"/>
			<stop  offset="0.8" style="stop-color:#130C0E"/>
			<stop  offset="1" style="stop-color:#130C0E"/>
		</radialGradient>
		<path class="st25" d="M205.3,165.5c-0.2-4.3-2.6-8.3-6.4-10.4c-3.9-2.2-11.5-1.1-16.5,5.9c-5.1,0.1-8.4,0.7-10.8,2.4
			s-2.8,4.2-2.4,6.9c-3.1,1.6-6.5,4.2-7.4,7.7c-0.8,3.1,1.1,5.6,3.6,7.5c-0.6,4.7-0.1,8.1,3,12.2c2.9,3.8,7.6,2.3,12.8-1.2
			c7.3,6.2,14.7,9.9,19.8,5.5c4.1-3.4,5.2-8.8,4.3-14.9c8.7-2.7,11.5-8,10.8-13.4C215.6,169.4,210.9,166.8,205.3,165.5z
			 M205.8,185.7c-0.2-1-0.5-2.1-0.9-3.1c0,1.3-0.1,2.5-0.3,3.8c-1.3,0.7-2.6,1.5-4.1,2.5c0.5-0.1,3-0.5,3.5-0.7l0.3-0.1
			c-0.9,4.2-2.8,9.3-5,11.1c-4.7,3.8-10.4-0.3-17-3.6c0.4-0.3,0.8-0.6,1.1-0.8c-0.7,0.1-1.4,0.2-2.1,0.4c-0.9-0.4-1.8-0.9-2.8-1.2
			c0.5,0.5,1.1,1,1.6,1.5c-3.6,0.9-7,2.1-9.9-1c-2.3-2.4-2.9-5.1-3.6-8.3c1.2,0.8,2.5,1.5,3.8,2.2c-1.8-1.7-3.3-3.6-4.6-5.6l0,0
			c-1.3-2.2-2.1-4.8-0.8-6.8c1.3-1.8,2.7-3.4,4.3-4.9c0.2,0.8,0.4,1.6,0.6,2.4c-0.2-0.8-0.4-1.7-0.5-2.6c0.7-0.7,1.5-1.3,2.4-1.8
			c-0.8,0.3-1.6,0.6-2.4,1c-0.1-2.5,1.2-4.9,3.3-6.2c1.8-1.2,6.2-2.3,9.5-2.8c-0.2,0.2-0.3,0.5-0.5,0.7c0.3-0.3,0.7-0.6,1.1-0.8
			c0.6-0.1,1.2-0.1,1.7-0.2h-1.4c3.4-2.1,10.5-4.4,14.3-2.3c4.9,2.7,4.8,7.6,5.6,15.5c1.3-2.1,2.1-4.5,2.3-7
			c5.5,2.6,7.3,4.1,7.8,7.4C213.8,180,210.4,183,205.8,185.7L205.8,185.7z"/>
		<path class="st26" d="M186.1,167.1h0.7C186.6,167.1,186.3,167.1,186.1,167.1z"/>
		<path class="st26" d="M176.4,175.5c0.1,0.4,0.3,0.8,0.4,1.2C176.7,176.2,176.5,175.8,176.4,175.5z"/>
		<path class="st26" d="M176.8,176.6l0.1,0.4C176.9,176.9,176.9,176.8,176.8,176.6z"/>
		<polygon class="st4" points="196.5,170 155.1,150.1 154.2,150.4 181.9,183.3 		"/>
		
			<radialGradient id="SVGID_24_" cx="178.6627" cy="61.509" r="12.1697" gradientTransform="matrix(1 0 0 -1 0 230)" gradientUnits="userSpaceOnUse">
			<stop  offset="0.57" style="stop-color:#130C0E"/>
			<stop  offset="0.8" style="stop-color:#130C0E"/>
			<stop  offset="1" style="stop-color:#130C0E"/>
		</radialGradient>
		<polygon class="st27" points="165.1,157.9 192.2,179.1 190.9,175.3 		"/>
		
			<radialGradient id="SVGID_25_" cx="167.2677" cy="63.714" r="8.8164" gradientTransform="matrix(1 0 0 -1 0 230)" gradientUnits="userSpaceOnUse">
			<stop  offset="0.57" style="stop-color:#130C0E"/>
			<stop  offset="0.8" style="stop-color:#130C0E"/>
			<stop  offset="1" style="stop-color:#130C0E"/>
		</radialGradient>
		<polygon class="st28" points="159.3,156.7 174.5,173.8 175.2,175.9 		"/>
		
			<radialGradient id="SVGID_26_" cx="175.7977" cy="58.979" r="8.0225" gradientTransform="matrix(1 0 0 -1 0 230)" gradientUnits="userSpaceOnUse">
			<stop  offset="0.57" style="stop-color:#130C0E"/>
			<stop  offset="0.8" style="stop-color:#130C0E"/>
			<stop  offset="1" style="stop-color:#130C0E"/>
		</radialGradient>
		<polygon class="st29" points="167.8,163 182.9,175.6 183.8,179.1 		"/>
		
			<radialGradient id="SVGID_27_" cx="170.8327" cy="73.344" r="18.1389" gradientTransform="matrix(1 0 0 -1 0 230)" gradientUnits="userSpaceOnUse">
			<stop  offset="0.57" style="stop-color:#130C0E"/>
			<stop  offset="0.8" style="stop-color:#130C0E"/>
			<stop  offset="1" style="stop-color:#130C0E"/>
		</radialGradient>
		<polygon class="st30" points="188.1,167.8 147.9,145.1 193.8,168.2 		"/>
		<polygon class="st4" points="152.4,147.6 188.3,167.5 191.8,167.7 		"/>
		<path class="st31" d="M226,86.5c-6.4-1.2-9.6-1.8-16.1-3.1l-3.1-0.6l-1.4,2.9c-2.6,5.6-5.4,11.3-8.4,17.3c0.9-3.5,1.7-7,2.6-10.5
			l1.4-5.6l-5.8,0.6c-7.1,0.7-10.7,1.1-17.7,2l0.4-2.6l-5.4,0.6c-7.5,0.8-11.2,1.2-18.8,2.1l-2.7,0.3l-0.7,2.5
			c-2.9-6.1-7.9-9.6-14.4-9.8h-0.7c-7.6,0-15.3,4.3-21.1,11.9l-0.8,1c-0.2-0.8-0.5-1.6-0.8-2.3C108.6,83,101.2,81.3,97,81.2h-0.5
			c-7.6,0-15.1,4.4-20.5,12c-0.4-4.2-3-10.6-14.6-10.8H60c-0.6,0-1.2,0-1.7,0c-3.4,0.3-6.8,0.9-10.1,1.8c-1.9,0.4-3.8,0.8-5.3,1.1
			c-3.7,0.7-4.9,0.9-6,2.2c-1.5,1.7-1.4,3.6-1.1,11.5c0,1.2,0.1,2.4,0.1,3.6c1,31.3,3,43.1,7.6,46.9c1,0.7,2.2,1.1,3.4,1
			c0.4,0,0.8,0,1.3,0h0.7c6.5-0.1,11.7-1.9,16-5.4c2.4-2,4.5-4.2,6.3-6.7c0.3,0.7,0.7,1.4,1.1,2.1c4.2,7.3,9.5,11,15.6,11h0.4
			c6.8-0.2,12.3-4.4,17.5-13.4c0.2,0.5,0.4,1,0.6,1.4c4.1,9.1,9.9,11,14.1,11h0.8c3.7-0.2,7.3-1.6,10.3-3.9l-1,2.7l7.1-1.3
			c5.5-1,8.3-1.5,13.8-2.4l-1.4,5.9l6.1-1.1l7.4-1.4l2.2-0.4l1-2.4l3.9-0.8l9.1-1.9c0.6,1.1,1.5,2,2.6,2.7c1.3,0.7,2.8,1,4.3,1
			c0.8,0,1.6-0.1,2.4-0.2c2.8-0.5,5.5-1.7,7.9-3.3c3.7-2.4,5.9-4.9,6.9-7.9c1.2-3.1-0.1-6.6-3-8.1c-1.5-0.8-3.2-1.2-4.8-1.2
			c-0.6,0-1.3,0-1.9,0.1c-1,0.1-1.9,0.4-2.9,0.7l0.5-2.2h0.5l9.9,0.3l2.4,0.1l1.2-2c3.3-5.5,6.9-10.8,10.8-15.9
			c2.4-3.2,6-7.5,12-14.4l4.6-5.3L226,86.5z M96.2,120.6c-0.3,2.5-1.1,4.9-2.3,7.1c-1.5,2.6-2.6,2.6-3,2.6h-0.1
			c-0.7,0-1.3-0.3-1.7-0.8c-0.7-0.9-1.2-2-1.3-3.1c-0.2-1.3-0.2-2.7-0.1-4c0.4-3.2,1.4-6.4,3-9.3c1.9-3.7,3.5-4.6,4.2-4.6l0,0
			c0.5,0.7,0.9,1.5,1,2.4C96.6,114,96.7,117.3,96.2,120.6z M132.6,120c-0.6,2.5-1.7,4.8-3.2,6.8c-1.4,1.9-2.6,2.8-3.9,2.8h-0.1
			c-0.5,0.1-1-0.1-1.2-0.5c-0.5-0.8-0.8-1.7-0.8-2.7c0-1.3,0.1-2.6,0.4-3.8c0.8-3.2,2.1-6.3,4-9.1c2.2-3.4,4-4.7,4.9-4.7
			c0.3,0.6,0.5,1.2,0.6,1.9C133.7,113.9,133.5,117,132.6,120L132.6,120z"/>
		
			<radialGradient id="SVGID_28_" cx="54.7834" cy="115.8137" r="28.1098" gradientTransform="matrix(1 0 0 -1 0 230)" gradientUnits="userSpaceOnUse">
			<stop  offset="0.57" style="stop-color:#130C0E"/>
			<stop  offset="0.8" style="stop-color:#130C0E"/>
			<stop  offset="1" style="stop-color:#130C0E"/>
		</radialGradient>
		<path class="st32" d="M45.6,148.2c-1.2,0.1-2.4-0.3-3.4-1c-4.6-3.8-6.5-15.6-7.6-46.9c0-1.1-0.1-2.2-0.1-3.3v-0.2
			c-0.4-7.9-0.4-9.8,1.1-11.5c1.1-1.3,2.4-1.6,6-2.2c1.5-0.3,3.4-0.6,5.3-1.1c3.3-0.8,6.7-1.4,10.1-1.8c0.5,0,1.1,0,1.7,0h1.4
			c12.2,0.2,14.4,7.3,14.7,11.4c0.3,6.1-3.8,13.6-7.3,18.7c2.8,1,5.5,2.6,6.6,5.4c0.4,1,0.6,2,0.8,3c0.8,4.8-0.3,9.7-3.2,14.7
			c-2.1,3.6-4.9,6.7-8.1,9.3c-4.3,3.5-9.5,5.3-16,5.4h-0.7C46.5,148.2,46,148.2,45.6,148.2z"/>
		
			<radialGradient id="SVGID_29_" cx="53.4346" cy="118.5182" r="26.1354" gradientTransform="matrix(1 0 0 -1 0 230)" gradientUnits="userSpaceOnUse">
			<stop  offset="0.57" style="stop-color:#130C0E"/>
			<stop  offset="0.8" style="stop-color:#130C0E"/>
			<stop  offset="1" style="stop-color:#130C0E"/>
		</radialGradient>
		<path class="st33" d="M44.3,143.5c-0.7,0.1-1.5-0.1-2.1-0.6c-4.5-3.7-6-20.1-6.8-45.4c0-1.2-0.1-2.4-0.1-3.6
			c-0.3-7.4-0.3-9.1,0.6-10.1c0.7-0.8,1.6-1,4.9-1.6c1.5-0.3,3.5-0.7,5.4-1.1c3.2-0.8,6.5-1.4,9.8-1.7c0.5,0,1,0,1.6,0h1.3
			c10,0.2,12.4,5.3,12.7,9.5c0.4,6.6-5.4,15.4-8.5,19.7c3.7,1,7,2.3,8,5c0.3,0.9,0.6,1.7,0.7,2.7c0.8,4.3-0.3,8.7-3,13.3
			c-2,3.4-4.6,6.3-7.6,8.8c-3.9,3.2-8.8,4.9-14.8,4.9h-0.8C45.1,143.4,44.6,143.5,44.3,143.5z M52.8,119.7c0,1.1,0.2,2.9,0.4,4.2
			c1.8-1.1,4.4-3.5,4.7-4.6c-0.3-0.1-0.5-0.1-0.8-0.1l0,0C55.7,119.2,54.3,119.3,52.8,119.7L52.8,119.7z M52.8,98.7
			c0,0.6,0,1.5,0,2.1s0,1.2,0,1.7c0,0.1,0,0.2,0,0.4c1.1-1.2,1.9-2.6,2.5-4.1l0.1-0.2h-0.1C54.5,98.4,53.7,98.5,52.8,98.7L52.8,98.7
			z"/>
		<path class="st34" d="M37.4,85.1c0.4-0.4,4.7-1,9.2-2c3.1-0.8,6.2-1.4,9.4-1.7c0.9-0.1,1.8,0,2.7,0c6.9,0.1,10.4,2.7,10.7,7.6
			c0.5,8.1-10,20.8-10,20.8c0.1,0.3,8.3,1.2,9.6,4.6c0.3,0.7,0.5,1.5,0.6,2.3c0.7,3.9-0.3,7.9-2.7,11.9c-1.9,3.2-4.3,6-7.2,8.3
			c-3.5,2.9-7.9,4.4-13.5,4.5c-0.9,0.1-1.8,0.1-2.7,0c-4.7-3.8-5.6-29.2-6.1-43.8C37.2,92.3,36.8,85.8,37.4,85.1z M50.9,118.3
			c-0.5,0.6,0.5,7.9,0.9,8.1c1.2,0.7,8.8-4.9,8.2-7.8c-0.2-1-1.2-1.6-2.9-1.6C55.6,117.1,51.5,117.5,50.9,118.3z M51.2,97.1
			c-0.5,0.6-0.3,3.5-0.4,5.2c-0.1,2.1-0.1,3.1-0.2,5.2c2.9-2,5.2-4.9,6.6-8.2c0.2-0.5,0.4-1.1,0.3-1.7c-0.1-0.9-0.8-1.3-2.2-1.4
			C54.3,96.3,51.6,96.5,51.2,97.1z"/>
		
			<radialGradient id="SVGID_30_" cx="89.8785" cy="116.009" r="30.0065" gradientTransform="matrix(1 0 0 -1 0 230)" gradientUnits="userSpaceOnUse">
			<stop  offset="0.57" style="stop-color:#130C0E"/>
			<stop  offset="0.8" style="stop-color:#130C0E"/>
			<stop  offset="1" style="stop-color:#130C0E"/>
		</radialGradient>
		<path class="st35" d="M86.7,149.1c-6.2,0-11.4-3.7-15.6-11c-2-3.5-3.4-7.3-4.2-11.3c-0.9-4.4-1.1-8.8-0.6-13.2
			c0.8-7.9,3.6-15.5,8.1-22.1c5.5-8,13.1-12.6,20.9-12.6h0.5c4.1,0.1,11.5,1.8,15.6,11.9c1.5,3.7,2.3,7.6,2.4,11.6
			c0.1,4.2-0.3,8.4-1.1,12.4c-1.5,7.4-4.2,14.4-8,20.9c-5.2,9-10.7,13.2-17.5,13.4L86.7,149.1z M93.6,106.1c-0.7,0-2.3,1-4.2,4.7
			c-1.6,2.9-2.6,6-3,9.3c-0.1,1.3-0.1,2.7,0.1,4c0.1,1.1,0.6,2.2,1.3,3.1c0.4,0.5,1.1,0.8,1.7,0.8h0.1c0.4,0,1.5,0,3-2.6
			c1.2-2.2,2-4.6,2.3-7.1c0.5-3.3,0.5-6.6-0.2-9.8C94.5,107.6,94.2,106.8,93.6,106.1L93.6,106.1z"/>
		
			<radialGradient id="SVGID_31_" cx="88.5182" cy="118.709" r="28.0108" gradientTransform="matrix(1 0 0 -1 0 230)" gradientUnits="userSpaceOnUse">
			<stop  offset="0.57" style="stop-color:#130C0E"/>
			<stop  offset="0.8" style="stop-color:#130C0E"/>
			<stop  offset="1" style="stop-color:#130C0E"/>
		</radialGradient>
		<path class="st36" d="M85.4,144.3c-5.4,0-10.1-3.4-13.9-10c-1.9-3.3-3.3-7-4-10.7c-0.8-4.2-1-8.4-0.6-12.6
			c0.8-7.6,3.4-14.8,7.8-21.1c5.1-7.4,12.1-11.7,19.2-11.7h0.4c4.4,0.1,10.3,2,13.7,10.6c1.4,3.5,2.1,7.2,2.2,10.9
			c0.1,4-0.3,8.1-1.1,12c-1.5,7.1-4.1,14-7.8,20.3c-4.8,8.3-9.8,12.2-15.8,12.4L85.4,144.3z M92.2,101.3c-2,0-4.1,2-6.1,5.8
			c-1.7,3.1-2.8,6.5-3.2,10c-0.2,1.5-0.1,3,0.1,4.5c0.2,1.5,0.8,3,1.8,4.1c0.8,1,2,1.5,3.3,1.5h0.1c1.2,0,2.9-0.4,4.8-3.6
			c1.3-2.4,2.2-5,2.6-7.8c0.6-3.5,0.5-7.1-0.3-10.6C94.3,101.4,92.8,101.3,92.2,101.3l0-2L92.2,101.3z"/>
		<path class="st34" d="M94.3,80.3c5.5,0.1,9.5,3.3,11.9,9.3c1.3,3.2,2,6.7,2.1,10.2c0.1,3.9-0.3,7.7-1.1,11.5
			c-1.4,6.9-4,13.6-7.5,19.7c-4.2,7.4-8.6,11.2-14.1,11.4c-4.7,0.1-8.9-2.8-12.4-8.9c-1.8-3.1-3.1-6.6-3.8-10.1c-0.8-4-1-8-0.5-12
			c0.7-7.2,3.3-14.2,7.4-20.2C80.4,85.2,86.8,80.1,94.3,80.3z M92.3,99.3c-2.8,0-5.5,2.3-7.9,6.9c-1.8,3.3-3,7-3.4,10.8
			c-0.2,1.7-0.1,3.3,0.1,5c0.3,1.9,1,3.7,2.3,5.2c1.2,1.4,3,2.2,4.8,2.2c2.6,0,4.7-1.6,6.5-4.6c1.5-2.6,2.5-5.5,2.8-8.5
			c0.6-3.8,0.5-7.6-0.3-11.3C96.4,101.2,94.8,99.3,92.3,99.3L92.3,99.3z"/>
		
			<radialGradient id="SVGID_32_" cx="126.9556" cy="115.774" r="29.6968" gradientTransform="matrix(1 0 0 -1 0 230)" gradientUnits="userSpaceOnUse">
			<stop  offset="0.57" style="stop-color:#130C0E"/>
			<stop  offset="0.8" style="stop-color:#130C0E"/>
			<stop  offset="1" style="stop-color:#130C0E"/>
		</radialGradient>
		<path class="st37" d="M119.3,148.2c-4.2,0-10-1.9-14.1-11c-1.5-3.5-2.5-7.3-2.8-11.1c-0.3-4.3,0-8.6,0.8-12.8
			c1.6-7.7,4.9-14.9,9.7-21.2c5.8-7.5,13.5-11.9,21.1-11.9h0.7c7.1,0.2,12.5,4.4,15.2,11.7c1.3,3.6,1.8,7.5,1.6,11.3
			c-0.2,4.1-1,8.2-2.2,12.1c-2.3,7.3-5.9,14.2-10.6,20.3c-4.3,5.4-9.7,12.1-18.7,12.6L119.3,148.2z M131.5,106.6
			c-1,0-2.7,1.3-4.9,4.7c-1.9,2.8-3.2,5.8-4,9.1c-0.3,1.3-0.4,2.5-0.4,3.8c0,0.9,0.2,1.9,0.8,2.6c0.3,0.4,0.8,0.6,1.2,0.5h0.1
			c1.2,0,2.5-0.9,3.9-2.8c1.5-2.1,2.6-4.4,3.2-6.8c0.9-3,1.1-6.1,0.7-9.2C132,107.8,131.8,107.2,131.5,106.6L131.5,106.6z"/>
		
			<radialGradient id="SVGID_33_" cx="125.5756" cy="118.484" r="27.6888" gradientTransform="matrix(1 0 0 -1 0 230)" gradientUnits="userSpaceOnUse">
			<stop  offset="0.57" style="stop-color:#130C0E"/>
			<stop  offset="0.8" style="stop-color:#130C0E"/>
			<stop  offset="1" style="stop-color:#130C0E"/>
		</radialGradient>
		<path class="st38" d="M117.9,143.5c-3.6,0-8.6-1.7-12.2-9.8c-1.4-3.3-2.3-6.9-2.6-10.5c-0.3-4.1,0-8.2,0.8-12.2
			c1.5-7.4,4.7-14.3,9.3-20.3c5.4-7,12.5-11.1,19.5-11.1h0.6c6.4,0.2,11,3.8,13.4,10.4c1.2,3.4,1.7,7,1.5,10.6
			c-0.2,3.9-0.9,7.8-2.2,11.5c-2.2,7.1-5.7,13.7-10.2,19.6c-4.3,5.3-9.1,11.4-17.2,11.8L117.9,143.5z M130.2,101.9
			c-2,0-4.3,2-6.7,5.6c-2,3-3.4,6.3-4.2,9.7c-0.3,1.4-0.5,2.9-0.4,4.4c0,1.4,0.4,2.7,1.2,3.8c0.7,0.9,1.7,1.4,2.8,1.3h0.1
			c1.9,0,3.7-1.2,5.5-3.7c1.6-2.3,2.8-4.8,3.5-7.5c0.9-3.3,1.2-6.7,0.7-10.1C132.2,101.9,130.7,101.9,130.2,101.9L130.2,101.9z"/>
		<path class="st34" d="M133.2,81.6c5.5,0.2,9.4,3.2,11.5,9c1.1,3.1,1.6,6.5,1.4,9.8c-0.2,3.7-0.9,7.4-2.1,11
			c-2.1,6.9-5.5,13.3-9.9,18.9c-4.1,5.1-8.6,10.6-15.7,11.1c-4.6,0.3-8.3-2.7-11-8.6c-1.4-3.1-2.2-6.4-2.4-9.8
			c-0.3-3.9,0-7.8,0.8-11.7c1.5-7.1,4.5-13.7,9-19.5C119.2,86.2,125.8,81.3,133.2,81.6z M130.2,99.8c-2.8,0-5.7,2.2-8.5,6.6
			c-2.1,3.2-3.6,6.7-4.5,10.4c-0.4,1.6-0.5,3.2-0.5,4.9c0,1.8,0.6,3.5,1.6,5c1.1,1.4,2.8,2.2,4.6,2.1c2.6,0,4.9-1.6,7.1-4.5
			c1.8-2.5,3.1-5.3,3.8-8.2c1-3.5,1.3-7.2,0.8-10.9C134.2,101.7,132.7,99.9,130.2,99.8L130.2,99.8z"/>
		
			<radialGradient id="SVGID_34_" cx="164.5227" cy="113.174" r="33.8285" gradientTransform="matrix(1 0 0 -1 0 230)" gradientUnits="userSpaceOnUse">
			<stop  offset="0.57" style="stop-color:#130C0E"/>
			<stop  offset="0.8" style="stop-color:#130C0E"/>
			<stop  offset="1" style="stop-color:#130C0E"/>
		</radialGradient>
		<path class="st39" d="M150.2,143.3c-5.5,1-8.3,1.5-13.8,2.4l-7.1,1.3l2.6-6.8c6.1-15.8,12.3-32.7,17.3-50.1l0.7-2.6l2.7-0.3
			c7.6-0.9,11.3-1.3,18.8-2.1l5.4-0.6l-0.4,2.6c7-0.8,10.6-1.2,17.7-2l5.8-0.6l-1.4,5.6c-1.3,5.4-2.7,10.8-4,16.2l-0.1,0.5
			c-1.9,7.6-3.8,15.4-5.7,23.2c-0.6,2.4-1.2,4.8-1.8,7.1l-0.6,2.4l-2.5,0.5c-5.8,1.2-8.6,1.8-14.3,3l-3.9,0.8l-1,2.4l-2.2,0.4
			l-7.4,1.4l-6.1,1.1L150.2,143.3z"/>
		
			<radialGradient id="SVGID_35_" cx="163.4677" cy="116.024" r="31.1279" gradientTransform="matrix(1 0 0 -1 0 230)" gradientUnits="userSpaceOnUse">
			<stop  offset="0.57" style="stop-color:#130C0E"/>
			<stop  offset="0.8" style="stop-color:#130C0E"/>
			<stop  offset="1" style="stop-color:#130C0E"/>
		</radialGradient>
		<path class="st40" d="M150.8,140.9c1.2-5.2,2.3-10.1,3.3-14.8c-1.3,3.7-2.6,7.4-3.9,11.1l-0.4,1.1l-1.2,0.2c-5.7,1-8.5,1.5-14,2.5
			l-3.6,0.7l1.3-3.4c6-15.8,12.3-32.8,17.3-50.3l0.4-1.3l1.4-0.2c7.6-0.9,11.3-1.3,18.8-2.1l2.7-0.3l-0.4,2.7
			c-0.3,1.5-0.5,3-0.8,4.5l1.8-4.6l1.2-0.1c7.3-0.9,10.9-1.2,18.2-2l2.9-0.3l-0.7,2.8c-1.3,5.6-2.7,11.1-4.1,16.7
			c-1.9,7.6-3.8,15.4-5.7,23.2c-0.6,2.4-1.2,4.8-1.8,7.1l-0.3,1.2l-1.2,0.2c-5.8,1.2-8.6,1.8-14.3,3l-3.3,0.7l0.9-3.2
			c0.6-2.1,1.1-4.2,1.7-6.3c-1.6,3.7-3.2,7.5-4.8,11.2l-0.4,1l-1.1,0.2l-7.4,1.4l-3.1,0.6L150.8,140.9z"/>
		<path class="st34" d="M134.3,139c6.4-16.7,12.5-33.3,17.3-50.5c7.5-0.9,11.2-1.3,18.8-2.1c-1.5,8.6-3.1,17.2-5,25.7
			c3.2-7.8,6.4-15.7,9.5-23.6c7.2-0.8,10.9-1.2,18.1-2c-3.2,13.3-6.6,26.6-9.8,39.9c-0.6,2.4-1.2,4.7-1.8,7c-5.8,1.2-8.7,1.8-14.3,3
			c2.8-10.1,5.3-20.3,7.6-30.6c-4.8,11.4-9.7,22.7-14.5,34.1l-7.4,1.4c3.4-14.6,6.6-29.2,9.5-43.8c-4.7,13-9.4,26-13.9,39
			C142.7,137.5,139.9,138,134.3,139z"/>
		
			<radialGradient id="SVGID_36_" cx="205.6573" cy="116.222" r="29.5682" gradientTransform="matrix(1 0 0 -1 0 230)" gradientUnits="userSpaceOnUse">
			<stop  offset="0.57" style="stop-color:#130C0E"/>
			<stop  offset="0.8" style="stop-color:#130C0E"/>
			<stop  offset="1" style="stop-color:#130C0E"/>
		</radialGradient>
		<path class="st41" d="M185.3,144.9c-1.5,0-3-0.3-4.3-1c-2.8-1.6-4-4.6-3-7.9c0.8-3.1,3-5.9,6.4-8.2c1.7-1.2,3.6-2.1,5.6-2.7
			l-3.9-0.1l3.1-5.8c6.5-12.2,12-23.2,16.8-33.5l1.4-2.9l3.1,0.6c6.4,1.3,9.7,1.9,16.1,3.1l6.9,1.3l-4.6,5.3c-6,7-9.6,11.3-12,14.4
			c-3.9,5.1-7.5,10.4-10.8,15.9l-1.2,2l-5.9-0.2l0.3,0.2c2.9,1.5,4.2,5,3,8.1c-1,2.9-3.2,5.5-6.9,7.9c-2.4,1.6-5,2.7-7.9,3.3
			C186.9,144.8,186.1,144.9,185.3,144.9z"/>
		
			<radialGradient id="SVGID_37_" cx="203.428" cy="118.8079" r="27.0574" gradientTransform="matrix(1 0 0 -1 0 230)" gradientUnits="userSpaceOnUse">
			<stop  offset="0.57" style="stop-color:#130C0E"/>
			<stop  offset="0.8" style="stop-color:#130C0E"/>
			<stop  offset="1" style="stop-color:#130C0E"/>
		</radialGradient>
		<path class="st42" d="M184,140.1c-1.1,0-2.3-0.2-3.3-0.8c-2-1.1-2.8-3.2-2.1-5.6c0.7-2.6,2.6-5,5.6-7c2.2-1.6,4.7-2.6,7.4-3
			c0.5-0.1,1.1-0.1,1.6-0.1c1.3,0,2.7,0.3,3.8,0.9c2.1,1.1,3,3.5,2.1,5.7c-0.8,2.4-2.8,4.7-6.1,6.8c-2.1,1.5-4.6,2.5-7.1,3
			C185.3,140.1,184.7,140.1,184,140.1z M201.4,120.6l-9.9-0.3l-3.3-0.1l1.6-2.9c6.6-12.2,12.1-23.2,17-33.6l0.7-1.4l1.6,0.3
			c6.4,1.3,9.7,1.9,16.1,3.1l3.5,0.7l-2.3,2.7c-6,7-9.6,11.3-12,14.5c-3.9,5.2-7.6,10.6-11,16.1l-0.6,1L201.4,120.6z"/>
		<path class="st34" d="M191.9,125.7c1.4-0.3,2.9-0.1,4.1,0.6c1.2,0.6,1.7,2,1.2,3.3c-0.7,2-2.5,3.9-5.2,5.7
			c-1.9,1.3-4.1,2.2-6.3,2.7c-1.3,0.3-2.7,0.2-3.9-0.4c-1.1-0.6-1.5-1.8-1.1-3.3c0.6-2.1,2.1-4.1,4.8-5.9
			C187.3,127,189.6,126.1,191.9,125.7z M208.5,84.6c6.5,1.3,9.7,1.9,16.1,3.1c-5.2,6.1-9.4,11-12.1,14.6c-4,5.2-7.7,10.7-11.1,16.3
			l-9.9-0.3C197.5,107.2,203.2,96,208.5,84.6z"/>
		
			<radialGradient id="SVGID_38_" cx="142.9877" cy="65.184" r="13.1972" gradientTransform="matrix(1 0 0 -1 0 230)" gradientUnits="userSpaceOnUse">
			<stop  offset="0.57" style="stop-color:#130C0E"/>
			<stop  offset="0.8" style="stop-color:#130C0E"/>
			<stop  offset="1" style="stop-color:#130C0E"/>
		</radialGradient>
		<polygon class="st43" points="132.1,149.7 153.9,174.4 152.7,180 		"/>
		<polygon class="st4" points="135.8,154.2 153.5,174.3 152.5,178.7 		"/>
	</g>
</g>
</svg>
