<svg xmlns="http://www.w3.org/2000/svg" xmlns:xlink="http://www.w3.org/1999/xlink" viewBox="0 0 180.63 174.03"><defs><style>.cls-1{isolation:isolate;}.cls-2{fill:url(#Super_Soft_Black_Vignette);}.cls-3{fill:#f8222e;}.cls-4{opacity:0.5;mix-blend-mode:multiply;}.cls-5{fill:#6d6e71;}.cls-6{fill:url(#Super_Soft_Black_Vignette-2);}.cls-7{fill:url(#Super_Soft_Black_Vignette-3);}.cls-8{fill:#fef200;}.cls-9{fill:url(#Super_Soft_Black_Vignette-4);}.cls-10{fill:url(#Super_Soft_Black_Vignette-5);}.cls-11{fill:url(#Super_Soft_Black_Vignette-6);}.cls-12{fill:url(#Super_Soft_Black_Vignette-7);}</style><radialGradient id="Super_Soft_Black_Vignette" cx="73.75" cy="46.62" r="88.02" gradientTransform="translate(12.31 36.74) rotate(2.1)" gradientUnits="userSpaceOnUse"><stop offset="0.57" stop-color="#130c0e"/><stop offset="0.8" stop-color="#130c0e"/><stop offset="1" stop-color="#130c0e"/></radialGradient><radialGradient id="Super_Soft_Black_Vignette-2" cx="90.65" cy="63.39" r="74.65" gradientTransform="matrix(1, 0, 0, 1, 0, 0)" xlink:href="#Super_Soft_Black_Vignette"/><radialGradient id="Super_Soft_Black_Vignette-3" cx="22.17" cy="72.54" r="26.51" gradientTransform="matrix(1, 0, 0, 1, 0, 0)" xlink:href="#Super_Soft_Black_Vignette"/><radialGradient id="Super_Soft_Black_Vignette-4" cx="59.75" cy="70.47" r="29.95" gradientTransform="matrix(1, 0, 0, 1, 0, 0)" xlink:href="#Super_Soft_Black_Vignette"/><radialGradient id="Super_Soft_Black_Vignette-5" cx="96.45" cy="65.92" r="34.43" gradientTransform="matrix(1, 0, 0, 1, 0, 0)" xlink:href="#Super_Soft_Black_Vignette"/><radialGradient id="Super_Soft_Black_Vignette-6" cx="126.07" cy="63.1" r="36.44" gradientTransform="matrix(1, 0, 0, 1, 0, 0)" xlink:href="#Super_Soft_Black_Vignette"/><radialGradient id="Super_Soft_Black_Vignette-7" cx="156.95" cy="60.71" r="44.4" gradientTransform="matrix(1, 0, 0, 1, 0, 0)" xlink:href="#Super_Soft_Black_Vignette"/></defs><title>cool</title><g class="cls-1"><g id="Layer_1" data-name="Layer 1"><polygon class="cls-2" points="0 17.97 2.61 116 30.43 119.46 47.63 174.03 61.09 123.28 151.08 134.48 174.26 0 0 17.97"/><polyline class="cls-3" points="10.85 111.85 8.53 24.69 169.19 8.12 148.36 128.97 58.86 117.83 49.43 153.43 37.35 115.15 10.85 111.85"/><g class="cls-4"><path class="cls-5" d="M178.64,12a15.76,15.76,0,0,0-1.79-1.73,14.84,14.84,0,0,0-5.42-3.1,9,9,0,0,0-2.59-.5,5.43,5.43,0,0,0-1.64.26,6.45,6.45,0,0,0-3.7,3.19,23.56,23.56,0,0,0-1.88,5.07c-1.19,4.46-2.52,9.66-4,15.47s-2.84,11.7-4.27,17.79-2.76,12-4,17.69S147,77,146.13,81.51a32,32,0,0,0-.67,4.11,12.09,12.09,0,0,0,.81,5.41,14.24,14.24,0,0,0,2.52,4.21,14.62,14.62,0,0,0,2,1.87,9.37,9.37,0,0,0-3.11,1.14c-.29.17-.58.36-.86.55-.13-2.08-.27-3.73-.27-3.73-.11-.61-.24-1.21-.38-1.78l-.1-.47a10.69,10.69,0,0,0-1.88-4.61,5.28,5.28,0,0,0-4.23-2h-.14a20,20,0,0,0-5.28.79c.75-3.31,1.52-6.64,2.3-10C138,72,139.16,67,140.31,62.27s2.39-9.67,3.57-14.22,3.06-10.25,3.87-14.17c1.49-7.25-1.62-9.4-4.4-11.3a15.8,15.8,0,0,0-4.41-2.24,10,10,0,0,0-2.75-.41,7.78,7.78,0,0,0-2.1.28c-2.45.68-4.26,3-5.54,7.11l0,.11c-.85,3.21-1.78,6.82-2.76,10.75s-1.94,8-2.91,12.22c-.1-1.68-.23-3.29-.4-4.79a41.31,41.31,0,0,0-1-5.46,21.88,21.88,0,0,0-1.83-4.84,14.68,14.68,0,0,0-3.18-4l-.06,0a13.66,13.66,0,0,0-3.16-1.93,18.67,18.67,0,0,0-3.77-1.2,16.48,16.48,0,0,0-4.21-.29l-.43,0a15.07,15.07,0,0,0-3.74.81,17.1,17.1,0,0,0-5.26,3.18,24.11,24.11,0,0,0-4.4,4.89l0,.06a68.16,68.16,0,0,0-6.15,12.3c-.19.49-.36,1-.54,1.49L84.55,50a17,17,0,0,0-2-4.18,13.28,13.28,0,0,0-3.31-3.41l-.06,0a14.39,14.39,0,0,0-3.16-1.58,21.51,21.51,0,0,0-3.72-1,19.56,19.56,0,0,0-4.13-.22,17.61,17.61,0,0,0-4.05.68,17.92,17.92,0,0,0-5.21,2.6,21.87,21.87,0,0,0-4.43,4.07l0,.06A52.56,52.56,0,0,0,48.34,57.2a64.13,64.13,0,0,0-2.85,7.34c-.09-.7-.19-1.41-.31-2.13-.2-1.13-.43-2.27-.71-3.39s-.58-2.17-.89-3.12A17,17,0,0,0,41,50.83a10.57,10.57,0,0,0-5.62-3.53,14.09,14.09,0,0,0-3.29-.54,24.57,24.57,0,0,0-3.47.09,27.2,27.2,0,0,0-3.58.6,34.61,34.61,0,0,0-4.22,1.31l-.56.27a18.38,18.38,0,0,0-6.74,5.63,31.79,31.79,0,0,0-4.31,7.77A44.45,44.45,0,0,0,6.8,71.21,54.8,54.8,0,0,0,6,80.15a47.08,47.08,0,0,0,.71,8.43,33.66,33.66,0,0,0,2.11,7.27c1.76,4.09,4.79,7.86,7.53,9.53,6.72,4.08,11.9,4,17.57,3.29a15.14,15.14,0,0,0,1.49-.29,14.18,14.18,0,0,0,8.25-5.12,18,18,0,0,0,2.05-3.49,20.06,20.06,0,0,0,3.62,5.39,21.78,21.78,0,0,0,13.27,6.6h0a18,18,0,0,0,2.9.31c.36,0,.72,0,1.08,0a12.11,12.11,0,0,0,7.15-2.76,22.77,22.77,0,0,0,5.53-7.06,42.54,42.54,0,0,0,2.14-4.89c1.54,4.87,3.76,9.14,6,11.42,3.2,3.34,4.71,4,6.83,4.81,1,.41,10.12,3.56,16.07-2.6a26.15,26.15,0,0,0,4.06-5.64l.07.19a13.61,13.61,0,0,0,.74,1.58l.43.79.51,1c.44.89.84,1.65,1.2,2.29a16.55,16.55,0,0,0,1.11,2c2.43,3.23,3,3.39,4.77,3.7l.52.07c.24,0,.48,0,.73,0a9.54,9.54,0,0,0,1.13-.07,7.59,7.59,0,0,0,2.39-.74h0c2.08-.71,4.29-1.38,6.61-2,1.46-.4,3.39-1,5.15-1.62-.26,3.61.43,6.58,2.06,8.79a9.54,9.54,0,0,0,7.18,4.07h.08l.79,0a9.1,9.1,0,0,0,5.71-1.92,16.16,16.16,0,0,0,3.89-4.34,22,22,0,0,0,2.19-4.71,18.29,18.29,0,0,0,.86-3.29,17.49,17.49,0,0,0,0-4.32,13.59,13.59,0,0,0-1.4-4.57,10.62,10.62,0,0,0-2.87-3.46,5.2,5.2,0,0,0,2-1.94,14.71,14.71,0,0,0,1.61-4.64h0c1.12-4.75,2.38-9.86,3.74-15.19s2.85-11,4.38-16.78,3.15-11.73,4.79-17.63,3.37-11.83,4.89-17.58C181.93,16.32,179.68,13.31,178.64,12ZM98.85,91.66c-.06-.5-.12-1-.17-1.6a60.77,60.77,0,0,1,0-8.49,87.27,87.27,0,0,1,1.06-9.35c.42-2.44,1-5,1.6-7.74s1.34-5.22,2.08-7.5c.21-.65.42-1.27.63-1.86.12,2.63.1,5.37,0,8.17-.16,3.35-.46,6.66-.87,9.82s-.92,6.13-1.51,8.92a71.94,71.94,0,0,1-1.87,7.14C99.45,90.09,99.15,90.92,98.85,91.66Zm-36.5.84c-.08-.43-.14-.89-.2-1.38a40.42,40.42,0,0,1-.11-6.83,57.65,57.65,0,0,1,1-7.56c.39-2,.9-4.09,1.51-6.29s1.28-4.23,2-6.08c.23-.61.47-1.19.71-1.73a60.11,60.11,0,0,1,0,6.67,80.41,80.41,0,0,1-.78,8c-.38,2.55-.86,5-1.42,7.26a48,48,0,0,1-1.77,5.76C63,91.15,62.67,91.88,62.36,92.5ZM41.07,83.36a16.41,16.41,0,0,0-2.21,0,12.3,12.3,0,0,0-1.81.28l-.28.07a10.75,10.75,0,0,0-7.06,6,22,22,0,0,1-1.58,2.94c-.14-.29-.28-.62-.42-1a27.24,27.24,0,0,1-1.33-5,38.17,38.17,0,0,1-.58-6.12,51.78,51.78,0,0,1,.31-5.43c.21-2,.5-3.91.86-5.7.09-.43.18-.84.27-1.24l0,.13.06.13a15.4,15.4,0,0,0,2,3.12,9.73,9.73,0,0,0,2.82,2.37,10.47,10.47,0,0,0,3.58,1.18,16.29,16.29,0,0,0,4.14,0,5.39,5.39,0,0,0,1-.14l.43-.12.61-.21a7.86,7.86,0,0,0,1.37-.6c-.27,1.78-.47,3.55-.59,5.3-.09,1.42-.11,2.81-.1,4.19A9.15,9.15,0,0,0,41.07,83.36Z"/></g><path class="cls-6" d="M176,9.35a15.91,15.91,0,0,0-1.79-1.73,14.88,14.88,0,0,0-5.42-3.1,9,9,0,0,0-2.59-.5,5.43,5.43,0,0,0-1.63.26,6.44,6.44,0,0,0-3.7,3.19A23.47,23.47,0,0,0,159,12.54c-1.19,4.46-2.52,9.66-4,15.47s-2.84,11.7-4.27,17.79-2.76,12-4,17.69-2.35,10.85-3.22,15.35a32,32,0,0,0-.68,4.1,12.07,12.07,0,0,0,.81,5.41,14.32,14.32,0,0,0,2.52,4.21,14.67,14.67,0,0,0,2,1.87A9.38,9.38,0,0,0,145,95.57c-.29.17-.58.36-.86.55-.13-2.07-.27-3.73-.27-3.73-.11-.62-.24-1.21-.38-1.78l-.1-.46a10.67,10.67,0,0,0-1.88-4.61,5.28,5.28,0,0,0-4.23-2h-.14a20,20,0,0,0-5.28.79c.75-3.31,1.53-6.64,2.3-10,1.19-5.07,2.38-10.05,3.53-14.81s2.39-9.67,3.57-14.22,3.06-10.25,3.87-14.17c1.49-7.25-1.62-9.4-4.4-11.3a15.82,15.82,0,0,0-4.41-2.24,10.05,10.05,0,0,0-2.76-.41,7.74,7.74,0,0,0-2.09.28c-2.45.68-4.26,3-5.54,7.1l0,.11C125,28,124.07,31.57,123.1,35.5s-1.94,8-2.91,12.22c-.1-1.68-.23-3.29-.4-4.79a41.14,41.14,0,0,0-1-5.45A21.61,21.61,0,0,0,117,32.64a14.59,14.59,0,0,0-3.18-4l-.06-.05a13.65,13.65,0,0,0-3.16-1.93,18.8,18.8,0,0,0-3.77-1.2,16.39,16.39,0,0,0-4.21-.29l-.43,0a15,15,0,0,0-3.74.81,17.13,17.13,0,0,0-5.26,3.18A24.23,24.23,0,0,0,88.77,34l0,.06a68.38,68.38,0,0,0-6.15,12.3c-.19.49-.36,1-.54,1.49-.05-.19-.11-.39-.17-.58a16.82,16.82,0,0,0-2-4.18,13.34,13.34,0,0,0-3.31-3.41l-.06,0a14.49,14.49,0,0,0-3.15-1.58,21.42,21.42,0,0,0-3.72-1,19.49,19.49,0,0,0-4.13-.22,17.56,17.56,0,0,0-4.06.68,18.07,18.07,0,0,0-5.21,2.6,22,22,0,0,0-4.43,4.07l0,.06a52.49,52.49,0,0,0-6.12,10.19,64.45,64.45,0,0,0-2.85,7.34c-.09-.7-.19-1.41-.31-2.13-.19-1.13-.43-2.27-.71-3.39s-.58-2.17-.89-3.12a17,17,0,0,0-2.58-5.06,10.57,10.57,0,0,0-5.63-3.53,14,14,0,0,0-3.29-.54,24.5,24.5,0,0,0-3.46.08,27.11,27.11,0,0,0-3.58.6,34.7,34.7,0,0,0-4.22,1.31l-.56.27A18.39,18.39,0,0,0,10.85,52a31.79,31.79,0,0,0-4.31,7.77,44.19,44.19,0,0,0-2.42,8.79,54,54,0,0,0-.78,8.94,47,47,0,0,0,.71,8.43,33.59,33.59,0,0,0,2.11,7.27C7.93,97.27,11,101,13.7,102.71c6.72,4.08,11.9,4,17.57,3.29a14.73,14.73,0,0,0,1.5-.29A14.18,14.18,0,0,0,41,100.58a18.28,18.28,0,0,0,2.05-3.49,20.13,20.13,0,0,0,3.62,5.39A21.78,21.78,0,0,0,60,109.08h0a17.88,17.88,0,0,0,2.9.31c.36,0,.73,0,1.08,0a12.11,12.11,0,0,0,7.14-2.76,22.69,22.69,0,0,0,5.53-7.06,42.6,42.6,0,0,0,2.14-4.89c1.54,4.87,3.76,9.14,5.95,11.42,3.2,3.34,4.71,4,6.83,4.81,1,.41,10.12,3.56,16.07-2.6a26.28,26.28,0,0,0,4.06-5.64l.07.19a13.86,13.86,0,0,0,.74,1.58l.43.79.51,1c.44.89.84,1.65,1.2,2.29a16.29,16.29,0,0,0,1.11,2c2.43,3.23,3,3.39,4.77,3.7l.52.07c.24,0,.48,0,.73,0a9.87,9.87,0,0,0,1.13-.07,7.68,7.68,0,0,0,2.39-.74h0c2.08-.71,4.29-1.38,6.61-2,1.46-.4,3.39-1,5.15-1.62-.26,3.61.43,6.58,2.06,8.79a9.54,9.54,0,0,0,7.18,4.07h.08l.79,0a9.11,9.11,0,0,0,5.71-1.92,16.15,16.15,0,0,0,3.89-4.34,22.22,22.22,0,0,0,2.2-4.71,18.05,18.05,0,0,0,.85-3.29,17.48,17.48,0,0,0,0-4.32,13.47,13.47,0,0,0-1.4-4.56,10.52,10.52,0,0,0-2.87-3.46,5.2,5.2,0,0,0,2-1.94,14.71,14.71,0,0,0,1.61-4.64h0c1.12-4.75,2.38-9.86,3.74-15.19s2.85-11,4.38-16.78S170.42,45.88,172,40s3.37-11.83,4.89-17.58C179.26,13.64,177,10.63,176,9.35ZM96.18,89c-.07-.5-.12-1-.17-1.6a60.8,60.8,0,0,1,0-8.49,87.24,87.24,0,0,1,1.07-9.35c.42-2.44,1-5,1.6-7.74s1.35-5.22,2.09-7.5q.31-1,.63-1.86c.12,2.63.1,5.37,0,8.17-.16,3.35-.46,6.66-.87,9.82s-.92,6.13-1.51,8.92a71.44,71.44,0,0,1-1.87,7.14C96.78,87.42,96.48,88.25,96.18,89Zm-36.5.84c-.08-.43-.14-.89-.2-1.38a40.21,40.21,0,0,1-.11-6.83,57.38,57.38,0,0,1,1-7.56c.39-2,.9-4.09,1.51-6.29s1.28-4.23,2-6.08c.23-.61.47-1.19.7-1.73a58.52,58.52,0,0,1,0,6.67,79.88,79.88,0,0,1-.78,8c-.38,2.55-.86,5-1.42,7.26a48.14,48.14,0,0,1-1.77,5.76C60.31,88.48,60,89.2,59.68,89.83ZM38.39,80.68a16.43,16.43,0,0,0-2.21,0,12,12,0,0,0-1.8.28l-.29.07A10.74,10.74,0,0,0,27,87,21.79,21.79,0,0,1,25.46,90c-.14-.29-.28-.61-.42-1a27.11,27.11,0,0,1-1.33-5,38,38,0,0,1-.58-6.12,51.5,51.5,0,0,1,.31-5.43c.21-2,.5-3.91.86-5.7q.13-.64.27-1.24l0,.13.06.13a15.7,15.7,0,0,0,2,3.12,9.78,9.78,0,0,0,2.82,2.37A10.47,10.47,0,0,0,33,72.44a16.2,16.2,0,0,0,4.14,0,5.36,5.36,0,0,0,1-.14l.43-.12L39.2,72a7.8,7.8,0,0,0,1.36-.6c-.27,1.77-.47,3.55-.59,5.3-.09,1.42-.11,2.81-.1,4.19A9,9,0,0,0,38.39,80.68Z"/><path class="cls-7" d="M11.7,100C9,98.36,5.93,94.59,4.16,90.5a33.44,33.44,0,0,1-2.11-7.27,47.15,47.15,0,0,1-.72-8.43,54.39,54.39,0,0,1,.79-8.94,44.39,44.39,0,0,1,2.42-8.79A31.73,31.73,0,0,1,8.85,49.3a18.38,18.38,0,0,1,6.74-5.63l.56-.27a34.59,34.59,0,0,1,4.22-1.31,26.9,26.9,0,0,1,3.58-.6,24.21,24.21,0,0,1,3.46-.09,14,14,0,0,1,3.29.54,10.59,10.59,0,0,1,5.63,3.53,17,17,0,0,1,2.58,5.06c.31.95.61,2,.89,3.12s.52,2.26.71,3.39.35,2.24.46,3.31a24.52,24.52,0,0,1,.15,3.1V64L41,64.2a7.27,7.27,0,0,1-.45,2.35,5.18,5.18,0,0,1-3.37,2.79l-.61.21-.43.12a5.19,5.19,0,0,1-1,.14,16.15,16.15,0,0,1-4.14,0,10.44,10.44,0,0,1-3.58-1.18,9.7,9.7,0,0,1-2.82-2.37,15.52,15.52,0,0,1-2-3.12L22.61,63l0-.13q-.14.6-.27,1.24c-.36,1.79-.65,3.71-.86,5.7a51.11,51.11,0,0,0-.31,5.44,38.66,38.66,0,0,0,.58,6.12,27.29,27.29,0,0,0,1.32,5c.14.36.28.68.42,1A22,22,0,0,0,25,84.38a10.74,10.74,0,0,1,7.05-6l.29-.07A12.5,12.5,0,0,1,34.18,78a16.28,16.28,0,0,1,2.21,0,7.2,7.2,0,0,1,4,1.3,6.46,6.46,0,0,1,2.26,3.17,8,8,0,0,1,.4,2.73c0,.72-.06,1.48-.13,2.28A20.7,20.7,0,0,1,39,97.91,14.18,14.18,0,0,1,30.76,103a14.83,14.83,0,0,1-1.49.29C23.59,104.07,18.41,104.12,11.7,100Z"/><path class="cls-8" d="M38.76,81.46a3.82,3.82,0,0,1,1.32,1.88,5.38,5.38,0,0,1,.26,1.82q0,1-.12,2.09a17.93,17.93,0,0,1-3.34,9.05,12,12,0,0,1-8,4.38c-.29,0-.55.1-.77.12a25.34,25.34,0,0,1-11.36-1.15,14,14,0,0,1-2.2-1,15.86,15.86,0,0,1-2.11-1.35,11,11,0,0,1-1.71-1.56l0,.1A16.93,16.93,0,0,1,8.46,93a25.31,25.31,0,0,1-1.84-3.51,30.94,30.94,0,0,1-1.94-6.69A44.09,44.09,0,0,1,4,74.81a51.4,51.4,0,0,1,.75-8.49A41.47,41.47,0,0,1,7,58.05,28.89,28.89,0,0,1,11,50.92a15.71,15.71,0,0,1,5.77-4.84A24.14,24.14,0,0,1,21,44.69c1.1-.2,2.16-.44,3.21-.54a21.57,21.57,0,0,1,3.07-.08,11.26,11.26,0,0,1,2.65.43,8,8,0,0,1,4.28,2.6,14.28,14.28,0,0,1,2.16,4.26q.43,1.34.83,2.94t.67,3.2q.27,1.6.43,3.14a20.81,20.81,0,0,1,.13,2.76,1,1,0,0,0-.09.3,5.22,5.22,0,0,1-.28,1.87c-.19.49-.77.89-1.73,1.22l-.61.21a2.66,2.66,0,0,1-.76.13,13.69,13.69,0,0,1-3.54,0,7.81,7.81,0,0,1-2.68-.87,7,7,0,0,1-2.05-1.73,12.7,12.7,0,0,1-1.62-2.59c-.25-.71-.49-1.44-.69-2.2s-.41-1.41-.61-2a5.82,5.82,0,0,0-.53-1.11,1.27,1.27,0,0,0-.66-.6A4.56,4.56,0,0,0,21,58.6a35,35,0,0,0-1.33,5q-.57,2.81-.9,5.95a53.55,53.55,0,0,0-.32,5.72,40.94,40.94,0,0,0,.62,6.58,29.6,29.6,0,0,0,1.47,5.51,11.84,11.84,0,0,0,1.26,2.48,2.27,2.27,0,0,0,1.44,1.08l.22,0c1.14-.25,2.47-2,4-5.33A8,8,0,0,1,32.77,81a9.4,9.4,0,0,1,1.62-.27,13.37,13.37,0,0,1,1.84,0A4.61,4.61,0,0,1,38.76,81.46Z"/><path class="cls-9" d="M61.94,106.71c-.35,0-.72,0-1.08,0a17.9,17.9,0,0,1-2.9-.31h0a21.79,21.79,0,0,1-13.27-6.6c-3.29-3.44-5.45-8.58-6.37-15.25A52.77,52.77,0,0,1,38,74a61.74,61.74,0,0,1,1.76-11.12,63.61,63.61,0,0,1,3.93-11.07,52.41,52.41,0,0,1,6.12-10.19l0-.06a22,22,0,0,1,4.43-4.08,18,18,0,0,1,5.21-2.6,17.68,17.68,0,0,1,4.05-.68,19.47,19.47,0,0,1,4.13.22,21.37,21.37,0,0,1,3.72,1A14.45,14.45,0,0,1,74.54,37l.06,0a13.32,13.32,0,0,1,3.31,3.41,16.88,16.88,0,0,1,2,4.18,29.61,29.61,0,0,1,1.06,4.65c.24,1.58.42,3.3.54,5.11a96.41,96.41,0,0,1,.08,10.1,114,114,0,0,1-1,11.39,94.72,94.72,0,0,1-2.25,11.23,47.92,47.92,0,0,1-3.67,9.77,22.74,22.74,0,0,1-5.53,7.06A12.09,12.09,0,0,1,61.94,106.71Zm.61-49.42q-.35.82-.7,1.73c-.71,1.85-1.38,3.89-2,6.08s-1.12,4.31-1.51,6.28a57.36,57.36,0,0,0-1,7.56,39.92,39.92,0,0,0,.11,6.83c.05.49.12,1,.2,1.38.31-.63.63-1.35.95-2.16a47.83,47.83,0,0,0,1.77-5.76c.56-2.26,1-4.71,1.42-7.26a80.38,80.38,0,0,0,.78-8A59.64,59.64,0,0,0,62.54,57.29Z"/><path class="cls-8" d="M75.68,41.93a14.18,14.18,0,0,1,1.65,3.51,27.31,27.31,0,0,1,1,4.23q.34,2.27.51,4.9a93,93,0,0,1,.08,9.82,110.89,110.89,0,0,1-1,11.13A92.69,92.69,0,0,1,75.7,86.43a45.1,45.1,0,0,1-3.46,9.22,20,20,0,0,1-4.86,6.23A9.51,9.51,0,0,1,60.92,104a15,15,0,0,1-2.46-.27h.05A19.18,19.18,0,0,1,46.64,98c-2.93-3.06-4.83-7.65-5.68-13.8a49.82,49.82,0,0,1-.32-10,58.68,58.68,0,0,1,1.69-10.63A60.4,60.4,0,0,1,46.09,53a49.6,49.6,0,0,1,5.81-9.68,19.17,19.17,0,0,1,3.89-3.58,15.25,15.25,0,0,1,4.43-2.23,14.94,14.94,0,0,1,3.45-.58,16.7,16.7,0,0,1,3.55.19,18.67,18.67,0,0,1,3.24.84A11.69,11.69,0,0,1,73,39.21,10.63,10.63,0,0,1,75.68,41.93Zm-12,9c-.63.15-1.33.89-2.09,2.23a36.3,36.3,0,0,0-2.26,4.91q-1.12,2.9-2.08,6.32t-1.56,6.48a60.62,60.62,0,0,0-1,7.91,42.74,42.74,0,0,0,.12,7.3,17.31,17.31,0,0,0,.84,4q.57,1.58,1.53,1.55T59.11,90a21.92,21.92,0,0,0,2-4.07A50.87,50.87,0,0,0,63,79.88q.88-3.53,1.47-7.51a81.67,81.67,0,0,0,.8-8.28,59.92,59.92,0,0,0-.15-8.27,23.81,23.81,0,0,0-.53-3.49q-.33-1.32-.83-1.43Z"/><path class="cls-10" d="M89.53,108.23c-2.12-.84-3.63-1.48-6.84-4.81-3.45-3.6-7-12.14-7.8-20.21a77.27,77.27,0,0,1-.19-12.66,91.13,91.13,0,0,1,1.88-13.44,90.11,90.11,0,0,1,4-13.39,68.17,68.17,0,0,1,6.15-12.3l0-.06a24.2,24.2,0,0,1,4.4-4.89,17.13,17.13,0,0,1,5.26-3.18,15.12,15.12,0,0,1,3.74-.81l.42,0a16.5,16.5,0,0,1,4.21.29,18.61,18.61,0,0,1,3.76,1.2,13.64,13.64,0,0,1,3.16,1.93l.06.05A14.65,14.65,0,0,1,115,30a21.68,21.68,0,0,1,1.83,4.84,41.29,41.29,0,0,1,1,5.46c.21,1.88.37,3.92.48,6.07.17,3.51.16,7.57,0,12.06s-.56,9-1.13,13.64a136.44,136.44,0,0,1-2.34,13.45,66.4,66.4,0,0,1-3.71,11.68,28.63,28.63,0,0,1-5.45,8.48C99.65,111.79,90.57,108.64,89.53,108.23Zm9.83-58.45q-.32.89-.63,1.86c-.74,2.28-1.44,4.8-2.08,7.5s-1.18,5.29-1.6,7.74A87.7,87.7,0,0,0,94,76.23a61.38,61.38,0,0,0,0,8.49q.07.85.17,1.6c.3-.74.6-1.56.9-2.48a70.85,70.85,0,0,0,1.87-7.14c.59-2.78,1.1-5.79,1.52-8.92s.71-6.46.87-9.82C99.47,55.15,99.48,52.41,99.36,49.78Z"/><path class="cls-8" d="M112.61,31.23a18.94,18.94,0,0,1,1.6,4.24,38.29,38.29,0,0,1,.9,5.1c.21,1.82.36,3.79.46,5.9q.25,5.2,0,11.82T114.44,71.7q-.84,6.77-2.29,13.19a63.52,63.52,0,0,1-3.55,11.2,25.42,25.42,0,0,1-4.91,7.67,8.87,8.87,0,0,1-6.47,2.83,12.44,12.44,0,0,1-2.46-.24h.06A17.13,17.13,0,0,1,83,99.66c-2.89-3.66-4.73-9.21-5.49-16.73a74.51,74.51,0,0,1-.19-12.22,88.23,88.23,0,0,1,1.83-13,86.62,86.62,0,0,1,3.89-13A65.35,65.35,0,0,1,89,32.87a21.41,21.41,0,0,1,3.91-4.35,14.41,14.41,0,0,1,4.43-2.7,12.38,12.38,0,0,1,3.43-.69,13.61,13.61,0,0,1,3.52.24,16,16,0,0,1,3.21,1A11,11,0,0,1,110,27.94,11.93,11.93,0,0,1,112.61,31.23Zm-12,10.9c-.63.18-1.34,1.09-2.11,2.71a49.61,49.61,0,0,0-2.31,6Q95,54.35,94,58.52t-1.63,7.9a89.62,89.62,0,0,0-1.1,9.64,63.35,63.35,0,0,0,0,8.87,24.65,24.65,0,0,0,.79,4.78q.55,1.91,1.51,1.84c.6,0,1.24-.68,1.92-1.91a30.2,30.2,0,0,0,2.05-5,73.65,73.65,0,0,0,1.94-7.41q.92-4.3,1.55-9.13t.9-10a88.85,88.85,0,0,0,0-10,35,35,0,0,0-.48-4.23c-.21-1.07-.48-1.64-.8-1.73Z"/><path class="cls-11" d="M113.73,107.82a16.36,16.36,0,0,1-1.11-2c-.36-.65-.76-1.4-1.2-2.29l-.51-1-.43-.79a13.83,13.83,0,0,1-.75-1.58s-.53-1.56-.63-2a16.2,16.2,0,0,1-.39-4.42c0-.5.06-1,.12-1.55s.14-.95.25-1.51h0c.41-2.68.93-5.78,1.54-9.2s1.35-7.22,2.14-11.17,1.69-8.25,2.59-12.45,1.88-8.63,2.85-12.84,2-8.38,2.92-12.25,1.9-7.54,2.75-10.75l0-.11c1.28-4.1,3.09-6.42,5.54-7.11a7.78,7.78,0,0,1,2.09-.28,10,10,0,0,1,2.75.41,15.77,15.77,0,0,1,4.41,2.24c2.79,1.9,5.89,4,4.4,11.3-.8,3.93-2.68,9.63-3.87,14.17s-2.39,9.33-3.57,14.22-2.34,9.75-3.53,14.81c-.78,3.32-1.55,6.65-2.3,10a20.1,20.1,0,0,1,5.28-.79h.14a5.28,5.28,0,0,1,4.23,2,10.7,10.7,0,0,1,1.88,4.61l.1.46c.14.57.27,1.17.38,1.78a108.26,108.26,0,0,1,.45,11A6.93,6.93,0,0,1,141,104a6.78,6.78,0,0,1-2.53,1.87,77.52,77.52,0,0,1-8.57,2.92c-2.32.62-4.54,1.29-6.61,2h0a7.59,7.59,0,0,1-2.39.74,9.41,9.41,0,0,1-1.13.07c-.25,0-.5,0-.73,0l-.52-.07C116.7,111.21,116.15,111.05,113.73,107.82Z"/><path class="cls-8" d="M136.57,103.9a48.33,48.33,0,0,1-7.36,2.32q-3.76,1-7.15,2.18a8.39,8.39,0,0,1-1.49.5,6.27,6.27,0,0,1-1.3,0,3,3,0,0,1-2-.83,20.42,20.42,0,0,1-1.26-1.61q-.57-1-1.09-1.91c-.35-.62-1.08-2.17-1.08-2.17l-1-1.91a11.88,11.88,0,0,1-1.12-2.91,13.37,13.37,0,0,1-.32-3.68c0-.43.05-.87.1-1.33s.15-1,.28-1.6l-.06.18q.6-3.95,1.53-9.13t2.13-11.12q1.2-6,2.58-12.41t2.84-12.81q1.46-6.35,2.91-12.2t2.74-10.71c1-3.13,2.21-4.91,3.71-5.32a6.17,6.17,0,0,1,3.39.13,10.87,10.87,0,0,1,3.53,1.8,11.7,11.7,0,0,1,2.71,2.93,5.74,5.74,0,0,1,1,3.54,11.22,11.22,0,0,1-.23,1.62c-.12.53-.3,1.2-.55,2l.07-.12q-1.58,5.79-3.38,12.7T133,56.3q-1.78,7.35-3.53,14.83t-3.31,14.4q2.2-.62,4.32-1.25a17.18,17.18,0,0,1,4.63-.69,2.66,2.66,0,0,1,2.25,1A8.51,8.51,0,0,1,138.73,88l0-.1a32.64,32.64,0,0,1,1,6,41.45,41.45,0,0,1,.09,5.66,4.65,4.65,0,0,1-.79,2.66A9.09,9.09,0,0,1,136.57,103.9Z"/><path class="cls-12" d="M146.65,120.08l-.79,0h-.08A9.54,9.54,0,0,1,138.6,116c-1.73-2.34-2.41-5.51-2-9.41,0-.48.11-.9.17-1.28s.12-.65.19-.94v0l0-.14a21.47,21.47,0,0,1,1.43-4.38,15.77,15.77,0,0,1,2.55-4,14,14,0,0,1,3.48-2.87,9.34,9.34,0,0,1,3.1-1.14,14.64,14.64,0,0,1-2-1.87,14.25,14.25,0,0,1-2.52-4.21,12.06,12.06,0,0,1-.81-5.41,32,32,0,0,1,.67-4.11c.87-4.5,2-9.68,3.23-15.35s2.64-11.69,4-17.69,2.86-12.07,4.27-17.79,2.76-11,4-15.47a23.6,23.6,0,0,1,1.88-5.07A6.44,6.44,0,0,1,164,1.6a5.42,5.42,0,0,1,1.63-.26,9,9,0,0,1,2.59.5,14.86,14.86,0,0,1,5.42,3.1,15.73,15.73,0,0,1,1.79,1.73c1,1.28,3.29,4.29,1,13-1.52,5.75-3.23,11.59-4.89,17.58s-3.24,11.83-4.79,17.63-3,11.4-4.38,16.78-2.62,10.44-3.75,15.19h0A14.72,14.72,0,0,1,157,91.54a5.18,5.18,0,0,1-2,1.94,10.57,10.57,0,0,1,2.87,3.46,13.53,13.53,0,0,1,1.4,4.57,17.72,17.72,0,0,1,0,4.32,18.23,18.23,0,0,1-.86,3.29,22.09,22.09,0,0,1-2.2,4.71,16.19,16.19,0,0,1-3.89,4.34A9.1,9.1,0,0,1,146.65,120.08Z"/><path class="cls-8" d="M139.59,104.71a18.63,18.63,0,0,1,1.25-3.84A13,13,0,0,1,143,97.55a11.36,11.36,0,0,1,2.82-2.33,6.7,6.7,0,0,1,3.37-.92,6.53,6.53,0,0,1,3.92,1.09,7.88,7.88,0,0,1,2.42,2.79,10.84,10.84,0,0,1,1.12,3.66,14.94,14.94,0,0,1,0,3.67,18.34,18.34,0,0,1-.75,2.79,19.38,19.38,0,0,1-1.93,4.13,13.41,13.41,0,0,1-3.25,3.63,6.57,6.57,0,0,1-4.67,1.33H146a6.83,6.83,0,0,1-5.22-3q-2-2.71-1.52-7.57c0-.41.09-.78.14-1.11s.12-.63.2-.93Zm35.15-90.06a15.65,15.65,0,0,1-.35,2q-.26,1.1-.63,2.45l.08-.13q-2.4,8.59-4.89,17.58t-4.8,17.66q-2.3,8.67-4.38,16.8T156,86.28v-.11a13.11,13.11,0,0,1-1.3,4A2.07,2.07,0,0,1,153,91.3a5.29,5.29,0,0,1-2.66-.87,11.08,11.08,0,0,1-2.72-2.3,11.59,11.59,0,0,1-2-3.43,9.37,9.37,0,0,1-.63-4.23,30.27,30.27,0,0,1,.62-3.74q1.31-6.77,3.22-15.33t4-17.66q2.14-9.11,4.26-17.76T161,10.56a21.16,21.16,0,0,1,1.64-4.47,3.84,3.84,0,0,1,2.16-1.94,2.72,2.72,0,0,1,2,.14,33.34,33.34,0,0,1,3.27,1.43,10.43,10.43,0,0,1,3.09,2.56A8.62,8.62,0,0,1,174.75,14.65Z"/></g></g></svg>