<svg width="564" height="564" xmlns="http://www.w3.org/2000/svg">
 <g>
  <title>background</title>
  <rect x="-1" y="-1" width="566" height="566" id="canvas_background" fill="none"/>
 </g>
 <defs>
  <filter id="svg_62_blur">
   <feGaussianBlur stdDeviation="0.7" in="SourceGraphic"/>
  </filter>
 </defs>
 <g>
  <title>Layer 1</title>
  <ellipse stroke="#000" transform="rotate(2.989166021347046 278.4999694824203,280.49996948242193) " filter="url(#svg_62_blur)" opacity="0.7" ry="266.313733" rx="271.092722" id="svg_62" cy="280.500008" cx="278.499983" stroke-width="0" fill="#1b2121"/>
  <ellipse fill="#2c3e50" stroke-width="null" stroke-opacity="null" cx="268.000002" cy="270.000002" id="svg_63" rx="263.500002" ry="263.500002" stroke="null"/>
  <circle cx="267.499996" cy="269.499996" r="250.5" fill="#1a91a1" id="svg_1" stroke="null"/>
  <path d="m311.3,67.1l121.9,294.9l-231.6,95.7l-120.8,-292.1c4.5,-1.7 8.8,-4.4 12.8,-7c15.1,-9.5 31.8,-19.7 49.5,-17.1c-0.7,-2.5 -1.4,-4.9 -2.1,-7.4c7.8,0.4 15.8,-1.3 22.8,-4.8c0.2,-1.2 0.4,-2.4 0.6,-3.6c23.6,-9.4 47.6,-18 71.9,-25.6c2,-0.6 4,-1.2 5.9,-0.5c1.6,0.6 2.8,2.1 4.1,3.1c5,3.7 12.3,1.4 16.9,-2.7c4.6,-4.2 7.6,-9.8 12,-14.2c6.9,-6.8 16.6,-10 25.6,-13.8c3.6,-1.5 7.1,-3.1 10.5,-4.9z" fill="#E6E9EE" id="svg_2"/>
  <g id="svg_3">
   <rect x="86.603" y="154.208" transform="matrix(-0.9242,0.3819,-0.3819,-0.9242,466.8264,216.7645) " width="250.599" height="1" fill="#FF7058" id="svg_4"/>
   <rect x="88.484" y="158.824" transform="matrix(-0.9242,0.3819,-0.3819,-0.9242,472.21,224.9274) " width="250.599" height="1" fill="#FF7058" id="svg_5"/>
  </g>
  <g id="svg_6">
   <rect x="95.802" y="176.514" transform="matrix(-0.9242,0.3819,-0.3819,-0.9242,493.0459,256.173) " width="250.599" height="1" fill="#CED5E0" id="svg_7"/>
   <rect x="103.306" y="194.598" transform="matrix(-0.9242,0.3819,-0.3819,-0.9242,514.3912,288.1041) " width="250.599" height="1" fill="#CED5E0" id="svg_8"/>
   <rect x="110.685" y="212.638" transform="matrix(-0.9242,0.3819,-0.3819,-0.9242,535.4797,319.9977) " width="250.599" height="1" fill="#CED5E0" id="svg_9"/>
   <rect x="118.193" y="230.722" transform="matrix(-0.9242,0.3819,-0.3819,-0.9242,556.8326,351.9272) " width="250.599" height="1" fill="#CED5E0" id="svg_10"/>
   <rect x="125.697" y="248.805" transform="matrix(-0.9242,0.3819,-0.3819,-0.9242,578.1779,383.8583) " width="250.599" height="1" fill="#CED5E0" id="svg_11"/>
   <rect x="133.211" y="266.899" transform="matrix(-0.9242,0.3819,-0.3819,-0.9242,599.5461,415.8049) " width="250.599" height="1" fill="#CED5E0" id="svg_12"/>
   <rect x="140.584" y="284.929" transform="matrix(-0.9242,0.3819,-0.3819,-0.9242,620.6193,447.6815) " width="250.599" height="1" fill="#CED5E0" id="svg_13"/>
   <rect x="148.088" y="303.012" transform="matrix(-0.9242,0.3819,-0.3819,-0.9242,641.9645,479.6126) " width="250.599" height="1" fill="#CED5E0" id="svg_14"/>
   <rect x="155.592" y="321.106" transform="matrix(-0.9242,0.3819,-0.3819,-0.9242,663.3136,511.563) " width="250.599" height="1" fill="#CED5E0" id="svg_15"/>
   <rect x="163.013" y="339.228" transform="matrix(-0.9242,0.3819,-0.3819,-0.9242,684.5148,543.5991) " width="250.599" height="1" fill="#CED5E0" id="svg_16"/>
   <rect x="170.479" y="357.22" transform="matrix(-0.9242,0.3819,-0.3819,-0.9242,705.7513,575.3669) " width="250.599" height="1" fill="#CED5E0" id="svg_17"/>
   <rect x="177.983" y="375.313" transform="matrix(-0.9242,0.3819,-0.3819,-0.9242,727.1003,607.3172) " width="250.599" height="1" fill="#CED5E0" id="svg_18"/>
   <rect x="185.404" y="393.435" transform="matrix(-0.9242,0.3819,-0.3819,-0.9242,748.3015,639.3533) " width="250.599" height="1" fill="#CED5E0" id="svg_19"/>
  </g>
  <path d="m372.3,114.8l0,295.3l-231.9,0l0,-292.6c4.5,0.1 9,-0.6 13.4,-1.4c16.3,-2.8 34.2,-5.6 48.4,2.9c0.3,-2.4 0.5,-4.7 0.8,-7.1c6.6,3.1 14,4.5 21.2,4c0.6,-0.9 1.2,-1.9 1.8,-2.8c23.5,0.3 47.1,1.5 70.5,3.5c1.9,0.2 3.9,0.4 5.2,1.6c1.2,1.1 1.6,2.7 2.4,4.1c2.9,4.9 10,5.6 15.4,3.7s10,-5.7 15.3,-7.9c8.3,-3.4 17.7,-2.7 26.8,-2.7c3.6,-0.1 7.2,-0.3 10.7,-0.6z" fill="#FFFFFF" id="svg_20"/>
  <g id="svg_21">
   <rect x="140.4" y="154.1" width="231.9" height="1" fill="#FF7058" id="svg_22"/>
   <rect x="140.4" y="158.7" width="231.9" height="1" fill="#FF7058" id="svg_23"/>
  </g>
  <g id="svg_24">
   <rect x="140.4" y="176.4" width="231.9" height="1" fill="#CED5E0" id="svg_25"/>
   <rect x="140.4" y="194.5" width="231.9" height="1" fill="#CED5E0" id="svg_26"/>
   <rect x="140.4" y="212.6" width="231.9" height="1" fill="#CED5E0" id="svg_27"/>
   <rect x="140.4" y="230.7" width="231.9" height="1" fill="#CED5E0" id="svg_28"/>
   <rect x="140.4" y="248.8" width="231.9" height="1" fill="#CED5E0" id="svg_29"/>
   <rect x="140.4" y="266.9" width="231.9" height="1" fill="#CED5E0" id="svg_30"/>
   <rect x="140.4" y="285" width="231.9" height="1" fill="#CED5E0" id="svg_31"/>
   <rect x="140.4" y="303.1" width="231.9" height="1" fill="#CED5E0" id="svg_32"/>
   <rect x="140.4" y="321.2" width="231.9" height="1" fill="#CED5E0" id="svg_33"/>
   <rect x="140.4" y="339.3" width="231.9" height="1" fill="#CED5E0" id="svg_34"/>
   <rect x="140.4" y="357.4" width="231.9" height="1" fill="#CED5E0" id="svg_35"/>
   <rect x="140.4" y="375.4" width="231.9" height="1" fill="#CED5E0" id="svg_36"/>
   <rect x="140.4" y="393.5" width="231.9" height="1" fill="#CED5E0" id="svg_37"/>
  </g>
  <polygon points="268.5,374.4 288,354.9 249.3,316.2 229.8,335.7 229.7,335.7 218.1,386.2 268.6,374.5 " fill="#FFD05B" id="svg_38"/>
  <polygon points="221.7,370.6 218.1,386.2 233.7,382.6 " fill="#324A5E" id="svg_39"/>
  <path d="m405.4,198.9l13,13l-149.8,149.7c-3.6,3.6 -9.4,3.6 -13,0l0,0c-3.6,-3.6 -3.6,-9.4 0,-13l149.8,-149.7z" fill="#54C0EB" id="svg_40"/>
  <g id="svg_41">
   <path d="m392.5,185.9l13,13l-149.8,149.7c-3.6,3.6 -9.4,3.6 -13,0l0,0c-3.6,-3.6 -3.6,-9.4 0,-13l149.8,-149.7z" fill="#84DBFF" id="svg_42"/>
   <path d="m424.8,218.2l-6.4,-6.4l-149.8,149.8c-3.5,3.5 -3.6,9.3 -0.1,12.9l156.3,-156.3z" fill="#84DBFF" id="svg_43"/>
  </g>
  <path d="m386.1,179.5l6.4,6.4l-149.8,149.8c-3.5,3.5 -9.3,3.6 -12.9,0.1l156.3,-156.3z" fill="#54C0EB" id="svg_44"/>
  <rect x="384.503" y="183.282" transform="matrix(-0.7071,-0.7071,0.7071,-0.7071,567.0426,619.6407) " width="54.699" height="18.2" fill="#FFD05B" id="svg_45"/>
  <path d="m437.7,205.3l-38.7,-38.7l17.2,-17.2c1.1,-1.1 2.9,-1.1 4,0l34.7,34.7c1.1,1.1 1.1,2.9 0,4l-17.2,17.2z" fill="#FF7058" id="svg_46"/>
  <g id="svg_47"/>
  <g id="svg_48"/>
  <g id="svg_49"/>
  <g id="svg_50"/>
  <g id="svg_51"/>
  <g id="svg_52"/>
  <g id="svg_53"/>
  <g id="svg_54"/>
  <g id="svg_55"/>
  <g id="svg_56"/>
  <g id="svg_57"/>
  <g id="svg_58"/>
  <g id="svg_59"/>
  <g id="svg_60"/>
  <g id="svg_61"/>
 </g>
</svg>