<svg width="541.999" height="551.999" xmlns="http://www.w3.org/2000/svg">
 <g>
  <title>background</title>
  <rect x="-1" y="-1" width="543.999" height="553.999" id="canvas_background" fill="none"/>
 </g>

 <g>
  <title>Layer 1</title>
  <ellipse ry="270" rx="270" id="svg_38" cy="273.499496" cx="271.499512" stroke-opacity="null" stroke-width="0" stroke="#000" fill="#2c3e50"/>
  <ellipse stroke="#000" fill="#1a91a1" stroke-width="0" cx="272.499516" cy="272.999487" id="svg_37" rx="253.000004" ry="253.000008"/>
  <g id="svg_36" stroke="null">
   <ellipse cx="187.825056" cy="139.820543" rx="42.289991" ry="35.241659" fill="#785550" id="svg_1" stroke="null"/>
   <path d="m173.72583,139.81884c0,-15.33768 11.77852,-28.35123 28.19333,-33.19408c-4.41524,-1.30246 -9.14627,-2.04844 -14.09667,-2.04844c-23.35645,0 -42.28999,15.77809 -42.28999,35.24166s18.93354,35.24166 42.28999,35.24166c4.9504,0 9.68143,-0.74512 14.09667,-2.04844c-16.41481,-4.84199 -28.19333,-17.85469 -28.19333,-33.19236z" fill="#694B4B" id="svg_2" stroke="null"/>
   <circle cx="187.825056" cy="231.445443" r="91.633385" fill="#5A4146" id="svg_3" stroke="null"/>
   <path d="m169.94732,211.4416c0.60343,0.18436 0.9363,0.27056 0.9363,0.27056l8.94826,110.9613c2.63822,0.22874 5.29265,0.40371 7.99062,0.40371c50.60494,0 91.62916,-41.02423 91.62916,-91.62917c0,-23.93514 -7.37864,-39.09613 -16.81596,-52.79164c-16.5932,-23.46912 -43.88436,-38.83753 -74.8132,-38.83753c-4.73531,0 -9.35027,0.47115 -13.89182,1.16335c-36.15578,6.81617 -40.67429,59.25788 -3.98336,70.45942z" fill="#694B4B" id="svg_4" stroke="null"/>
   <path d="m68,464.04466l0,-38.01814c0,-11.16569 6.58914,-21.279 16.80316,-25.78983l59.37652,-26.22427c5.10659,-2.25584 8.40116,-7.31207 8.40116,-12.89491l0,-30.99115l70.48417,0l0,30.99115c0,5.58284 3.29457,10.63992 8.40115,12.89491l59.37652,26.22427c10.21402,4.51083 16.80316,14.62499 16.80316,25.78983l0,38.01814c0,3.89289 -3.15544,7.04834 -7.04833,7.04834l-225.54918,0c-3.89288,0 -7.04833,-3.15545 -7.04833,-7.04834z" fill="#E6AF78" id="svg_5" stroke="null"/>
   <path d="m290.84268,400.23584l-43.79474,-19.34238c-9.10701,23.87198 -32.15364,40.86036 -59.22544,40.86036s-50.11759,-16.98838 -59.22545,-40.86036l-43.79474,19.34238c-10.21317,4.51083 -16.80231,14.62499 -16.80231,25.78982l0,38.01815c0,3.89203 3.15545,7.04833 7.04833,7.04833l225.54833,0c3.89288,0 7.04833,-3.1563 7.04833,-7.04833l0,-38.01815c0,-11.16483 -6.58914,-21.27899 -16.80231,-25.78982z" fill="#FFF082" id="svg_6" stroke="null"/>
   <path d="m152.58084,350.5544c10.73978,4.93588 22.64803,7.76443 35.24166,7.76443s24.50272,-2.82855 35.24165,-7.76443l0,-20.4289l-70.48331,0l0,20.4289z" fill="#D29B6E" id="svg_7" stroke="null"/>
   <path d="m251.19859,245.54979c-11.31762,-9.84274 -36.72763,-27.24849 -80.31497,-33.83848c-6.03179,-0.91241 -12.1148,2.05697 -14.79825,7.53569c-4.47157,9.13005 -13.98229,23.74822 -32.86718,36.63118c-3.74864,2.55713 -5.87987,6.90665 -5.87987,11.44394l0,4.00128c0,37.54103 28.32904,70.3203 65.79155,72.74599c41.05154,2.65785 75.17594,-29.85171 75.17594,-70.33139l0,-12.36574c0.00086,-6.0574 -2.53665,-11.84765 -7.10722,-15.82247z" fill="#F0C087" id="svg_8" stroke="null"/>
   <path d="m255.14695,250.41141c-1.08311,-1.78214 -2.33948,-3.46185 -3.94836,-4.86162c-11.31762,-9.8436 -36.72848,-27.24849 -80.31497,-33.83848c-6.03264,-0.91241 -12.1148,2.05612 -14.79825,7.53569c-1.07799,2.20122 -2.52043,4.76603 -4.25051,7.50581c-5.41129,8.59491 -14.23493,19.29031 -28.504,29.0477c-3.78193,2.58615 -5.99254,6.93994 -5.99254,11.52161l0,4.00128c0,36.23174 26.41631,67.9424 61.93366,72.29704c-12.14126,-12.66191 -19.64281,-29.80903 -19.64281,-48.73745l0,-44.31282c0,-7.25147 5.44543,-13.30717 12.66105,-14.03607c16.94399,-1.70959 48.82963,-1.85639 82.85673,13.87731z" fill="#E6AF78" id="svg_9" stroke="null"/>
   <g id="svg_10" stroke="null">
    <path d="m78.54177,404.10226c-6.54561,5.27131 -10.54177,13.26278 -10.54177,21.9234l0,38.01815c0,3.89288 3.15545,7.04833 7.04833,7.04833l42.28999,0l0,-19.43455c0,-5.60845 -2.22767,-10.98645 -6.19311,-14.95188l-32.60344,-32.60345z" fill="#FFDC64" id="svg_11" stroke="null"/>
    <path d="m297.10322,404.10226c6.54476,5.27131 10.54177,13.26278 10.54177,21.9234l0,38.01815c0,3.89288 -3.15545,7.04833 -7.04833,7.04833l-42.28999,0l0,-19.43455c0,-5.60845 2.22767,-10.98645 6.19311,-14.95188l32.60344,-32.60345z" fill="#FFDC64" id="svg_12" stroke="null"/>
   </g>
   <path d="m483.85499,104.57632l-155.065,0c-11.6778,0 -21.145,9.4672 -21.145,21.145l0,112.77416c0,11.6778 9.4672,21.145 21.145,21.145l21.14499,0l-11.74437,46.9775c-0.79804,3.19385 2.8294,5.64088 5.49152,3.70511l69.68784,-50.68261l70.48417,0c11.6778,0 21.145,-9.4672 21.145,-21.145l0,-112.77331c0.00085,-11.67865 -9.46635,-21.14585 -21.14415,-21.14585z" fill="#E2E7F2" id="svg_13" stroke="null"/>
   <path d="m335.83832,139.81884c0,38.92714 31.55703,70.48417 70.48417,70.48417s70.48417,-31.55703 70.48417,-70.48417c0,-12.8531 -3.496,-24.86633 -9.50645,-35.24166l-121.95458,0c-6.01046,10.37533 -9.50731,22.38771 -9.50731,35.24166z" fill="#ECF0FA" id="svg_14" stroke="null"/>
   <path d="m406.32249,238.49634c-3.8963,0 -7.04833,-3.1563 -7.04833,-7.04834l0,-14.09666c0,-3.89203 3.15289,-7.04833 7.04833,-7.04833s7.04833,3.1563 7.04833,7.04833l0,14.09666c0,3.89204 -3.15203,7.04834 -7.04833,7.04834z" fill="#959CB5" id="svg_15" stroke="null"/>
   <circle cx="406.325051" cy="139.820543" r="56.383221" fill="#FFDC64" id="svg_16" stroke="null"/>
   <circle cx="406.325051" cy="139.820543" r="42.289982" fill="#FFF082" id="svg_17" stroke="null"/>
   <path d="m428.99613,132.93865c-3.77168,-0.83303 -7.56471,1.54913 -8.41139,5.35154l-0.3397,1.52779l-27.8451,0l-0.3397,-1.52779c-0.84668,-3.80327 -4.6252,-6.1914 -8.41139,-5.35154c-3.79985,0.84327 -6.19482,4.60813 -5.35496,8.40798l11.64964,52.42378c4.75322,1.44159 9.77872,2.23536 14.97066,2.36424l-9.38184,-42.21915l21.57943,0l-9.38184,42.21915c5.19279,-0.12888 10.21829,-0.92265 14.97066,-2.36424l11.64963,-52.42378c0.84072,-3.79985 -1.5551,-7.56471 -5.3541,-8.40798z" fill="#FFFFFF" id="svg_18" stroke="null"/>
   <path d="m385.17749,192.08728l0,25.26406c0,3.89203 3.15545,7.04833 7.04834,7.04833l28.19332,0c3.89289,0 7.04834,-3.1563 7.04834,-7.04833l0,-25.26406l-42.29,0z" fill="#AFB9D2" id="svg_19" stroke="null"/>
   <path d="m399.27416,217.35049l0,-25.26407l-14.09667,0l0,25.26407c0,3.89203 3.15545,7.04833 7.04834,7.04833l14.09666,0c-3.89288,0.00085 -7.04833,-3.15545 -7.04833,-7.04833z" fill="#959CB5" id="svg_20" stroke="null"/>
   <g id="svg_21" stroke="null"/>
   <g id="svg_22" stroke="null"/>
   <g id="svg_23" stroke="null"/>
   <g id="svg_24" stroke="null"/>
   <g id="svg_25" stroke="null"/>
   <g id="svg_26" stroke="null"/>
   <g id="svg_27" stroke="null"/>
   <g id="svg_28" stroke="null"/>
   <g id="svg_29" stroke="null"/>
   <g id="svg_30" stroke="null"/>
   <g id="svg_31" stroke="null"/>
   <g id="svg_32" stroke="null"/>
   <g id="svg_33" stroke="null"/>
   <g id="svg_34" stroke="null"/>
   <g id="svg_35" stroke="null"/>
  </g>
 </g>
</svg>