<svg width="438.533" height="438.533" xmlns="http://www.w3.org/2000/svg">

 <g>
  <title>background</title>
  <rect fill="none" id="canvas_background" height="402" width="582" y="-1" x="-1"/>
 </g>
 <g>
  <title>Layer 1</title>
  <g id="svg_1">
   <path id="svg_2" fill="#34495e" d="m409.133,109.203c-19.608,-33.592 -46.205,-60.189 -79.798,-79.796c-33.599,-19.606 -70.277,-29.407 -110.062,-29.407c-39.781,0 -76.47,9.801 -110.063,29.407c-33.595,19.604 -60.192,46.201 -79.8,79.796c-19.609,33.597 -29.41,70.286 -29.41,110.064c0,39.78 9.804,76.463 29.407,110.062c19.607,33.592 46.204,60.189 79.799,79.798c33.597,19.605 70.283,29.407 110.063,29.407s76.47,-9.802 110.065,-29.407c33.593,-19.602 60.189,-46.206 79.795,-79.798c19.603,-33.596 29.403,-70.284 29.403,-110.062c0.001,-39.782 -9.8,-76.472 -29.399,-110.064z"/>
  </g>
  <g id="svg_3"/>
  <g id="svg_4"/>
  <g id="svg_5"/>
  <g id="svg_6"/>
  <g id="svg_7"/>
  <g id="svg_8"/>
  <g id="svg_9"/>
  <g id="svg_10"/>
  <g id="svg_11"/>
  <g id="svg_12"/>
  <g id="svg_13"/>
  <g id="svg_14"/>
  <g id="svg_15"/>
  <g id="svg_16"/>
  <g id="svg_17"/>
  <g stroke="null" id="svg_117">
   <g stroke="null" transform="matrix(0.8031616262136505,0,0,0.8031616262136505,-1582.6362115850607,-2322.852890465942) " id="svg_115">
    <title stroke="null" transform="translate(1.2450793981552124,0) translate(-1.2450793981552124,0) translate(0,1.2450793981552124) translate(-1.2450793981552124,0) translate(0,1.2450793981552124) translate(0,1.2450793981552124) translate(-1.2450793981552124,0) translate(0,1.2450793981552124) translate(-1.2450793981552124,0) translate(0,1.2450793981552124) translate(1.2667593955993652,0) translate(-1.2667593955993652,0) translate(-1.2667593955993652,0) translate(0,1.2667593955993652) translate(0,1.2667593955993652) translate(0,1.2667593955993652) translate(-6.333796977996826,-3.8002781867980957) translate(-64.15579223632812,9.35605239868164) translate(-336.12078857421875,454.435302734375) translate(2399.986572265625,0) translate(0,2434.454833984375) ">background</title>
    <rect stroke="null" x="1987.374197" y="2903.471586" width="582" height="402" id="svg_113" fill="none"/>
   </g>
   <g stroke="null" transform="matrix(0.8031616262136505,0,0,0.8031616262136505,-1582.6362115850607,-2322.852890465942) " id="svg_116">
    <title stroke="null" transform="translate(1.2450793981552124,0) translate(-1.2450793981552124,0) translate(0,1.2450793981552124) translate(-1.2450793981552124,0) translate(0,1.2450793981552124) translate(0,1.2450793981552124) translate(-1.2450793981552124,0) translate(0,1.2450793981552124) translate(-1.2450793981552124,0) translate(0,1.2450793981552124) translate(1.2667593955993652,0) translate(-1.2667593955993652,0) translate(-1.2667593955993652,0) translate(0,1.2667593955993652) translate(0,1.2667593955993652) translate(0,1.2667593955993652) translate(-6.333796977996826,-3.8002781867980957) translate(-64.15579223632812,9.35605239868164) translate(-336.12078857421875,454.435302734375) translate(2399.986572265625,0) translate(0,2434.454833984375) ">Layer 1</title>
    <ellipse stroke="null" fill="#1a91a1" stroke-width="null" stroke-opacity="null" cx="2243.869995" cy="3163.662484" id="svg_112" rx="254.995792" ry="252.872711"/>
    <path stroke="null" d="m2244.374197,2904.471586c-30.879,0 -56,25.121 -56,56s25.121,56 56,56s56,-25.121 56,-56s-25.121,-56 -56,-56z" fill="#F3561D" id="svg_111"/>
    <path stroke="null" d="m2260.374197,3000.471586c-30.879,0 -56,-25.121 -56,-56c0,-11.356 3.407,-21.926 9.239,-30.761c-15.19,10.026 -25.239,27.238 -25.239,46.761c0,30.879 25.121,56 56,56c19.523,0 36.735,-10.049 46.761,-25.239c-8.835,5.832 -19.405,9.239 -30.761,9.239z" fill="#ED3124" id="svg_110"/>
    <path stroke="null" d="m2388.374197,3016.471586c-30.879,0 -56,25.121 -56,56s25.121,56 56,56s56,-25.121 56,-56s-25.121,-56 -56,-56z" fill="#C7D450" id="svg_109"/>
    <path stroke="null" d="m2404.374197,3112.471586c-30.879,0 -56,-25.121 -56,-56c0,-11.356 3.407,-21.926 9.239,-30.761c-15.19,10.026 -25.239,27.238 -25.239,46.761c0,30.879 25.121,56 56,56c19.523,0 36.735,-10.049 46.761,-25.239c-8.835,5.832 -19.405,9.239 -30.761,9.239z" fill="#AEBB32" id="svg_108"/>
    <path stroke="null" d="m2100.374197,3016.471586c-30.879,0 -56,25.121 -56,56s25.121,56 56,56s56,-25.121 56,-56s-25.121,-56 -56,-56z" fill="#C7D450" id="svg_107"/>
    <path stroke="null" d="m2116.374197,3112.471586c-30.879,0 -56,-25.121 -56,-56c0,-11.356 3.407,-21.926 9.239,-30.761c-15.19,10.026 -25.239,27.238 -25.239,46.761c0,30.879 25.121,56 56,56c19.523,0 36.735,-10.049 46.761,-25.239c-8.835,5.832 -19.405,9.239 -30.761,9.239z" fill="#AEBB32" id="svg_106"/>
    <path stroke="null" d="m2044.374197,3128.471586c8.837,0 16,7.164 16,16l0,104l-32,0l0,-104c0,-8.836 7.163,-16 16,-16z" fill="#F6D8C9" id="svg_105"/>
    <path stroke="null" d="m2028.374197,3144.471586c0,-7.573 5.267,-13.901 12.333,-15.561l0,119.561l-12.333,0l0,-104z" fill="#FAC7A9" id="svg_104"/>
    <path stroke="null" d="m2076.374197,3160.471586c8.837,0 16,7.164 16,16l0,104l-32,0l0,-104c0,-8.836 7.163,-16 16,-16z" fill="#F6D8C9" id="svg_103"/>
    <path stroke="null" d="m2060.374197,3176.471586c0,-7.333 4.939,-13.499 11.667,-15.39l0,119.39l-11.667,0l0,-104z" fill="#FAC7A9" id="svg_102"/>
    <path stroke="null" d="m2108.374197,3200.471586c8.837,0 16,7.164 16,16l0,104l-32,0l0,-104c0,-8.836 7.163,-16 16,-16z" fill="#F6D8C9" id="svg_101"/>
    <g stroke="null" id="svg_97">
     <path stroke="null" d="m2092.374197,3216.471586c0,-7.333 4.939,-13.499 11.667,-15.39l0,119.39l-11.667,0l0,-104z" fill="#FAC7A9" id="svg_100"/>
     <path stroke="null" d="m2116.374197,3416.471586l0,-48l-48,-32l-72,-72l0,-88.452c0,-9.093 7.585,-16.414 16.773,-15.982c8.606,0.405 15.227,7.819 15.227,16.434l0,56l64,40l32,0c35.346,0 64,28.654 64,64l0,80" fill="#FAC7A9" id="svg_99"/>
     <path stroke="null" d="m2050.088197,3229.242586l42.286,42.927l-22.628,22.628l-42.455,-43.098c-6.201,-6.295 -6.125,-16.426 0.17,-22.627s16.426,-6.124 22.627,0.17z" fill="#FAC7A9" id="svg_98"/>
    </g>
    <g stroke="null" id="svg_94">
     <path stroke="null" d="m2079.056197,3285.487586l-9.31,9.311l-42.455,-43.098c-5.38,-5.462 -6.028,-13.808 -1.995,-19.973l53.76,53.76z" fill="#EAB498" id="svg_96"/>
     <path stroke="null" d="m2012.374197,3160.041586l0,96.43l72,72l51.969,29.697c2.493,1.424 4.031,4.075 4.031,6.946l0,51.357l-24,0l0,-48l-48,-32l-72,-72l0,-88.452c0,-8.835 7.166,-15.975 16,-15.978z" fill="#EAB498" id="svg_95"/>
    </g>
    <path stroke="null" d="m2444.374197,3128.471586c-8.837,0 -16,7.164 -16,16l0,104l32,0l0,-104c0,-8.836 -7.163,-16 -16,-16z" fill="#F6D8C9" id="svg_93"/>
    <path stroke="null" d="m2460.374197,3144.471586c0,-7.573 -5.267,-13.901 -12.333,-15.561l0,119.561l12.333,0l0,-104z" fill="#FAC7A9" id="svg_92"/>
    <path stroke="null" d="m2412.374197,3160.471586c-8.837,0 -16,7.164 -16,16l0,104l32,0l0,-104c0,-8.836 -7.163,-16 -16,-16z" fill="#F6D8C9" id="svg_91"/>
    <path stroke="null" d="m2428.374197,3176.471586c0,-7.333 -4.939,-13.499 -11.667,-15.39l0,119.39l11.667,0l0,-104z" fill="#FAC7A9" id="svg_90"/>
    <path stroke="null" d="m2380.374197,3200.471586c-8.837,0 -16,7.164 -16,16l0,104l32,0l0,-104c0,-8.836 -7.163,-16 -16,-16z" fill="#F6D8C9" id="svg_89"/>
    <g stroke="null" id="svg_85">
     <path stroke="null" d="m2396.374197,3216.471586c0,-7.333 -4.939,-13.499 -11.667,-15.39l0,119.39l11.667,0l0,-104z" fill="#FAC7A9" id="svg_88"/>
     <path stroke="null" d="m2372.374197,3416.471586l0,-48l48,-32l72,-72l0,-88.452c0,-9.093 -7.585,-16.414 -16.773,-15.982c-8.606,0.405 -15.227,7.819 -15.227,16.434l0,56l-64,40l-32,0c-35.346,0 -64,28.654 -64,64l0,80" fill="#FAC7A9" id="svg_87"/>
     <path stroke="null" d="m2438.660197,3229.242586l-42.286,42.927l22.628,22.628l42.455,-43.098c6.201,-6.295 6.125,-16.426 -0.17,-22.627s-16.426,-6.124 -22.627,0.17z" fill="#FAC7A9" id="svg_86"/>
    </g>
    <g stroke="null" id="svg_82">
     <path stroke="null" d="m2409.692197,3285.487586l9.31,9.311l42.455,-43.098c5.38,-5.462 6.028,-13.808 1.995,-19.973l-53.76,53.76z" fill="#EAB498" id="svg_84"/>
     <path stroke="null" d="m2476.374197,3160.041586l0,96.43l-72,72l-51.969,29.697c-2.493,1.424 -4.031,4.075 -4.031,6.946l0,51.357l24,0l0,-48l48,-32l72,-72l0,-88.452c0,-8.835 -7.166,-15.975 -16,-15.978z" fill="#EAB498" id="svg_83"/>
    </g>
    <g stroke="null" id="svg_81"/>
    <g stroke="null" id="svg_80"/>
    <g stroke="null" id="svg_79"/>
    <g stroke="null" id="svg_78"/>
    <g stroke="null" id="svg_77"/>
    <g stroke="null" id="svg_76"/>
    <g stroke="null" id="svg_75"/>
    <g stroke="null" id="svg_74"/>
    <g stroke="null" id="svg_73"/>
    <g stroke="null" id="svg_72"/>
    <g stroke="null" id="svg_71"/>
    <g stroke="null" id="svg_70"/>
    <g stroke="null" id="svg_69"/>
    <g stroke="null" id="svg_68"/>
    <g stroke="null" id="svg_67"/>
   </g>
  </g>
 </g>
</svg>