<svg width="512" height="512" xmlns="http://www.w3.org/2000/svg">

 <g>
  <title>background</title>
  <rect fill="none" id="canvas_background" height="402" width="582" y="-1" x="-1"/>
 </g>
 <g>
  <title>Layer 1</title>
  <ellipse stroke="#000" ry="251.500011" rx="251.500011" id="svg_33" cy="259.000011" cx="256.999998" stroke-opacity="null" stroke-width="0" fill="#2c3e50"/>
  <ellipse stroke="#000" ry="233.500009" rx="233.500009" id="svg_32" cy="260.000008" cx="257.000008" stroke-width="0" fill="#1a91a1"/>
  <g stroke="null" id="svg_31">
   <path stroke="null" id="svg_1" fill="#FFC380" d="m298.045935,232.823636l-72.22669,0c-3.764087,0 -7.062526,-2.517727 -8.054947,-6.148454c-0.992421,-3.630727 0.56678,-7.476498 3.806874,-9.391881c31.469081,-18.594836 47.815133,-40.285847 49.971121,-66.312172c0.751817,-9.032365 8.796762,-16.247143 17.929147,-16.127675c9.318533,0.148919 18.048615,3.884111 24.587147,10.518774c6.543533,6.640775 10.149811,15.434758 10.153145,24.761071c0,0.001111 0,0.002223 0,0.003334l0,2.805562c0,22.782341 -6.748018,37.308584 -19.198846,56.14458c-1.547532,2.339913 -4.163056,3.746862 -6.966951,3.746862z"/>
   <path stroke="null" id="svg_2" fill="#FFCF99" d="m386.562,242.287754c0,-14.427334 -11.737351,-26.165241 -26.165241,-26.165241l-134.577513,0c-1.4953,0 -2.963371,0.401191 -4.24974,1.162455c-9.446892,5.585563 -18.98547,10.183707 -26.649783,13.879447c-2.673313,1.288591 -5.198263,2.506058 -7.494835,3.654065c-2.8289,1.414728 -4.615925,4.305863 -4.615925,7.469274l0,106.887522c0,3.163411 1.787025,6.054546 4.615925,7.469274c33.741759,16.868379 61.789599,18.908232 94.496706,18.908232c5.064903,0 10.24483,-0.048899 15.571452,-0.098909c5.89118,-0.055567 11.981845,-0.113356 18.367568,-0.113356l26.399177,0c14.427334,0 26.165241,-11.737351 26.165241,-26.165241c0,-4.850972 -1.326377,-9.397438 -3.63684,-13.296552c7.517617,-4.602033 12.544179,-12.890916 12.544179,-22.332807c0,-4.850972 -1.326377,-9.397438 -3.63684,-13.296552c7.517617,-4.602033 12.544179,-12.890916 12.544179,-22.332807c0,-6.785804 -2.596631,-12.976488 -6.848038,-17.630198c4.629816,-4.879311 7.170325,-11.243363 7.170325,-17.998605z"/>
   <g stroke="null" id="svg_3">
    <path stroke="null" id="svg_4" fill="#29CCB1" d="m369.192409,169.465389l-17.81468,0c-4.611479,0 -8.350562,-3.739082 -8.350562,-8.350562s3.739082,-8.350562 8.350562,-8.350562l17.81468,0c4.611479,0 8.350562,3.739082 8.350562,8.350562s-3.738527,8.350562 -8.350562,8.350562z"/>
    <path stroke="null" id="svg_5" fill="#29CCB1" d="m244.490208,169.465389l-17.81468,0c-4.611479,0 -8.350562,-3.739082 -8.350562,-8.350562s3.739082,-8.350562 8.350562,-8.350562l17.81468,0c4.611479,0 8.350562,3.739082 8.350562,8.350562s-3.737971,8.350562 -8.350562,8.350562z"/>
    <path stroke="null" id="svg_6" fill="#29CCB1" d="m271.220562,123.183341c-2.886689,0 -5.692807,-1.497522 -7.239228,-4.176392l-8.90734,-15.42809c-2.306017,-3.993578 -0.93741,-9.101268 3.056168,-11.406729c3.993578,-2.306017 9.101268,-0.93741 11.406729,3.056168l8.90734,15.42809c2.306017,3.993578 0.93741,9.101268 -3.056168,11.406729c-1.314708,0.759597 -2.751107,1.120224 -4.167501,1.120224z"/>
    <path stroke="null" id="svg_7" fill="#29CCB1" d="m324.647931,123.183341c-1.41695,0 -2.852794,-0.360628 -4.167501,-1.120224c-3.993578,-2.306017 -5.362185,-7.413152 -3.056168,-11.406729l8.90734,-15.42809c2.305462,-3.993578 7.413152,-5.363297 11.406729,-3.056168c3.993578,2.306017 5.362185,7.413152 3.056168,11.406729l-8.90734,15.42809c-1.54531,2.67887 -4.353094,4.176392 -7.239228,4.176392z"/>
   </g>
   <path stroke="null" fill="#73C3FF" d="m163.767927,331.466173l0,43.979921l-16.701123,0l0,-43.979921c0,-4.609257 3.741305,-8.350562 8.350562,-8.350562s8.350562,3.741305 8.350562,8.350562z" id="SVGCleanerId_0"/>
   <g stroke="null" id="svg_8">
    <path stroke="null" id="svg_9" fill="#29CCB1" d="m369.192409,169.465389l-17.81468,0c-4.611479,0 -8.350562,-3.739082 -8.350562,-8.350562s3.739082,-8.350562 8.350562,-8.350562l17.81468,0c4.611479,0 8.350562,3.739082 8.350562,8.350562s-3.738527,8.350562 -8.350562,8.350562z"/>
    <path stroke="null" id="svg_10" fill="#29CCB1" d="m244.490208,169.465389l-17.81468,0c-4.611479,0 -8.350562,-3.739082 -8.350562,-8.350562s3.739082,-8.350562 8.350562,-8.350562l17.81468,0c4.611479,0 8.350562,3.739082 8.350562,8.350562s-3.737971,8.350562 -8.350562,8.350562z"/>
    <path stroke="null" id="svg_11" fill="#29CCB1" d="m271.220562,123.183341c-2.886689,0 -5.692807,-1.497522 -7.239228,-4.176392l-8.90734,-15.42809c-2.306017,-3.993578 -0.93741,-9.101268 3.056168,-11.406729c3.993578,-2.306017 9.101268,-0.93741 11.406729,3.056168l8.90734,15.42809c2.306017,3.993578 0.93741,9.101268 -3.056168,11.406729c-1.314708,0.759597 -2.751107,1.120224 -4.167501,1.120224z"/>
    <path stroke="null" id="svg_12" fill="#29CCB1" d="m324.647931,123.183341c-1.41695,0 -2.852794,-0.360628 -4.167501,-1.120224c-3.993578,-2.306017 -5.362185,-7.413152 -3.056168,-11.406729l8.90734,-15.42809c2.305462,-3.993578 7.413152,-5.363297 11.406729,-3.056168c3.993578,2.306017 5.362185,7.413152 3.056168,11.406729l-8.90734,15.42809c-1.54531,2.67887 -4.353094,4.176392 -7.239228,4.176392z"/>
   </g>
   <g stroke="null" id="svg_13">
    <path stroke="null" fill="#73C3FF" d="m163.767927,331.466173l0,43.979921l-16.701123,0l0,-43.979921c0,-4.609257 3.741305,-8.350562 8.350562,-8.350562s8.350562,3.741305 8.350562,8.350562z" id="SVGCleanerId_0_1_"/>
   </g>
   <path stroke="null" id="svg_14" fill="#44A4EC" d="m191.046725,216.122513l-71.258163,0c-4.609257,0 -8.350562,3.741305 -8.350562,8.350562l0,142.516325c0,4.614813 3.741305,8.350562 8.350562,8.456138l53.443483,0c10.237606,-0.105577 19.117163,-6.012315 23.409689,-14.596813c1.764798,-3.512926 2.755552,-7.482054 2.755552,-11.674005l0,-124.701646c0,-4.609812 -3.741305,-8.350562 -8.350562,-8.350562z"/>
   <path stroke="null" id="svg_15" fill="#73C3FF" d="m163.767927,330.909395l0,44.536699l-16.701123,0l0,-44.536699c0,-4.609257 3.741305,-8.350562 8.350562,-8.350562s8.350562,3.741305 8.350562,8.350562z"/>
   <g stroke="null" id="svg_16"/>
   <g stroke="null" id="svg_17"/>
   <g stroke="null" id="svg_18"/>
   <g stroke="null" id="svg_19"/>
   <g stroke="null" id="svg_20"/>
   <g stroke="null" id="svg_21"/>
   <g stroke="null" id="svg_22"/>
   <g stroke="null" id="svg_23"/>
   <g stroke="null" id="svg_24"/>
   <g stroke="null" id="svg_25"/>
   <g stroke="null" id="svg_26"/>
   <g stroke="null" id="svg_27"/>
   <g stroke="null" id="svg_28"/>
   <g stroke="null" id="svg_29"/>
   <g stroke="null" id="svg_30"/>
  </g>
 </g>
</svg>