<?xml version="1.0" encoding="UTF-8"?>
<svg width="269px" height="56px" viewBox="0 0 269 56" version="1.1" xmlns="http://www.w3.org/2000/svg" xmlns:xlink="http://www.w3.org/1999/xlink">
    <!-- Generator: Sketch 46.2 (44496) - http://www.bohemiancoding.com/sketch -->
    <title>Texto</title>
    <desc>Created with Sketch.</desc>
    <defs></defs>
    <g id="Page-1" stroke="none" stroke-width="1" fill="none" fill-rule="evenodd">
        <g id="Home" transform="translate(-795.000000, -236.000000)">
            <g id="HOME" transform="translate(303.000000, 45.000000)">
                <g id="ISS2" transform="translate(0.000000, 110.000000)">
                    <g id="Texto" transform="translate(491.000000, 77.000000)">
                        <path d="M8.453125,59 L1.6171875,59 L1.6171875,30.5625 L8.453125,30.5625 L8.453125,59 Z M36.96875,59 L30.1523438,59 L20.0742188,41.3046875 L20.0742188,59 L13.21875,59 L13.21875,30.5625 L20.0742188,30.5625 L30.1328125,48.2578125 L30.1328125,30.5625 L36.96875,30.5625 L36.96875,59 Z M65.0546875,59 L58.2382812,59 L48.1601562,41.3046875 L48.1601562,59 L41.3046875,59 L41.3046875,30.5625 L48.1601562,30.5625 L58.21875,48.2578125 L58.21875,30.5625 L65.0546875,30.5625 L65.0546875,59 Z M87.0273438,46.9492188 L76.2460938,46.9492188 L76.2460938,53.7265625 L88.9804688,53.7265625 L88.9804688,59 L69.390625,59 L69.390625,30.5625 L89.0195312,30.5625 L89.0195312,35.8554688 L76.2460938,35.8554688 L76.2460938,41.8515625 L87.0273438,41.8515625 L87.0273438,46.9492188 Z M102.339844,48.9609375 L98.6289062,48.9609375 L98.6289062,59 L91.7734375,59 L91.7734375,30.5625 L102.964844,30.5625 C106.337256,30.5625 108.973949,31.3111904 110.875,32.8085938 C112.776051,34.3059971 113.726562,36.4218613 113.726562,39.15625 C113.726562,41.1354266 113.326176,42.7760352 112.525391,44.078125 C111.724605,45.3802148 110.471363,46.4348918 108.765625,47.2421875 L114.703125,58.7070312 L114.703125,59 L107.359375,59 L102.339844,48.9609375 Z M98.6289062,43.6679688 L102.964844,43.6679688 C104.266934,43.6679688 105.246742,43.3261753 105.904297,42.6425781 C106.561852,41.958981 106.890625,41.0052145 106.890625,39.78125 C106.890625,38.5572855 106.558597,37.5970087 105.894531,36.9003906 C105.230465,36.2037726 104.253913,35.8554688 102.964844,35.8554688 L98.6289062,35.8554688 L98.6289062,43.6679688 Z" id="INNER" fill="#FEE400"></path>
                        <path d="M2.83203125,19 L1.66015625,19 L1.66015625,8.43359375 L2.83203125,8.43359375 L2.83203125,19 Z M1.45507812,5.37695312 C1.45507812,5.15559785 1.52669199,4.96842524 1.66992188,4.81542969 C1.81315176,4.66243413 2.0084623,4.5859375 2.25585938,4.5859375 C2.50325645,4.5859375 2.70019458,4.66243413 2.84667969,4.81542969 C2.99316479,4.96842524 3.06640625,5.15559785 3.06640625,5.37695312 C3.06640625,5.5983084 2.99316479,5.78385342 2.84667969,5.93359375 C2.70019458,6.08333408 2.50325645,6.15820312 2.25585938,6.15820312 C2.0084623,6.15820312 1.81315176,6.08333408 1.66992188,5.93359375 C1.52669199,5.78385342 1.45507812,5.5983084 1.45507812,5.37695312 Z M7.11914062,8.43359375 L7.15820312,10.2402344 C7.55534053,9.58918945 8.05012725,9.09277515 8.64257812,8.75097656 C9.235029,8.40917798 9.88931934,8.23828125 10.6054688,8.23828125 C11.7382869,8.23828125 12.5813774,8.55728848 13.1347656,9.1953125 C13.6881538,9.83333652 13.9680989,10.7903582 13.9746094,12.0664062 L13.9746094,19 L12.8125,19 L12.8125,12.0566406 C12.8059896,11.1126255 12.6057962,10.4095075 12.2119141,9.94726562 C11.8180319,9.48502373 11.1881554,9.25390625 10.3222656,9.25390625 C9.59960576,9.25390625 8.95996372,9.48014097 8.40332031,9.93261719 C7.8466769,10.3850934 7.43489717,10.9954389 7.16796875,11.7636719 L7.16796875,19 L6.00585938,19 L6.00585938,8.43359375 L7.11914062,8.43359375 Z M18.3007812,19 L17.1289062,19 L17.1289062,8.43359375 L18.3007812,8.43359375 L18.3007812,19 Z M16.9238281,5.37695312 C16.9238281,5.15559785 16.995442,4.96842524 17.1386719,4.81542969 C17.2819018,4.66243413 17.4772123,4.5859375 17.7246094,4.5859375 C17.9720064,4.5859375 18.1689446,4.66243413 18.3154297,4.81542969 C18.4619148,4.96842524 18.5351562,5.15559785 18.5351562,5.37695312 C18.5351562,5.5983084 18.4619148,5.78385342 18.3154297,5.93359375 C18.1689446,6.08333408 17.9720064,6.15820312 17.7246094,6.15820312 C17.4772123,6.15820312 17.2819018,6.08333408 17.1386719,5.93359375 C16.995442,5.78385342 16.9238281,5.5983084 16.9238281,5.37695312 Z M25.3808594,18.2089844 C26.1946655,18.2089844 26.8766249,17.9794945 27.4267578,17.5205078 C27.9768908,17.0615211 28.2747394,16.4674516 28.3203125,15.7382812 L29.4433594,15.7382812 C29.4108071,16.3828157 29.2089862,16.970375 28.8378906,17.5009766 C28.466795,18.0315782 27.9736359,18.4466131 27.3583984,18.7460938 C26.743161,19.0455744 26.0839879,19.1953125 25.3808594,19.1953125 C23.9941337,19.1953125 22.8955119,18.7135465 22.0849609,17.75 C21.27441,16.7864535 20.8691406,15.4908936 20.8691406,13.8632812 L20.8691406,13.5117188 C20.8691406,12.4700469 21.0514305,11.5488321 21.4160156,10.7480469 C21.7806008,9.94726162 22.3030565,9.32877822 22.9833984,8.89257812 C23.6637404,8.45637803 24.4596309,8.23828125 25.3710938,8.23828125 C26.5299537,8.23828125 27.4853478,8.58332988 28.2373047,9.2734375 C28.9892616,9.96354512 29.3912758,10.8717392 29.4433594,11.9980469 L28.3203125,11.9980469 C28.2682289,11.1712198 27.9703803,10.5039088 27.4267578,9.99609375 C26.8831353,9.48827871 26.1979208,9.234375 25.3710938,9.234375 C24.316401,9.234375 23.4977243,9.61523057 22.9150391,10.3769531 C22.3323539,11.1386757 22.0410156,12.2063733 22.0410156,13.5800781 L22.0410156,13.921875 C22.0410156,15.269538 22.3323539,16.3209598 22.9150391,17.0761719 C23.4977243,17.831384 24.3196562,18.2089844 25.3808594,18.2089844 Z M33.0859375,19 L31.9140625,19 L31.9140625,8.43359375 L33.0859375,8.43359375 L33.0859375,19 Z M31.7089844,5.37695312 C31.7089844,5.15559785 31.7805982,4.96842524 31.9238281,4.81542969 C32.067058,4.66243413 32.2623686,4.5859375 32.5097656,4.5859375 C32.7571627,4.5859375 32.9541008,4.66243413 33.1005859,4.81542969 C33.247071,4.96842524 33.3203125,5.15559785 33.3203125,5.37695312 C33.3203125,5.5983084 33.247071,5.78385342 33.1005859,5.93359375 C32.9541008,6.08333408 32.7571627,6.15820312 32.5097656,6.15820312 C32.2623686,6.15820312 32.067058,6.08333408 31.9238281,5.93359375 C31.7805982,5.78385342 31.7089844,5.5983084 31.7089844,5.37695312 Z M42.9296875,19 C42.8124994,18.6679671 42.7376304,18.1764355 42.7050781,17.5253906 C42.2949198,18.0592475 41.7724641,18.4710272 41.1376953,18.7607422 C40.5029265,19.0504572 39.8307327,19.1953125 39.1210938,19.1953125 C38.1054637,19.1953125 37.2835318,18.9121122 36.6552734,18.3457031 C36.0270151,17.779294 35.7128906,17.0631554 35.7128906,16.1972656 C35.7128906,15.1686146 36.1409462,14.3548207 36.9970703,13.7558594 C37.8531944,13.156898 39.0462163,12.8574219 40.5761719,12.8574219 L42.6953125,12.8574219 L42.6953125,11.65625 C42.6953125,10.9010379 42.4625674,10.3069683 41.9970703,9.87402344 C41.5315732,9.44107856 40.852869,9.22460938 39.9609375,9.22460938 C39.1471313,9.22460938 38.47331,9.43294063 37.9394531,9.84960938 C37.4055963,10.2662781 37.1386719,10.7675752 37.1386719,11.3535156 L35.9667969,11.34375 C35.9667969,10.5039021 36.357418,9.77637026 37.1386719,9.16113281 C37.9199258,8.54589536 38.8802026,8.23828125 40.0195312,8.23828125 C41.1979226,8.23828125 42.1272752,8.53287466 42.8076172,9.12207031 C43.4879591,9.71126597 43.8378905,10.5331979 43.8574219,11.5878906 L43.8574219,16.5878906 C43.8574219,17.6100312 43.9648427,18.3749975 44.1796875,18.8828125 L44.1796875,19 L42.9296875,19 Z M39.2578125,18.1601562 C40.0390664,18.1601562 40.7373016,17.9713561 41.3525391,17.59375 C41.9677765,17.2161439 42.4153632,16.7115917 42.6953125,16.0800781 L42.6953125,13.7558594 L40.6054688,13.7558594 C39.4400983,13.7688803 38.5286491,13.9820943 37.8710938,14.3955078 C37.2135384,14.8089213 36.8847656,15.3769495 36.8847656,16.0996094 C36.8847656,16.6920603 37.10449,17.1835918 37.5439453,17.5742188 C37.9834006,17.9648457 38.554684,18.1601562 39.2578125,18.1601562 Z M48.7890625,5.72851562 L48.7890625,8.43359375 L50.9765625,8.43359375 L50.9765625,9.390625 L48.7890625,9.390625 L48.7890625,16.4316406 C48.7890625,17.0175811 48.8948557,17.4537746 49.1064453,17.7402344 C49.3180349,18.0266941 49.6712215,18.1699219 50.1660156,18.1699219 C50.3613291,18.1699219 50.6770812,18.1373701 51.1132812,18.0722656 L51.1621094,19.0292969 C50.8561183,19.1399745 50.4394558,19.1953125 49.9121094,19.1953125 C49.1113241,19.1953125 48.5286477,18.9625674 48.1640625,18.4970703 C47.7994773,18.0315732 47.6171875,17.3463587 47.6171875,16.4414062 L47.6171875,9.390625 L45.6738281,9.390625 L45.6738281,8.43359375 L47.6171875,8.43359375 L47.6171875,5.72851562 L48.7890625,5.72851562 Z M54.7070312,19 L53.5351562,19 L53.5351562,8.43359375 L54.7070312,8.43359375 L54.7070312,19 Z M53.3300781,5.37695312 C53.3300781,5.15559785 53.401692,4.96842524 53.5449219,4.81542969 C53.6881518,4.66243413 53.8834623,4.5859375 54.1308594,4.5859375 C54.3782564,4.5859375 54.5751946,4.66243413 54.7216797,4.81542969 C54.8681648,4.96842524 54.9414062,5.15559785 54.9414062,5.37695312 C54.9414062,5.5983084 54.8681648,5.78385342 54.7216797,5.93359375 C54.5751946,6.08333408 54.3782564,6.15820312 54.1308594,6.15820312 C53.8834623,6.15820312 53.6881518,6.08333408 53.5449219,5.93359375 C53.401692,5.78385342 53.3300781,5.5983084 53.3300781,5.37695312 Z M61.171875,17.3886719 L64.3847656,8.43359375 L65.5859375,8.43359375 L61.640625,19 L60.6933594,19 L56.7285156,8.43359375 L57.9296875,8.43359375 L61.171875,17.3886719 Z M74.0234375,19 C73.9062494,18.6679671 73.8313804,18.1764355 73.7988281,17.5253906 C73.3886698,18.0592475 72.8662141,18.4710272 72.2314453,18.7607422 C71.5966765,19.0504572 70.9244827,19.1953125 70.2148438,19.1953125 C69.1992137,19.1953125 68.3772818,18.9121122 67.7490234,18.3457031 C67.1207651,17.779294 66.8066406,17.0631554 66.8066406,16.1972656 C66.8066406,15.1686146 67.2346962,14.3548207 68.0908203,13.7558594 C68.9469444,13.156898 70.1399663,12.8574219 71.6699219,12.8574219 L73.7890625,12.8574219 L73.7890625,11.65625 C73.7890625,10.9010379 73.5563174,10.3069683 73.0908203,9.87402344 C72.6253232,9.44107856 71.946619,9.22460938 71.0546875,9.22460938 C70.2408813,9.22460938 69.56706,9.43294063 69.0332031,9.84960938 C68.4993463,10.2662781 68.2324219,10.7675752 68.2324219,11.3535156 L67.0605469,11.34375 C67.0605469,10.5039021 67.451168,9.77637026 68.2324219,9.16113281 C69.0136758,8.54589536 69.9739526,8.23828125 71.1132812,8.23828125 C72.2916726,8.23828125 73.2210252,8.53287466 73.9013672,9.12207031 C74.5817091,9.71126597 74.9316405,10.5331979 74.9511719,11.5878906 L74.9511719,16.5878906 C74.9511719,17.6100312 75.0585927,18.3749975 75.2734375,18.8828125 L75.2734375,19 L74.0234375,19 Z M70.3515625,18.1601562 C71.1328164,18.1601562 71.8310516,17.9713561 72.4462891,17.59375 C73.0615265,17.2161439 73.5091132,16.7115917 73.7890625,16.0800781 L73.7890625,13.7558594 L71.6992188,13.7558594 C70.5338483,13.7688803 69.6223991,13.9820943 68.9648438,14.3955078 C68.3072884,14.8089213 67.9785156,15.3769495 67.9785156,16.0996094 C67.9785156,16.6920603 68.19824,17.1835918 68.6376953,17.5742188 C69.0771506,17.9648457 69.648434,18.1601562 70.3515625,18.1601562 Z" id="iniciativa" fill="#FEE400"></path>
                        <path d="M132.816406,51.4414062 C132.816406,50.4387971 132.461592,49.6575549 131.751953,49.0976562 C131.042314,48.5377576 129.795582,47.9583363 128.011719,47.359375 C126.227856,46.7604137 124.769537,46.1809924 123.636719,45.6210938 C119.951804,43.8111889 118.109375,41.3242346 118.109375,38.1601562 C118.109375,36.5846275 118.568355,35.1946675 119.486328,33.9902344 C120.404301,32.7858013 121.703117,31.8483106 123.382812,31.1777344 C125.062508,30.5071581 126.95051,30.171875 129.046875,30.171875 C131.091156,30.171875 132.92382,30.5364547 134.544922,31.265625 C136.166024,31.9947953 137.425777,33.0331964 138.324219,34.3808594 C139.222661,35.7285224 139.671875,37.2682205 139.671875,39 L132.835938,39 C132.835938,37.84114 132.481123,36.9427115 131.771484,36.3046875 C131.061845,35.6666635 130.101569,35.3476562 128.890625,35.3476562 C127.666661,35.3476562 126.699873,35.6178358 125.990234,36.1582031 C125.280595,36.6985704 124.925781,37.3854125 124.925781,38.21875 C124.925781,38.9479203 125.316402,39.608721 126.097656,40.2011719 C126.87891,40.7936228 128.252594,41.4055958 130.21875,42.0371094 C132.184906,42.6686229 133.799473,43.3489547 135.0625,44.078125 C138.135432,45.8489672 139.671875,48.290349 139.671875,51.4023438 C139.671875,53.8893354 138.734384,55.8424408 136.859375,57.2617188 C134.984366,58.6809967 132.412777,59.390625 129.144531,59.390625 C126.839832,59.390625 124.753265,58.9772177 122.884766,58.1503906 C121.016267,57.3235636 119.610031,56.1907624 118.666016,54.7519531 C117.722,53.3131438 117.25,51.6562594 117.25,49.78125 L124.125,49.78125 C124.125,51.3046951 124.518876,52.4277308 125.306641,53.1503906 C126.094405,53.8730505 127.373689,54.234375 129.144531,54.234375 C130.277349,54.234375 131.172523,53.9902368 131.830078,53.5019531 C132.487633,53.0136694 132.816406,52.3268273 132.816406,51.4414062 Z M167.269531,45.3671875 C167.269531,48.1406389 166.755213,50.5950414 165.726562,52.7304688 C164.697912,54.8658961 163.236338,56.5097599 161.341797,57.6621094 C159.447256,58.8144589 157.289075,59.390625 154.867188,59.390625 C152.4453,59.390625 150.296884,58.8339899 148.421875,57.7207031 C146.546866,56.6074163 145.085292,55.0156354 144.037109,52.9453125 C142.988927,50.8749896 142.438802,48.4987113 142.386719,45.8164062 L142.386719,44.2148438 C142.386719,41.4283715 142.897781,38.9707138 143.919922,36.8417969 C144.942062,34.71288 146.406892,33.0690162 148.314453,31.9101562 C150.222015,30.7512963 152.393217,30.171875 154.828125,30.171875 C157.236991,30.171875 159.385407,30.7447859 161.273438,31.890625 C163.161468,33.0364641 164.629552,34.6673071 165.677734,36.7832031 C166.725917,38.8990991 167.25651,41.3242051 167.269531,44.0585938 L167.269531,45.3671875 Z M160.296875,44.1757812 C160.296875,41.3502463 159.824875,39.2050854 158.880859,37.7402344 C157.936844,36.2753833 156.585946,35.5429688 154.828125,35.5429688 C151.390608,35.5429688 149.57422,38.121068 149.378906,43.2773438 L149.359375,45.3671875 C149.359375,48.1536598 149.82161,50.2955654 150.746094,51.7929688 C151.670578,53.2903721 153.044262,54.0390625 154.867188,54.0390625 C156.598967,54.0390625 157.933589,53.3033928 158.871094,51.8320312 C159.808598,50.3606697 160.283854,48.2448055 160.296875,45.484375 L160.296875,44.1757812 Z M193.109375,30.5625 L193.109375,49.1757812 C193.109375,51.2851668 192.660161,53.1113204 191.761719,54.6542969 C190.863277,56.1972733 189.574227,57.3723918 187.894531,58.1796875 C186.214835,58.9869832 184.229178,59.390625 181.9375,59.390625 C178.473941,59.390625 175.746104,58.4921965 173.753906,56.6953125 C171.761709,54.8984285 170.746094,52.4375156 170.707031,49.3125 L170.707031,30.5625 L177.601562,30.5625 L177.601562,49.4492188 C177.679688,52.5612135 179.124986,54.1171875 181.9375,54.1171875 C183.356778,54.1171875 184.430986,53.7265664 185.160156,52.9453125 C185.889327,52.1640586 186.253906,50.89454 186.253906,49.1367188 L186.253906,30.5625 L193.109375,30.5625 Z M207.953125,48.9609375 L204.242188,48.9609375 L204.242188,59 L197.386719,59 L197.386719,30.5625 L208.578125,30.5625 C211.950538,30.5625 214.58723,31.3111904 216.488281,32.8085938 C218.389332,34.3059971 219.339844,36.4218613 219.339844,39.15625 C219.339844,41.1354266 218.939457,42.7760352 218.138672,44.078125 C217.337887,45.3802148 216.084644,46.4348918 214.378906,47.2421875 L220.316406,58.7070312 L220.316406,59 L212.972656,59 L207.953125,48.9609375 Z M204.242188,43.6679688 L208.578125,43.6679688 C209.880215,43.6679688 210.860023,43.3261753 211.517578,42.6425781 C212.175133,41.958981 212.503906,41.0052145 212.503906,39.78125 C212.503906,38.5572855 212.171878,37.5970087 211.507812,36.9003906 C210.843747,36.2037726 209.867194,35.8554688 208.578125,35.8554688 L204.242188,35.8554688 L204.242188,43.6679688 Z M246.488281,49.3710938 C246.397135,51.3502703 245.863286,53.0982997 244.886719,54.6152344 C243.910151,56.132169 242.539722,57.3072875 240.775391,58.140625 C239.011059,58.9739625 236.996105,59.390625 234.730469,59.390625 C230.993471,59.390625 228.050792,58.1731893 225.902344,55.7382812 C223.753896,53.3033732 222.679688,49.8659076 222.679688,45.4257812 L222.679688,44.0195312 C222.679688,41.233059 223.164709,38.7949323 224.134766,36.7050781 C225.104823,34.6152239 226.501293,33.0006567 228.324219,31.8613281 C230.147145,30.7219995 232.256498,30.1523438 234.652344,30.1523438 C238.102882,30.1523438 240.876292,31.0605378 242.972656,32.8769531 C245.069021,34.6933685 246.260415,37.1965986 246.546875,40.3867188 L239.710938,40.3867188 C239.658854,38.6549393 239.22266,37.4114621 238.402344,36.65625 C237.582027,35.9010379 236.33204,35.5234375 234.652344,35.5234375 C232.946606,35.5234375 231.696619,36.161452 230.902344,37.4375 C230.108069,38.713548 229.691406,40.7512881 229.652344,43.5507812 L229.652344,45.5625 C229.652344,48.5963693 230.033199,50.7643164 230.794922,52.0664062 C231.556644,53.3684961 232.86848,54.0195312 234.730469,54.0195312 C236.305997,54.0195312 237.510413,53.6484412 238.34375,52.90625 C239.177087,52.1640588 239.619791,50.9856852 239.671875,49.3710938 L246.488281,49.3710938 Z M267.367188,46.9492188 L256.585938,46.9492188 L256.585938,53.7265625 L269.320312,53.7265625 L269.320312,59 L249.730469,59 L249.730469,30.5625 L269.359375,30.5625 L269.359375,35.8554688 L256.585938,35.8554688 L256.585938,41.8515625 L267.367188,41.8515625 L267.367188,46.9492188 Z" id="SOURCE" fill="#FFFFFF"></path>
                    </g>
                </g>
            </g>
        </g>
    </g>
</svg>