<?xml version="1.0" encoding="UTF-8"?>
<svg width="200px" height="222px" viewBox="0 0 200 222" version="1.1" xmlns="http://www.w3.org/2000/svg" xmlns:xlink="http://www.w3.org/1999/xlink">
    <!-- Generator: Sketch 46.2 (44496) - http://www.bohemiancoding.com/sketch -->
    <title>Logo InnerSource</title>
    <desc>Created with Sketch.</desc>
    <defs></defs>
    <g id="Page-1" stroke="none" stroke-width="1" fill="none" fill-rule="evenodd">
        <g id="Home" transform="translate(-303.000000, -155.000000)" fill-rule="nonzero" fill="#FFFFFF">
            <g id="HOME" transform="translate(303.000000, 45.000000)">
                <g id="ISS2" transform="translate(0.000000, 110.000000)">
                    <g id="Logo-InnerSource">
                        <path d="M100,0 L0,58.2938389 L0,163.507109 L100,221.327014 L200,163.507109 L200,58.2938389 L100,0 Z M179.004739,151.421801 C179.004739,152.085308 178.530806,153.033175 178.009479,153.270142 C177.535545,153.459716 176.540284,153.080569 176.066351,152.654028 C165.781991,143.270142 154.028436,136.066351 141.800948,129.620853 C136.492891,126.824645 131.090047,124.218009 125.734597,121.563981 C124.976303,121.184834 124.170616,120.900474 122.654028,120.28436 C123.554502,124.075829 124.218009,127.298578 125.165877,130.42654 C125.402844,131.232227 126.398104,132.037915 127.251185,132.464455 C138.104265,138.151659 148.815166,143.981043 158.341232,151.753555 C161.279621,154.123223 163.981043,156.777251 167.156398,159.620853 C163.601896,161.706161 160.42654,163.507109 157.251185,165.35545 C151.090047,156.919431 142.417062,151.800948 133.696682,146.919431 C130.189573,144.92891 129.052133,141.706161 127.535545,138.625592 C121.469194,126.161137 119.052133,112.796209 118.009479,99.0995261 C117.203791,88.6255924 116.635071,78.1516588 115.402844,67.7251185 C113.507109,52.3222749 107.772512,38.3412322 98.0094787,26.1611374 C97.7725118,25.8767773 97.6303318,25.4976303 97.3933649,25.1184834 C98.8151659,23.507109 100.14218,23.1753555 102.085308,24.4075829 C108.578199,28.3412322 115.21327,31.9905213 121.658768,35.9241706 C122.748815,36.5876777 123.791469,38.1042654 124.028436,39.3838863 C125.829384,49.9052133 125.402844,60.4265403 124.454976,70.9952607 C123.412322,82.6066351 122.606635,94.2654028 121.658768,105.876777 C121.516588,107.867299 122.322275,108.720379 124.075829,109.526066 C142.369668,117.535545 160.42654,125.924171 177.061611,137.156398 C178.578199,138.199052 179.146919,139.241706 179.052133,141.042654 C178.957346,144.50237 179.099526,147.962085 179.004739,151.421801 Z M81.943128,186.303318 C82.0379147,186.682464 81.943128,187.061611 81.943128,187.962085 C76.8720379,185.023697 72.1327014,182.417062 67.5829384,179.478673 C66.9668246,179.099526 67.014218,177.061611 67.2985782,175.924171 C68.8625592,169.810427 70.521327,163.744076 72.3222749,157.725118 C74.4075829,150.7109 76.6350711,143.744076 78.8151659,136.635071 C78.436019,136.682464 78.2464455,136.635071 78.1990521,136.729858 C76.2559242,140.28436 76.3033175,140.189573 72.464455,139.004739 C61.042654,135.402844 49.5734597,131.895735 38.1990521,128.246445 C32.9383886,126.587678 27.7725118,124.78673 22.5592417,122.938389 C21.943128,122.701422 21.1374408,121.990521 21.0900474,121.469194 C20.9478673,117.393365 21.042654,113.317536 21.042654,109.241706 C40.7109005,116.824645 60.1421801,124.36019 79.9052133,131.990521 C80.4739336,129.146919 81.0900474,126.777251 81.3270142,124.36019 C81.3744076,123.696682 80.4739336,122.606635 79.7630332,122.274882 C66.9194313,116.635071 53.9810427,111.184834 41.2322275,105.402844 C34.8341232,102.511848 28.7677725,99.0047393 22.5592417,95.6872038 C21.8957346,95.3554502 21.0900474,94.5023697 21.0900474,93.8388626 C20.9478673,89.0521327 21.042654,84.2654028 21.042654,78.8625592 C40.1895735,93.0331754 61.0900474,102.796209 82.464455,112.180095 C82.6540284,110.947867 82.7488152,109.952607 82.8909953,109.004739 C83.0331754,109.004739 83.1753555,109.004739 83.3175355,109.004739 C83.3649289,110.189573 83.4597156,111.421801 83.507109,112.606635 C84.0758294,124.739336 82.3222749,136.682464 81.0900474,148.720379 C79.6682464,161.232227 79.0521327,173.838863 81.943128,186.303318 Z M44.4549763,165.829384 C49.3838863,164.597156 54.1706161,163.412322 58.9099526,162.227488 C59.0047393,162.417062 59.0995261,162.606635 59.2417062,162.796209 C56.5876777,164.976303 54.028436,167.203791 51.2796209,169.2891 C50.8530806,169.620853 49.8578199,169.2891 49.1469194,169.241706 C49.1469194,168.957346 49.1469194,168.720379 49.1943128,168.436019 C50.2369668,167.772512 51.2322275,167.109005 52.2748815,166.445498 C49.6682464,166.587678 47.1563981,169.241706 44.4549763,165.829384 Z M62.2748815,160.56872 C57.3459716,161.042654 52.7014218,161.137441 48.1990521,161.990521 C41.563981,163.222749 35.5924171,162.322275 30.1895735,158.104265 C29.1469194,157.298578 27.9146919,156.729858 26.3981043,155.829384 C27.1563981,155.63981 27.4881517,155.450237 27.8199052,155.450237 C39.1943128,155.829384 50.5687204,156.113744 61.8957346,156.777251 C65.0236967,156.966825 66.5876777,155.781991 67.9620853,152.985782 C67.0616114,152.701422 66.4454976,152.417062 65.7819905,152.322275 C54.3127962,150.663507 42.8436019,149.099526 31.3744076,147.440758 C28.3886256,147.014218 25.450237,146.587678 22.5118483,146.018957 C21.943128,145.924171 21.0900474,145.118483 21.0900474,144.597156 C20.9478673,141.327014 21.042654,138.009479 21.042654,134.312796 C24.7393365,135.165877 28.1042654,135.924171 31.4218009,136.682464 C43.5545024,139.57346 55.6398104,142.464455 67.7725118,145.35545 C68.2464455,145.450237 68.7203791,145.49763 69.1469194,145.687204 C71.4691943,146.635071 73.4597156,146.682464 74.4075829,143.554502 C74.6445498,143.744076 74.8815166,143.933649 75.1184834,144.123223 C69.6682464,154.075829 64.1706161,164.075829 58.5781991,174.312796 C56.7298578,173.222749 55.1184834,172.322275 53.2701422,171.279621 C56.2559242,167.630332 59.1469194,164.265403 62.2748815,160.56872 Z M82.7962085,98.8151659 C82.7014218,98.436019 82.5592417,98.1042654 82.4170616,97.7725118 C82.2748815,97.8199052 82.1327014,97.8672986 81.9905213,97.9146919 C82.0853081,99.0521327 82.1327014,100.236967 82.2748815,101.943128 C61.8009479,92.2274882 42.0379147,82.3696682 25.6398104,66.2559242 C29.5734597,63.9810427 33.1279621,61.8957346 36.7298578,59.8104265 C48.4834123,73.0805687 63.6492891,81.1374408 79.3838863,88.7203791 C78.9099526,87.4881517 78.3886256,86.2085308 77.9146919,84.9763033 C75.8767773,79.7156398 72.7014218,75.7819905 67.4881517,72.8436019 C61.4218009,69.4312796 56.2085308,64.6445498 50.6635071,60.3317536 C49.7156398,59.5734597 48.8625592,58.4834123 48.3412322,57.3933649 C47.9146919,56.4454976 48.0094787,55.2606635 47.8672986,54.1706161 C48.957346,54.0758294 50.2369668,53.5545024 51.1374408,53.9336493 C53.9336493,55.1658768 56.7772512,56.492891 59.1943128,58.2938389 C70.4265403,66.6824645 78.1042654,77.7725118 83.5545024,90.521327 C88.436019,101.943128 90.6635071,114.028436 92.9383886,126.066351 C94.9763033,136.919431 97.2511848,147.677725 101.658768,157.914692 C105.971564,167.962085 111.990521,176.824645 119.57346,184.64455 C120,185.07109 120.379147,185.592417 120.947867,186.255924 C116.208531,189.004739 111.611374,191.706161 106.919431,194.265403 C106.540284,194.50237 105.402844,194.028436 105.07109,193.554502 C97.7251185,183.744076 92.8909953,172.843602 90.2843602,160.853081 C87.8199052,149.620853 87.535545,138.151659 86.8246445,126.777251 C86.2085308,117.393365 85.1658768,108.009479 82.7962085,98.8151659 Z M101.848341,133.175355 C98.436019,122.180095 95.5924171,111.042654 92.0379147,100.094787 C87.014218,84.549763 78.9099526,70.7109005 66.3507109,59.9526066 C62.8436019,56.9194313 58.8625592,54.4549763 55.07109,51.7535545 C54.5023697,51.3270142 53.8862559,50.9952607 53.0331754,50.4265403 C55.3080569,49.0995261 57.2985782,47.8199052 59.3838863,46.8246445 C59.9526066,46.5402844 61.042654,46.8720379 61.6587678,47.2985782 C75.07109,56.0663507 85.0236967,67.8199052 92.0853081,82.1327014 C96.9194313,91.943128 100,102.369668 103.127962,112.796209 C107.203791,126.540284 111.943128,139.952607 120.331754,151.800948 C125.876777,159.668246 132.511848,166.445498 140.331754,172.132701 C141.042654,172.654028 141.706161,173.175355 142.654028,173.838863 C139.620853,175.592417 136.777251,177.345972 133.886256,178.815166 C133.317536,179.099526 132.085308,178.672986 131.469194,178.151659 C116.872038,166.255924 107.393365,150.995261 101.848341,133.175355 Z M114.78673,127.582938 C110.805687,116.729858 107.819905,105.545024 104.597156,94.4075829 C99.0047393,74.7867299 89.7630332,57.4407583 73.7914692,44.2180095 C72.5118483,43.1753555 71.2322275,42.1327014 69.6208531,40.8056872 C73.7440758,38.436019 77.4407583,36.2085308 81.2322275,34.1706161 C81.7061611,33.8862559 82.8909953,34.2180095 83.3649289,34.6919431 C91.8957346,42.6540284 98.4834123,51.943128 103.222749,62.6540284 C107.630332,72.6066351 109.952607,83.1279621 111.943128,93.7440758 C114.50237,107.440758 116.919431,121.232227 123.033175,133.981043 C128.720379,145.829384 136.255924,156.161137 147.109005,163.838863 C149.004739,165.165877 151.137441,166.208531 153.175355,167.440758 C149.620853,170.379147 149.478673,170.379147 146.018957,168.104265 C131.137441,158.056872 120.900474,144.265403 114.78673,127.582938 Z M179.052133,97.7725118 C174.218009,96.2085308 169.85782,94.7393365 165.450237,93.3649289 C153.601896,89.6208531 141.706161,85.9241706 129.810427,82.2748815 C129.336493,82.1327014 128.199052,82.7962085 127.962085,83.3175355 C127.109005,85.1658768 126.492891,87.1090047 125.63981,89.3838863 C131.327014,91.5165877 136.824645,93.4597156 142.227488,95.5450237 C153.886256,100.094787 165.545024,104.739336 177.203791,109.241706 C178.625592,109.810427 179.146919,110.521327 179.099526,111.990521 C179.004739,115.924171 179.052133,119.810427 179.052133,124.170616 C175.63981,122.417062 172.701422,120.805687 169.668246,119.43128 C154.834123,112.843602 140,106.303318 125.118483,99.8104265 C123.459716,99.0995261 122.748815,98.3886256 123.270142,96.492891 C126.255924,85.8293839 129.099526,75.1184834 132.085308,64.4075829 C133.838863,58.056872 135.734597,51.7061611 137.677725,44.9763033 C140.236967,46.4454976 142.843602,47.9620853 145.545024,49.5260664 C140.995261,57.7725118 136.587678,65.7819905 131.943128,74.2180095 C136.350711,75.2606635 140.379147,76.2085308 144.407583,77.1563981 C155.21327,79.7156398 166.018957,82.2748815 176.824645,84.8341232 C178.625592,85.2606635 179.194313,86.1137441 179.099526,87.9620853 C178.957346,91.1848341 179.052133,94.3127962 179.052133,97.7725118 Z M154.075829,54.2654028 C154.218009,54.5971564 154.36019,54.9763033 154.454976,55.3080569 C152.037915,56.2085308 149.620853,57.1090047 147.203791,58.056872 C147.251185,58.1990521 147.298578,58.3412322 147.345972,58.4834123 C149.526066,57.9620853 151.753555,57.4407583 153.933649,56.9194313 C157.109005,56.1611374 159.052133,56.7772512 161.563981,59.3838863 C155.260664,60.2843602 149.004739,61.0900474 142.748815,62.0853081 C141.990521,62.1800948 141.374408,63.0805687 140.7109,63.6018957 C140.853081,63.8388626 140.947867,64.0758294 141.090047,64.3127962 C141.895735,64.3601896 142.701422,64.4075829 143.507109,64.4549763 C152.417062,64.7393365 161.327014,65.1184834 170.236967,65.3080569 C173.507109,65.4028436 175.781991,67.3459716 178.388626,68.7677725 C178.720379,68.957346 179.004739,69.5260664 179.004739,69.9052133 C179.052133,71.6113744 179.052133,73.3175355 179.052133,75.4028436 C164.64455,73.3175355 150.56872,71.2796209 135.829384,69.1469194 C137.867299,66.492891 139.478673,64.2180095 141.232227,62.0379147 C143.507109,59.2417062 145.924171,56.492891 148.246445,53.7440758 C149.763033,51.9905213 149.763033,51.9905213 152.085308,53.6018957 C151.469194,54.2654028 150.853081,54.92891 149.905213,55.9241706 C151.516588,55.2606635 152.796209,54.7867299 154.075829,54.2654028 Z" id="Shape"></path>
                    </g>
                </g>
            </g>
        </g>
    </g>
</svg>