<?xml version="1.0" encoding="UTF-8"?>
<svg width="67px" height="23px" viewBox="0 0 67 23" version="1.1" xmlns="http://www.w3.org/2000/svg" xmlns:xlink="http://www.w3.org/1999/xlink">
    <!-- Generator: Sketch 46.2 (44496) - http://www.bohemiancoding.com/sketch -->
    <title>Logo S2</title>
    <desc>Created with Sketch.</desc>
    <defs></defs>
    <g id="Page-1" stroke="none" stroke-width="1" fill="none" fill-rule="evenodd">
        <g id="Home" transform="translate(-1160.000000, -3103.000000)" fill="#FEFEFE">
            <g id="BG" transform="translate(-6.000000, 0.000000)">
                <g id="LOGOS" transform="translate(1042.000000, 3103.000000)">
                    <g id="Logo-S2" transform="translate(123.824701, 0.109147)">
                        <path d="M33.3766693,8.12736255 C30.3468685,8.68959363 29.5570677,10.1487171 29.3953147,13.062502 C29.3908526,13.1383586 29.3986614,13.0546932 29.3908526,13.1138167 L29.3774661,13.1852112 C29.3350757,13.4495936 29.3651952,21.9801116 29.3651952,22.2244143 C30.9169084,22.2244143 32.4173068,22.2523028 33.9890996,22.2523028 L48.0013705,22.2523028 L48.0013705,16.1447331 L35.2775458,16.1447331 C35.3478247,15.9305498 35.3020876,14.5450518 35.3020876,14.2048127 L36.0439203,14.2048127 C41.7722072,14.2048127 47.5283825,14.1847331 53.2533227,14.2048127 C55.4040797,14.2126215 56.4582629,12.9330996 56.5776255,10.9909482 L56.5776255,5.57501195 C56.5753944,4.32560956 56.4024861,3.49453386 55.6729243,2.41134661 C54.6901355,0.954454183 53.054757,0.0475219124 51.0836016,0.0519840637 L36.0149163,0.0519840637 C31.9934024,0.0519840637 29.5715697,1.59588845 29.4522072,5.99333865 L50.6440797,5.99333865 L50.6440797,8.11062948 L33.5384223,8.11062948 C33.4960319,8.11955378 33.4681434,8.12736255 33.3766693,8.12736255" id="Fill-1"></path>
                        <path d="M20.9064064,16.1452908 L0.37047012,16.1452908 C0.37047012,17.1146932 0.320270916,17.4114263 0.630390438,18.3395538 C0.856844622,19.0166853 1.33764143,19.9637769 1.84632669,20.4914263 C1.90433466,20.5505498 1.95007171,20.586247 2.00138645,20.6498327 C2.11628685,20.7959681 2.48441434,21.1138964 2.64505179,21.2343745 C3.13923506,21.602502 3.65349801,21.8657689 4.31389641,22.0464861 C5.02449402,22.2428207 5.69939442,22.2238566 6.59070916,22.2238566 L21.4028207,22.2238566 C21.7765259,22.2238566 22.2707092,22.2528606 22.6287968,22.222741 C25.3663267,21.9974024 27.6397928,19.6603506 27.6531793,16.8893546 C27.6576414,15.6845737 27.6498327,14.4775618 27.6498327,13.2727809 C27.5215458,10.1068845 24.9156494,8.12792032 22.0018645,8.12792032 L6.89971315,8.12792032 L6.33413546,8.12792032 L6.33413546,6.04409562 L6.87628685,6.04409562 L27.6531793,6.04409562 C27.6531793,4.57047012 27.349753,3.26194422 26.5197928,2.15421514 C25.6664064,1.015251 24.3634582,0.270071713 22.9188367,0.106087649 C22.7581992,0.087123506 22.515012,0.0525418327 22.3465657,0.050310757 C21.1250518,0.0358087649 19.8076016,0.0514262948 18.5782789,0.0514262948 L6.02066932,0.0514262948 C3.18050996,0.0514262948 0.757561753,1.99134661 0.412860558,4.84154582 C0.343697211,5.40600797 0.37047012,6.01843825 0.37047012,6.95102789 L0.37047012,8.14353785 C0.37047012,8.79278088 0.326964143,9.08616733 0.483139442,9.72537052 C1.12568924,12.3558088 3.03660558,14.0313466 5.83995219,14.1306295 C6.53716335,14.1562869 7.26560956,14.1205896 8.04648606,14.1205896 L21.7185179,14.1205896 L21.7185179,15.0052112 L21.7185179,16.1452908 L20.9064064,16.1452908 Z" id="Fill-3"></path>
                        <path d="M50.0280797,16.259745 L50.0280797,22.1676335 L50.1139761,22.2524143 L56.5919044,22.2524143 L56.5629004,16.1749641 L50.1139761,16.1749641 C50.0481594,16.1749641 50.0280797,16.1939283 50.0280797,16.259745" id="Fill-5"></path>
                        <path d="M60.8446693,17.9351713 C61.1414024,17.9351713 62.5123984,17.8894343 62.6886534,17.9597131 L62.6886534,22.2523028 L64.6943904,22.2523028 L64.7066614,17.9530199 C64.9598884,17.8894343 66.1981355,17.9351713 66.551761,17.9351713 L66.551761,16.2596335 L60.8446693,16.2596335 L60.8446693,17.9351713 Z" id="Fill-7"></path>
                        <path d="M58.4752669,22.1675219 C58.4752669,22.2333386 58.4964622,22.2523028 58.5611633,22.2523028 L60.5312032,22.2523028 L60.5312032,16.231745 L58.4752669,16.231745 L58.4752669,22.1675219 Z" id="Fill-9"></path>
                    </g>
                </g>
            </g>
        </g>
    </g>
</svg>