<?xml version="1.0" encoding="UTF-8"?>
<svg width="103px" height="25px" viewBox="0 0 103 25" version="1.1" xmlns="http://www.w3.org/2000/svg" xmlns:xlink="http://www.w3.org/1999/xlink">
    <!-- Generator: Sketch 46.2 (44496) - http://www.bohemiancoding.com/sketch -->
    <title>Logo FastTrack</title>
    <desc>Created with Sketch.</desc>
    <defs></defs>
    <g id="Page-1" stroke="none" stroke-width="1" fill="none" fill-rule="evenodd">
        <g id="Home" transform="translate(-1036.000000, -3103.000000)" fill="#FEFEFE">
            <g id="BG" transform="translate(-6.000000, 0.000000)">
                <g id="LOGOS" transform="translate(1042.000000, 3103.000000)">
                    <g id="Logo-FastTrack" transform="translate(0.000000, 0.184845)">
                        <path d="M43.5292908,6.01123506 L39.9383745,6.01123506 L39.9383745,14.8630279 L38.0185339,14.8630279 L38.0185339,6.01123506 L34.4276175,6.01123506 L34.4276175,3.90733068 L43.5292908,3.90733068 L43.5292908,6.01123506 Z M34.8414821,12.0195219 C34.8414821,14.0598406 34.1386932,14.8630279 32.2311235,14.8630279 L25.6271394,14.8630279 L25.6271394,12.7903586 L32.1307251,12.7903586 C32.8078566,12.7903586 33.0967809,12.5973705 33.0967809,11.8577689 L33.0967809,11.2643028 C33.0967809,10.5737849 32.8078566,10.3160956 32.142996,10.3160956 L28.0623586,10.3160956 C26.1425179,10.3160956 25.6394104,9.41697211 25.6394104,7.53729084 L25.6394104,6.99179283 C25.6394104,4.74175299 26.3433147,3.90733068 28.0623586,3.90733068 L30.7240319,3.90733068 L30.7240319,5.98 L28.2386135,5.98 C27.6607649,5.98 27.3852271,6.20422311 27.3852271,7.07099602 L27.3852271,7.42573705 C27.3852271,8.11625498 27.6105657,8.37282869 28.2263426,8.37282869 L32.2311235,8.37282869 C34.1386932,8.37282869 34.8414821,9.17601594 34.8414821,11.1516335 L34.8414821,12.0195219 Z M22.8271394,14.8630279 L21.5855458,12.3407968 L15.6598088,12.3407968 L14.4416414,14.8630279 L12.2451474,14.8630279 L17.2159841,4.74175299 C17.5171793,4.11593625 17.8819602,3.6663745 18.6606056,3.6663745 C19.4258645,3.6663745 19.7895299,4.11593625 20.0907251,4.74175299 L25.0370199,14.8630279 L22.8271394,14.8630279 Z M5.25184064,10.7500398 L5.25184064,14.8630279 L3.35654183,14.8630279 L3.35654183,7.66557769 C3.35654183,4.90350598 4.09725896,3.90733068 6.62060558,3.90733068 L8.62857371,3.90733068 L8.62857371,6.01123506 L6.67080478,6.01123506 C5.62889243,6.01123506 5.25184064,6.52549801 5.25184064,7.81059761 L5.25184064,8.67848606 L12.4704861,8.67848606 L12.4704861,10.7500398 L5.25184064,10.7500398 Z M40.9289721,0.0620717131 L5.50618327,0.0620717131 C2.47749801,0.0620717131 -0.000111553785,2.65792829 -0.000111553785,5.83163347 L-0.000111553785,12.2091633 C-0.000111553785,15.381753 2.47749801,17.9787251 5.50618327,17.9787251 L40.9289721,17.9787251 C43.9576574,17.9787251 46.4352669,15.381753 46.4352669,12.2091633 L46.4352669,5.83163347 C46.4352669,2.65792829 43.9576574,0.0620717131 40.9289721,0.0620717131 L40.9289721,0.0620717131 Z" id="Fill-46"></path>
                        <polygon id="Fill-47" points="16.551012 10.4614502 20.693004 10.4614502 18.6214502 6.13985657"></polygon>
                        <polygon id="Fill-48" points="52.5930359 14.8625817 52.5930359 6.01078884 49.0032351 6.01078884 49.0032351 3.908 58.1037928 3.908 58.1037928 6.01078884 54.513992 6.01078884 54.513992 14.8625817"></polygon>
                        <path d="M67.2563347,7.3283506 C67.2563347,6.15592032 66.9172112,5.96293227 65.6622311,5.96293227 L60.9792032,5.96293227 L60.9792032,9.30396813 L65.6622311,9.30396813 C66.8926693,9.30396813 67.2563347,9.11209562 67.2563347,7.92293227 L67.2563347,7.3283506 Z M65.9879681,14.8626932 L60.9792032,10.8791076 L60.9792032,14.8626932 L59.0839044,14.8626932 L59.0839044,3.90811155 L65.7871713,3.90811155 C68.1855777,3.90811155 69.1639044,4.56516335 69.1639044,7.20006375 L69.1639044,7.95528287 C69.1639044,10.4931315 68.0974502,11.1524143 65.7626295,11.1524143 L64.2566534,11.1524143 L69.2776892,14.8626932 L65.9879681,14.8626932 Z" id="Fill-49"></path>
                        <path d="M74.1608446,10.4614502 L78.3039522,10.4614502 L76.2323984,6.13985657 L74.1608446,10.4614502 Z M79.1952669,12.3411315 L73.2695299,12.3411315 L72.0513625,14.862247 L69.8548685,14.862247 L74.8268207,4.74208765 C75.1280159,4.11627092 75.4916813,3.66670916 76.2703267,3.66670916 C77.0355857,3.66670916 77.4003665,4.11627092 77.7015618,4.74208765 L82.646741,14.862247 L80.4379761,14.862247 L79.1952669,12.3411315 Z" id="Fill-50"></path>
                        <path d="M86.2002869,14.8625817 C83.6769402,14.8625817 82.9362231,13.8664064 82.9362231,11.1032191 L82.9362231,7.66624701 C82.9362231,4.90305976 83.6769402,3.908 86.2002869,3.908 L92.1382948,3.908 L92.1382948,6.01078884 L86.2884143,6.01078884 C85.1204462,6.01078884 84.8315219,6.44473307 84.8315219,7.79453386 L84.8315219,11.0072829 C84.8315219,12.3727012 85.1204462,12.7742948 86.3006853,12.7742948 L92.1382948,12.7742948 L92.1382948,14.8625817 L86.2002869,14.8625817 Z" id="Fill-51"></path>
                        <polygon id="Fill-52" points="100.034964 14.8625817 95.2638088 9.51357769 95.2638088 14.8625817 93.36851 14.8625817 93.36851 3.908 95.2638088 3.908 95.2638088 9.14433466 99.9345657 3.908 102.508112 3.908 97.6120159 9.22353785 102.646438 14.8625817"></polygon>
                        <path d="M25.16051,24.2335458 C25.073498,24.3830279 24.9742151,24.4979283 24.8637769,24.5804781 C24.7544542,24.6619124 24.5960478,24.7020717 24.3885578,24.7020717 C24.1821833,24.7020717 24.0237769,24.6619124 23.9133386,24.5804781 C23.8029004,24.4979283 23.7036175,24.3830279 23.6166056,24.2335458 L20.9158884,19.6687649 L22.184255,19.6687649 L24.409753,23.4749801 L26.6285578,19.6687649 L27.8757291,19.6687649 L25.16051,24.2335458 Z" id="Fill-53"></path>
                        <path d="M31.7556813,24.5940876 C31.4109801,24.5940876 31.1242869,24.5639681 30.8944861,24.5037291 C30.6646853,24.44349 30.4806215,24.3475538 30.3422948,24.2148048 C30.2050837,24.0831713 30.1069163,23.9091474 30.0500239,23.6949641 C29.9920159,23.4807809 29.9641275,23.2175139 29.9641275,22.9040478 L29.9641275,21.3601434 C29.9641275,21.0511394 29.9920159,20.788988 30.0500239,20.5725737 C30.1069163,20.3550438 30.2050837,20.1810199 30.3422948,20.0493865 C30.4806215,19.9166375 30.6646853,19.8207012 30.8944861,19.7593466 C31.1242869,19.6991076 31.4109801,19.668988 31.7556813,19.668988 L32.9136096,19.668988 L32.9136096,20.6015777 L31.7556813,20.6015777 C31.6039681,20.6015777 31.4801434,20.6149641 31.3842072,20.6406215 C31.2871554,20.6662789 31.2101833,20.7097849 31.1521753,20.7666773 C31.0952829,20.8246853 31.056239,20.9016574 31.0350438,20.9975936 C31.0149641,21.0946454 31.0049243,21.2151235 31.0049243,21.3601434 L31.0049243,21.6903426 L35.0085896,21.6903426 L35.0085896,22.5660398 L31.0049243,22.5660398 L31.0049243,22.9118566 C31.0049243,23.0613386 31.0149641,23.1829323 31.0350438,23.2799841 C31.056239,23.3759203 31.0941673,23.454008 31.1499442,23.5109004 C31.2046056,23.5689084 31.2815777,23.6079522 31.379745,23.6302629 C31.4790279,23.6514582 31.6039681,23.6626135 31.7556813,23.6626135 L35.0353625,23.6626135 L35.0353625,24.5940876 L31.7556813,24.5940876 Z" id="Fill-54"></path>
                        <path d="M42.6714422,24.7019602 C42.561004,24.7019602 42.45949,24.6841116 42.3646693,24.6484143 C42.2709641,24.6127171 42.1828367,24.5524781 42.0991713,24.4710438 L38.6744701,21.0920797 L38.6744701,24.593753 L37.7028367,24.593753 L37.7028367,20.0167012 C37.7028367,19.8616414 37.7541514,19.7478566 37.8578964,19.6731155 C37.9616414,19.5983745 38.095506,19.5615618 38.2606056,19.5615618 C38.3810837,19.5615618 38.479251,19.5782948 38.5573386,19.611761 C38.6354263,19.6452271 38.7001275,19.6887331 38.7503267,19.7422789 L42.2029163,23.2294502 L42.2029163,19.6686534 L43.195745,19.6686534 L43.195745,24.2479363 C43.195745,24.4108048 43.1466614,24.5279363 43.0507251,24.5970996 C42.9536733,24.6673785 42.8276175,24.7019602 42.6714422,24.7019602" id="Fill-55"></path>
                        <polygon id="Fill-56" points="47.6885737 24.5940876 47.6885737 20.6160797 45.7174183 20.6160797 45.7174183 19.668988 50.7139124 19.668988 50.7139124 20.6160797 48.742757 20.6160797 48.742757 24.5940876"></polygon>
                        <path d="M55.0278088,24.5940876 C54.6831076,24.5940876 54.3964143,24.5639681 54.1666135,24.5037291 C53.9368127,24.44349 53.752749,24.3475538 53.6144223,24.2148048 C53.4772112,24.0831713 53.3790438,23.9091474 53.3221514,23.6949641 C53.2641434,23.4807809 53.236255,23.2175139 53.236255,22.9040478 L53.236255,19.668988 L54.2904382,19.668988 L54.2904382,22.8683506 C54.2904382,23.0222948 54.3049402,23.1483506 54.3350598,23.2476335 C54.3651793,23.3458008 54.4120319,23.4261195 54.4767331,23.4897052 C54.5403187,23.5510598 54.6273307,23.5945657 54.7344223,23.6191076 C54.8426295,23.6425339 54.9753785,23.6548048 55.1315538,23.6548048 L56.7089243,23.6548048 C56.8650996,23.6548048 56.9978486,23.6425339 57.1049402,23.6191076 C57.2131474,23.5945657 57.3001594,23.5510598 57.363745,23.4897052 C57.4284462,23.4261195 57.4752988,23.3446853 57.5054183,23.2442869 C57.5355378,23.1427729 57.5500398,23.0156016 57.5500398,22.8605418 L57.5500398,19.668988 L58.5908367,19.668988 L58.5908367,22.9040478 C58.5908367,23.2175139 58.5618327,23.4807809 58.5049402,23.6949641 C58.4469323,23.9091474 58.3498805,24.0831713 58.2115538,24.2148048 C58.0732271,24.3475538 57.8891633,24.44349 57.6604781,24.5037291 C57.4306773,24.5639681 57.1406375,24.5940876 56.7925896,24.5940876 L55.0278088,24.5940876 Z" id="Fill-57"></path>
                        <path d="M65.8542151,21.2072032 C65.8542151,21.0778008 65.8397131,20.9718247 65.8129402,20.8903904 C65.7850518,20.8089562 65.7381992,20.7453705 65.6746135,20.7018645 C65.6099124,20.6594741 65.5206693,20.6293546 65.4057689,20.6159681 C65.2908685,20.6014661 65.1491952,20.5936574 64.9785179,20.5936574 L62.4083187,20.5936574 L62.4083187,22.0962869 L64.9785179,22.0962869 C65.1491952,22.0962869 65.289753,22.0884781 65.4024223,22.0739761 C65.5150916,22.0594741 65.6043347,22.0304701 65.6712669,21.9869641 C65.7381992,21.9434582 65.7850518,21.880988 65.8129402,21.7995538 C65.8397131,21.7181195 65.8542151,21.6087968 65.8542151,21.4749323 L65.8542151,21.2072032 Z M65.1581195,24.5939761 L62.4083187,22.8035378 L62.4083187,24.5939761 L61.3675219,24.5939761 L61.3675219,19.6688765 L65.0476813,19.6688765 C65.378996,19.6688765 65.6612271,19.6911873 65.89549,19.7346932 C66.129753,19.7781992 66.3216255,19.8551713 66.4711076,19.9656096 C66.6205896,20.0760478 66.7287968,20.227761 66.7979602,20.420749 C66.8671235,20.6137371 66.9017052,20.8569243 66.9017052,21.1491952 L66.9017052,21.4894343 C66.9017052,21.7738964 66.8648924,22.0081594 66.7912669,22.1933386 C66.7176414,22.3785179 66.6038566,22.5257689 66.4499124,22.6328606 C66.2959681,22.7421833 66.1018645,22.8169243 65.8676016,22.8604303 C65.6333386,22.9039363 65.3555697,22.926247 65.0342948,22.926247 L64.2065657,22.926247 L66.9630598,24.5939761 L65.1581195,24.5939761 Z" id="Fill-58"></path>
                        <path d="M71.3049562,24.5940876 C70.960255,24.5940876 70.6735618,24.5639681 70.443761,24.5037291 C70.2139602,24.44349 70.0298964,24.3475538 69.8926853,24.2148048 C69.7543586,24.0831713 69.6561912,23.9091474 69.5992988,23.6949641 C69.5412908,23.4807809 69.5134024,23.2175139 69.5134024,22.9040478 L69.5134024,21.3601434 C69.5134024,21.0511394 69.5412908,20.788988 69.5992988,20.5725737 C69.6561912,20.3550438 69.7543586,20.1810199 69.8926853,20.0493865 C70.0298964,19.9166375 70.2139602,19.8207012 70.443761,19.7593466 C70.6735618,19.6991076 70.960255,19.668988 71.3049562,19.668988 L72.4628845,19.668988 L72.4628845,20.6015777 L71.3049562,20.6015777 C71.153243,20.6015777 71.0294183,20.6149641 70.9334821,20.6406215 C70.8364303,20.6662789 70.7594582,20.7097849 70.7014502,20.7666773 C70.6445578,20.8246853 70.6055139,20.9016574 70.5843187,20.9975936 C70.564239,21.0946454 70.5541992,21.2151235 70.5541992,21.3601434 L70.5541992,21.6903426 L74.5578645,21.6903426 L74.5578645,22.5660398 L70.5541992,22.5660398 L70.5541992,22.9118566 C70.5541992,23.0613386 70.564239,23.1829323 70.5843187,23.2799841 C70.6055139,23.3759203 70.6434422,23.454008 70.6992191,23.5109004 C70.7538805,23.5689084 70.8308526,23.6079522 70.9290199,23.6302629 C71.0283028,23.6514582 71.153243,23.6626135 71.3049562,23.6626135 L74.5846375,23.6626135 L74.5846375,24.5940876 L71.3049562,24.5940876 Z" id="Fill-59"></path>
                        <path d="M77.121259,24.5940876 L77.121259,23.6626135 L80.6909801,23.6626135 C80.879506,23.6626135 81.0144861,23.6358406 81.0970359,23.5800637 C81.1807012,23.5242869 81.2219761,23.4116175 81.2219761,23.2442869 L81.2219761,22.9765578 C81.2219761,22.8226135 81.1807012,22.7121753 81.0970359,22.6485896 C81.0144861,22.5827729 80.8817371,22.5504223 80.6987888,22.5504223 L78.4587888,22.5504223 C78.1966375,22.5504223 77.9791076,22.5258805 77.8073147,22.4756813 C77.6344064,22.4243665 77.4983108,22.3473944 77.3967968,22.2447649 C77.2963984,22.1410199 77.2261195,22.010502 77.1870757,21.8543267 C77.1480319,21.6970359 77.1279522,21.5129721 77.1279522,21.3021355 L77.1279522,21.0556016 C77.1279522,20.8057211 77.1536096,20.5915378 77.2038088,20.4130518 C77.2551235,20.2356813 77.3320956,20.0917769 77.4380717,19.9835697 C77.5440478,19.8753625 77.681259,19.7950438 77.8519363,19.7448446 C78.021498,19.6946454 78.2245259,19.668988 78.4587888,19.668988 L79.9190279,19.668988 L79.9190279,20.6015777 L78.5547251,20.6015777 C78.3940876,20.6015777 78.2758406,20.6328127 78.1999841,20.6986295 C78.1241275,20.7633307 78.0861992,20.8949641 78.0861992,21.0912988 L78.0861992,21.2508207 C78.0861992,21.4058805 78.1207809,21.5140876 78.1899442,21.5799044 C78.2591076,21.64349 78.3773546,21.6769562 78.5480319,21.6769562 L80.746757,21.6769562 C81.0077928,21.6769562 81.2297849,21.6992669 81.4116175,21.745004 C81.5923347,21.790741 81.7407012,21.8643665 81.8556016,21.9658805 C81.970502,22.0662789 82.0530518,22.1967968 82.103251,22.3552032 C82.1545657,22.5147251 82.1802231,22.7054821 82.1802231,22.9263586 L82.1802231,23.3156813 C82.1802231,23.5477131 82.1545657,23.7429323 82.103251,23.9046853 C82.0530518,24.0653227 81.970502,24.1969562 81.8556016,24.2973546 C81.7407012,24.3988685 81.5923347,24.4747251 81.4116175,24.5226932 C81.2297849,24.5706614 81.0077928,24.5940876 80.746757,24.5940876 L77.121259,24.5940876 Z" id="Fill-60"></path>
                        <polygon id="Fill-61" points="84.4718725 22.5998406 102.646215 22.5998406 102.646215 21.5378486 84.4718725 21.5378486"></polygon>
                        <polygon id="Fill-62" points="1.50486056 22.5998406 19.6792032 22.5998406 19.6792032 21.5378486 1.50486056 21.5378486"></polygon>
                    </g>
                </g>
            </g>
        </g>
    </g>
</svg>