<?xml version="1.0" encoding="UTF-8"?>
<svg width="68px" height="35px" viewBox="0 0 68 35" version="1.1" xmlns="http://www.w3.org/2000/svg" xmlns:xlink="http://www.w3.org/1999/xlink">
    <!-- Generator: Sketch 46.2 (44496) - http://www.bohemiancoding.com/sketch -->
    <title>Logo itBox</title>
    <desc>Created with Sketch.</desc>
    <defs>
        <polygon id="path-1" points="0.0162549801 31.3136255 15.2511554 31.3136255 15.2511554 8.87792829 0.0162549801 8.87792829"></polygon>
    </defs>
    <g id="Page-1" stroke="none" stroke-width="1" fill="none" fill-rule="evenodd">
        <g id="Home" transform="translate(-1247.000000, -3095.000000)">
            <g id="BG" transform="translate(-6.000000, 0.000000)">
                <g id="LOGOS" transform="translate(1042.000000, 3095.000000)">
                    <g id="Logo-itBox" transform="translate(210.721116, 0.109147)">
                        <path d="M5.11682869,12.2078088 C5.11682869,9.52270916 1.2325259,9.52270916 1.2325259,12.2078088 C1.2325259,14.8929084 5.11682869,14.8929084 5.11682869,12.2078088 Z" id="Fill-12" fill="#FEFEFE"></path>
                        <mask id="mask-2" fill="white">
                            <use xlink:href="#path-1"></use>
                        </mask>
                        <g id="Clip-15"></g>
                        <polygon id="Fill-14" fill="#FEFEFE" points="1.53003984 30.0742629 4.82087649 30.0742629 4.82087649 16.0809562 1.53003984 16.0809562"></polygon>
                        <path d="M13.8854024,26.6247968 C13.4001434,26.880255 12.8066773,27.0498167 12.2935299,27.0498167 C11.2683506,27.0498167 10.5666773,26.3994582 10.5666773,25.0697371 L10.5666773,19.0491793 L14.2635697,19.0491793 L14.2635697,16.0807331 L10.5945657,16.0807331 L10.5945657,11.0150757 L7.30372908,12.4909323 L7.30372908,16.0807331 L4.82054183,16.0807331 L4.82054183,19.0491793 L7.30372908,19.0491793 L7.30372908,25.0697371 C7.30372908,28.5479841 9.19121912,30.2726056 12.0782311,30.1588207 C13.0766375,30.1309323 13.859745,29.9613705 14.8023745,29.5653546 L13.8854024,26.6247968 Z" id="Fill-16" fill="#FEFEFE"></path>
                        <path d="M52.6361753,33.2243187 C52.6361753,33.5634422 52.7176096,33.8345179 52.8838247,34.0386614 C53.0489243,34.2439203 53.2709163,34.3465498 53.5475697,34.3465498 C53.8275697,34.3465498 54.0506773,34.2428048 54.2146614,34.0353147 C54.3786454,33.8278247 54.4611952,33.5366693 54.4611952,33.1618486 C54.4611952,32.8283028 54.3786454,32.5561116 54.2101992,32.3486215 C54.0428685,32.1400159 53.8208765,32.0373865 53.541992,32.0373865 C53.2709163,32.0373865 53.0522709,32.1389004 52.8860558,32.3441594 C52.7187251,32.5494183 52.6361753,32.8428048 52.6361753,33.2243187 Z M52.0828685,33.1618486 C52.0828685,32.864 52.1453386,32.5951554 52.2680478,32.3553147 C52.3918725,32.1165896 52.5647809,31.9325259 52.7856574,31.8031235 C53.0065339,31.6726056 53.259761,31.6079044 53.541992,31.6079044 C53.9803984,31.6079044 54.3340239,31.7518088 54.6062151,32.0396175 C54.8761753,32.3274263 55.0111554,32.7100558 55.0111554,33.187506 L55.0111554,33.2243187 C55.0111554,33.5221673 54.9509163,33.7876653 54.8315538,34.0241594 C54.7110757,34.2606534 54.5403984,34.4436016 54.3172908,34.5752351 C54.0941833,34.7068685 53.8376096,34.7726853 53.5475697,34.7726853 C53.11251,34.7726853 52.7588845,34.6287809 52.4878088,34.3409721 C52.2178486,34.0531633 52.0828685,33.6727649 52.0828685,33.1997769 L52.0828685,33.1618486 Z" id="Fill-18" fill="#FEFEFE"></path>
                        <path d="M56.2212908,31.6643506 L56.240255,32.0480956 C56.4845578,31.7547092 56.8058327,31.6074582 57.2029641,31.6074582 C57.8823267,31.6074582 58.2259124,31.9711235 58.23149,32.6995697 L58.23149,34.7164622 L57.6815299,34.7164622 L57.6815299,32.6973386 C57.6804143,32.4775777 57.6268685,32.3147092 57.522008,32.2087331 C57.4182629,32.1038725 57.25651,32.0514422 57.0356335,32.0514422 C56.8571474,32.0514422 56.7020876,32.0960637 56.5671076,32.1864223 C56.431012,32.2767809 56.3272669,32.3950279 56.2514104,32.5411633 L56.2514104,34.7164622 L55.7014502,34.7164622 L55.7014502,31.6643506 L56.2212908,31.6643506 Z" id="Fill-20" fill="#FEFEFE"></path>
                        <polygon id="Fill-22" fill="#FEFEFE" points="59.1085259 34.7171315 59.6584861 34.7171315 59.6584861 30.3843825 59.1085259 30.3843825"></polygon>
                        <path d="M60.5866135,34.7171315 L61.1365737,34.7171315 L61.1365737,31.6650199 L60.5866135,31.6650199 L60.5866135,34.7171315 Z M60.541992,30.8551394 C60.541992,30.7703586 60.5687649,30.6989641 60.6234263,30.6398406 C60.6780876,30.5829482 60.7584064,30.5528287 60.8666135,30.5528287 C60.9737052,30.5528287 61.0540239,30.5829482 61.1098008,30.6398406 C61.1644622,30.6989641 61.1934661,30.7703586 61.1934661,30.8551394 C61.1934661,30.9399203 61.1644622,31.0090837 61.1098008,31.0659761 C61.0540239,31.1228685 60.9737052,31.150757 60.8666135,31.150757 C60.7584064,31.150757 60.6780876,31.1228685 60.6234263,31.0659761 C60.5687649,31.0090837 60.541992,30.9399203 60.541992,30.8551394 L60.541992,30.8551394 Z" id="Fill-24" fill="#FEFEFE"></path>
                        <path d="M62.5365737,31.6643506 L62.5555378,32.0480956 C62.7998406,31.7547092 63.1211155,31.6074582 63.518247,31.6074582 C64.1976096,31.6074582 64.5411952,31.9711235 64.5478884,32.6995697 L64.5478884,34.7164622 L63.9979283,34.7164622 L63.9979283,32.6973386 C63.9956972,32.4775777 63.9421514,32.3147092 63.8384064,32.2087331 C63.7335458,32.1038725 63.5717928,32.0514422 63.3509163,32.0514422 C63.1735458,32.0514422 63.0173705,32.0960637 62.8823904,32.1864223 C62.7462948,32.2767809 62.6425498,32.3950279 62.5666932,32.5411633 L62.5666932,34.7164622 L62.0167331,34.7164622 L62.0167331,31.6643506 L62.5365737,31.6643506 Z" id="Fill-25" fill="#FEFEFE"></path>
                        <path d="M66.6435378,32.0369402 C66.4215458,32.0369402 66.235251,32.1127968 66.0846534,32.266741 C65.9329402,32.4206853 65.8403506,32.6348685 65.8046534,32.9115219 L67.41549,32.9115219 L67.41549,32.8713625 C67.400988,32.6069801 67.3251315,32.4006056 67.1901514,32.2555857 C67.0551713,32.1094502 66.8733386,32.0369402 66.6435378,32.0369402 M66.7127012,34.772239 C66.2754104,34.772239 65.9217849,34.637259 65.646247,34.3650677 C65.3729402,34.093992 65.2368446,33.7303267 65.2368446,33.2751873 L65.2368446,33.179251 C65.2368446,32.8769402 65.2981992,32.6058645 65.4197928,32.368255 C65.542502,32.1306454 65.7120637,31.9443506 65.9307092,31.8093705 C66.1504701,31.675506 66.3880797,31.6074582 66.6435378,31.6074582 C67.0618645,31.6074582 67.3864861,31.7379761 67.6185179,32.0001275 C67.8505498,32.2611633 67.9665657,32.6359841 67.9665657,33.1234741 L67.9665657,33.3398884 L65.7868048,33.3398884 C65.7946135,33.6399681 65.8872032,33.8831554 66.0645737,34.0683347 C66.2430598,34.2535139 66.4683984,34.3461036 66.7417052,34.3461036 C66.9358088,34.3461036 67.0997928,34.3092908 67.2347729,34.2345498 C67.369753,34.1586932 67.488,34.0582948 67.5895139,33.9344701 L67.9241753,34.1832351 C67.6553307,34.5759044 67.2503904,34.772239 66.7127012,34.772239" id="Fill-26" fill="#FEFEFE"></path>
                        <path d="M51.1850837,34.012 C51.1850837,34.2596494 50.9943267,34.4593307 50.7578327,34.4593307 C50.5224542,34.4593307 50.3305817,34.2596494 50.3305817,34.012 C50.3305817,33.7643506 50.5224542,33.5646693 50.7578327,33.5646693 C50.9943267,33.5646693 51.1850837,33.7643506 51.1850837,34.012" id="Fill-27" fill="#FEFEFE"></path>
                        <path d="M27.981004,20.1505498 C27.981004,18.4828207 27.6017211,17.135251 26.8431554,16.104494 C26.0845896,15.0759681 25.033753,14.5605896 23.6906454,14.5605896 C22.646502,14.5605896 21.5778167,14.938757 20.4823586,15.6950916 L20.4823586,24.724255 C21.5019602,25.4538167 22.571761,25.8185976 23.6906454,25.8185976 C25.0092112,25.8185976 26.0533546,25.2898327 26.8253068,24.2345339 C27.5950279,23.1803506 27.981004,21.8182789 27.981004,20.1505498 M32.9797291,20.1505498 C32.9797291,22.1306295 32.6127171,23.8775618 31.8798088,25.388 C31.1457849,26.8995538 30.0826773,28.0730996 28.6904861,28.9064064 C27.2971793,29.7397131 25.6428367,30.1569243 23.7274582,30.1569243 C22.9833944,30.1569243 22.1980558,29.986247 21.3781355,29.6493546 C20.5582151,29.3102311 19.7985339,28.880749 19.1024382,28.3586773 L18.446502,30.1390757 L15.6710438,30.1390757 L15.6710438,2.55851793 L20.4042709,0.00616733068 L20.4823586,11.0823426 C21.5778167,10.5089562 22.7078566,10.2222629 23.8769402,10.2222629 C26.6880956,10.2222629 28.9069004,11.1146932 30.5367012,12.8995538 C32.1653865,14.6855299 32.9797291,17.1017849 32.9797291,20.1505498" id="Fill-28" fill="#FEFEFE"></path>
                        <path d="M43.0265976,30.1565896 C41.0866773,30.1565896 39.3888287,29.7527649 37.9341673,28.9451155 C36.479506,28.1374661 35.3539283,26.984 34.5574343,25.4858327 C33.7609402,23.9876653 33.3649243,22.2351554 33.3649243,20.2294183 C33.3649243,18.2225657 33.7609402,16.4633625 34.5574343,14.9518088 C35.3539283,13.4413705 36.479506,12.2745179 37.9341673,11.4534821 C39.3888287,10.6324462 41.0866773,10.2219283 43.0265976,10.2219283 C44.9654024,10.2219283 46.663251,10.6268685 48.1179124,11.4345179 C49.5725737,12.2410518 50.6981514,13.3956335 51.4946454,14.8926853 C52.2900239,16.3919681 52.6882709,18.1433625 52.6882709,20.1502151 C52.6882709,22.1570677 52.2900239,23.9162709 51.4946454,25.4278247 C50.6981514,26.9382629 49.5725737,28.1051155 48.1179124,28.9250359 C46.663251,29.7460717 44.9654024,30.1565896 43.0265976,30.1565896" id="Fill-29" fill="#FEFEFE"></path>
                        <polygon id="Fill-30" fill="#E9EBEC" points="37.9652908 17.1754104 37.9652908 23.2037769 43.0264861 26.2179602 48.0865657 23.2037769 48.0865657 17.1754104 43.0264861 14.1612271"></polygon>
                        <path d="M38.0066773,23.179012 L43.0265976,26.1686534 L48.0454024,23.179012 L48.0454024,17.2008446 L43.0265976,14.2112032 L38.0066773,17.2008446 L38.0066773,23.179012 Z M43.0265976,26.2679363 L37.9241275,23.2280956 L37.9241275,17.1506454 L43.0265976,14.1108048 L43.0477928,14.1241912 L48.1279522,17.1506454 L48.1279522,23.2280956 L43.0265976,26.2679363 Z" id="Fill-31" fill="#E9EBEC"></path>
                        <polyline id="Fill-32" fill="#B9BFC2" points="43.0211315 20.052494 43.0233625 22.0928127 48.033243 19.2593466 48.0209721 17.3629323 43.0211315 20.0513785"></polyline>
                        <polyline id="Fill-33" fill="#8F9F9F" points="43.0233625 22.1103267 43.0233625 24.1506454 48.033243 21.2312829 48.033243 19.24451 43.0233625 22.0924781"></polyline>
                        <polyline id="Fill-34" fill="#7C8888" points="43.0233625 24.1736255 43.0233625 26.1458964 48.033243 23.2254183 48.033243 21.2308367 43.022247 24.1501992"></polyline>
                        <polyline id="Fill-35" fill="#B9BFC2" points="43.0211315 20.052494 43.0200159 22.0928127 38.0090199 19.2593466 38.0212908 17.3629323 43.0211315 20.0513785"></polyline>
                        <polyline id="Fill-36" fill="#8F9F9F" points="43.0201275 22.1103267 43.0201275 24.1506454 38.0091315 21.2312829 38.0091315 19.24451 43.0201275 22.0924781"></polyline>
                        <polyline id="Fill-37" fill="#7C8888" points="43.019012 24.1736255 43.0201275 26.1458964 38.0091315 23.2254183 38.0091315 21.2308367 43.0201275 24.1501992"></polyline>
                        <polyline id="Fill-38" fill="#239ACD" points="43.0658645 20.1897052 43.0669801 22.2300239 48.0768606 19.3965578 48.0657052 17.5001434 43.0658645 20.1885896"></polyline>
                        <polyline id="Fill-39" fill="#1272A7" points="43.0669801 22.2476494 43.0669801 24.2890837 48.0768606 21.3686056 48.0779761 19.3829482 43.0669801 22.2298008"></polyline>
                        <polyline id="Fill-40" fill="#0F5781" points="43.0679841 24.3120637 43.0668685 26.2843347 48.076749 23.362741 48.0778645 21.3681594 43.0668685 24.2886375"></polyline>
                        <polyline id="Fill-41" fill="#239ACD" points="43.0658645 20.1897052 43.0636335 22.2300239 38.053753 19.3965578 38.0660239 17.5001434 43.0658645 20.1885896"></polyline>
                        <polyline id="Fill-42" fill="#1272A7" points="43.0636335 22.2476494 43.0636335 24.2890837 38.053753 21.3686056 38.0526375 19.3829482 43.0636335 22.2298008"></polyline>
                        <polyline id="Fill-43" fill="#0F5781" points="43.0636335 24.3120637 43.0636335 26.2843347 38.053753 23.362741 38.053753 21.3681594 43.064749 24.2886375"></polyline>
                        <polygon id="Fill-45" fill="#FEFEFE" points="68.245004 9.90801594 62.8513785 9.90801594 59.0752829 15.8828367 55.3003028 9.90801594 49.9077928 9.90801594 56.3790279 20.152 50.2480319 29.8571793 55.6416574 29.8571793 59.0752829 24.4211633 62.5100239 29.8571793 67.9036494 29.8571793 61.7726534 20.152"></polygon>
                    </g>
                </g>
            </g>
        </g>
    </g>
</svg>