<?xml version="1.0" encoding="UTF-8"?>
<svg width="264px" height="265px" viewBox="0 0 264 265" version="1.1" xmlns="http://www.w3.org/2000/svg" xmlns:xlink="http://www.w3.org/1999/xlink">
    <!-- Generator: Sketch 46.2 (44496) - http://www.bohemiancoding.com/sketch -->
    <title>S2</title>
    <desc>Created with Sketch.</desc>
    <defs>
        <polygon id="path-1" points="57.6298944 0.217988395 0 0.217988395 0 47.083443 57.6298944 47.083443"></polygon>
        <polygon id="path-3" points="0.17731528 12.7272727 12.2308549 12.7272727 12.2308549 0.0709748549 0.17731528 0.0709748549"></polygon>
    </defs>
    <g id="Page-1" stroke="none" stroke-width="1" fill="none" fill-rule="evenodd">
        <g id="Home" transform="translate(-513.000000, -155.000000)">
            <g id="HOME" transform="translate(303.000000, 45.000000)">
                <g id="ISS2" transform="translate(0.000000, 110.000000)">
                    <g id="S2" transform="translate(210.000000, 0.000000)">
                        <g id="Shape" fill="#FFE500">
                            <path d="M200.424648,109.614744 C200.795301,110.502765 201,111.477227 201,112.499416 C201,113.521606 200.795301,114.496138 200.424648,115.384267 L200.424648,122.616034 C200.79528,123.504051 201,124.478322 201,125.5 C201,126.5228 200.79528,127.497639 200.424648,128.385875 L200.424648,137.616508 C200.795286,138.504696 201,139.479334 201,140.501733 C201,141.523846 200.795286,142.498129 200.424648,143.385943 L200.424648,164.411675 L197.893021,165.864925 C197.963248,166.232337 198,166.611623 198,166.999469 C198,170.31234 195.320264,173 192.001069,173 C190.488356,173 189.105855,172.439594 188.050066,171.515152 L187.103966,172.05825 C185.83589,174.405621 183.351621,176 180.496511,176 C180.412172,176 180.328159,175.998608 180.244493,175.995846 L180.22949,176.004458 C183.440473,176.127163 186,178.767477 186,182.001573 C186,185.31481 183.315372,188 179.995774,188 C176.684628,188 174,185.31481 174,182.001573 C174,180.980034 174.255366,180.017737 174.70572,179.17531 L172.701984,180.32553 C172.895828,181.013673 173,181.743692 173,182.5 C173,186.638867 169.871384,190 166.000555,190 C163.828044,190 161.88558,188.937579 160.601199,187.271838 L155.55677,190.16753 C157.039004,191.260351 158,193.018481 158,194.999476 C158,198.312604 155.315387,201 151.999472,201 C148.906079,201 146.351058,198.649229 146.03327,195.634379 L145.998078,195.654581 C145.910183,199.173396 142.81835,202 138.999398,202 C137.934006,202 136.923817,201.778641 136.019435,201.382698 L126.136745,207.055736 C126.679506,207.881715 127,208.899297 127,209.999469 C127,212.760068 124.983622,215 122.500963,215 C120.518359,215 118.832887,213.572633 118.233551,211.592467 L100.103153,222 L99.5688606,221.692627 C99.8424788,222.220392 100,222.838991 100,223.5 C100,225.430955 98.6557864,227 97,227 C95.3442136,227 94,225.430955 94,223.5 C94,221.701345 95.1663253,220.216706 96.6643797,220.021709 L83.9305548,212.696069 C83.4951138,212.891346 83.0124985,213 82.5045187,213 C80.6988181,213 79.2057111,211.627081 79.0195436,209.870814 L57.0246906,197.217399 C56.4921118,197.703687 55.7827594,198 55.0026563,198 C53.345139,198 52,196.660573 52,195.003691 C52,194.784879 52.02346,194.571475 52.0680012,194.365866 L29.9909334,181.665154 C29.9083577,182.414904 29.2719636,183 28.503268,183 C27.6713352,183 27,182.326929 27,181.499535 C27,181.006476 27.2389403,180.568012 27.6083725,180.294491 L0,164.411675 L0,58.2758298 L100.103153,0 L123.235045,13.4371023 C123.632795,12.58812 124.493851,12 125.495883,12 C126.877911,12 128,13.1187587 128,14.4976668 C128,15.0339912 127.830536,15.5313788 127.542209,15.9390942 L149.147406,28.4893535 C149.579767,27.0499878 150.914234,26 152.495586,26 C154.427648,26 156,27.5673604 156,29.4972618 C156,30.4324264 155.632892,31.2816674 155.035479,31.9096807 L165.595427,38.0438569 C166.626161,38.1971827 167.526817,38.7426252 168.142445,39.523396 L190.777959,52.6721573 C191.412845,52.2475098 192.176057,52 192.99687,52 C195.209703,52 197,53.7887105 197,55.9989643 C197,56.0937158 196.996707,56.1876995 196.990228,56.280807 L200.424648,58.2758298 L200.424648,109.614744 Z M192.1,1.209 C192.042,1.209 192,1.163 192,1.104 C192,1.046 192.042,1 192.1,1 C192.163,1 192.205,1.046 192.205,1.104 C192.205,1.163 192.163,1.209 192.1,1.209 Z M179.496657,1 C179.224451,1 179,0.77682811 179,0.499525166 C179,0.22317189 179.224451,0 179.496657,0 C179.774594,0 180,0.22317189 180,0.499525166 C180,0.77682811 179.774594,1 179.496657,1 Z M164.49813,1 C164.223192,1 164,0.776470588 164,0.499071207 C164,0.223529412 164.223192,0 164.49813,0 C164.773067,0 165,0.223529412 165,0.499071207 C165,0.776470588 164.773067,1 164.49813,1 Z M151.999506,2 C151.449827,2 151,1.55228277 151,0.999509082 C151,0.445753559 151.449827,0 151.999506,0 C152.556105,0 153,0.445753559 153,0.999509082 C153,1.55228277 152.556105,2 151.999506,2 Z M137.588125,2.919375 C136.850625,2.919375 136.244375,2.310625 136.244375,1.559375 C136.244375,0.808125 136.850625,0.198125 137.588125,0.198125 C138.336875,0.198125 138.943125,0.808125 138.943125,1.559375 C138.943125,2.310625 138.336875,2.919375 137.588125,2.919375 Z M125,2 C124.447947,2 124,1.55218216 124,1 C124,0.447817837 124.447947,0 125,0 C125.550143,0 126,0.447817837 126,1 C126,1.55218216 125.550143,2 125,2 Z M110,2 C109.448619,2 109,1.55202629 109,1 C109,0.447973713 109.448619,0 110,0 C110.551381,0 111,0.447973713 111,1 C111,1.55202629 110.551381,2 110,2 Z M96.4992013,1 C96.2204473,1 96,0.777075099 96,0.499604743 C96,0.224505929 96.2204473,0 96.4992013,0 C96.7779553,0 97,0.224505929 97,0.499604743 C97,0.777075099 96.7779553,1 96.4992013,1 Z M82.243,1.493 C82.108,1.493 82,1.38 82,1.246 C82,1.109 82.108,1 82.243,1 C82.378,1 82.484,1.109 82.484,1.246 C82.484,1.38 82.378,1.493 82.243,1.493 Z M206.50135,16 C206.225023,16 206,15.777382 206,15.4986643 C206,15.2243989 206.225023,15 206.50135,15 C206.775878,15 207,15.2243989 207,15.4986643 C207,15.777382 206.775878,16 206.50135,16 Z M192.996755,16 C192.447844,16 192,15.5549425 192,15.0013793 C192,14.4496552 192.447844,14 192.996755,14 C193.551229,14 194,14.4496552 194,15.0013793 C194,15.5549425 193.551229,16 192.996755,16 Z M179.496178,17 C178.673567,17 178,16.3302723 178,15.49905 C178,14.6716276 178.673567,14 179.496178,14 C180.326433,14 181,14.6716276 181,15.49905 C181,16.3302723 180.326433,17 179.496178,17 Z M164.498009,17 C163.67056,17 163,16.328937 163,15.4996043 C163,14.671063 163.67056,14 164.498009,14 C165.324662,14 166,14.671063 166,15.4996043 C166,16.328937 165.324662,17 164.498009,17 Z M153.495215,17 C152.117225,17 151,15.8799241 151,14.497627 C151,13.1188894 152.117225,12 153.495215,12 C154.883971,12 156,13.1188894 156,14.497627 C156,15.8799241 154.883971,17 153.495215,17 Z M137.494878,17 C136.117687,17 135,15.8799729 135,14.4988698 C135,13.1211573 136.117687,12 137.494878,12 C138.874346,12 140,13.1211573 140,14.4988698 C140,15.8799729 138.874346,17 137.494878,17 Z M68.5,16 C68.2223667,16 68,15.7759067 68,15.4993523 C68,15.2227979 68.2223667,15 68.5,15 C68.7724317,15 69,15.2227979 69,15.4993523 C69,15.7759067 68.7724317,16 68.5,16 Z M56.142,15.282 C56.064,15.282 56,15.22 56,15.14 C56,15.063 56.064,15 56.142,15 C56.221,15 56.279,15.063 56.279,15.14 C56.279,15.22 56.221,15.282 56.142,15.282 Z M235.035,29.072 C235.013,29.072 235,29.057 235,29.035 C235,29.018 235.013,29 235.035,29 C235.056,29 235.07,29.018 235.07,29.035 C235.07,29.057 235.056,29.072 235.035,29.072 Z M220.5,29 C220.226918,29 220,28.7765544 220,28.4993523 C220,28.2240933 220.226918,28 220.5,28 C220.778283,28 221,28.2240933 221,28.4993523 C221,28.7765544 220.778283,29 220.5,29 Z M207.497951,31 C206.672131,31 206,30.3293758 206,29.4979647 C206,28.6696065 206.672131,28 207.497951,28 C208.328893,28 209,28.6696065 209,29.4979647 C209,30.3293758 208.328893,31 207.497951,31 Z M193.49635,32 C192.118005,32 191,30.8800386 191,29.4969829 C191,28.1199614 192.118005,27 193.49635,27 C194.881995,27 196,28.1199614 196,29.4969829 C196,30.8800386 194.881995,32 193.49635,32 Z M179.995287,33 C178.343284,33 177,31.6566465 177,29.997072 C177,28.3398399 178.343284,27 179.995287,27 C181.656716,27 183,28.3398399 183,29.997072 C183,31.6566465 181.656716,33 179.995287,33 Z M165.000513,32 C163.342901,32 162,30.6599966 162,28.9994913 C162,27.3430558 163.342901,26 165.000513,26 C166.657099,26 168,27.3430558 168,28.9994913 C168,30.6599966 166.657099,32 165.000513,32 Z M42.278,29.563 C42.121,29.563 42,29.437 42,29.279 C42,29.126 42.121,29 42.278,29 C42.427,29 42.555,29.126 42.555,29.279 C42.555,29.437 42.427,29.563 42.278,29.563 Z M234.5,44 C234.226918,44 234,43.7747573 234,43.5003236 C234,43.2239482 234.226918,43 234.5,43 C234.777633,43 235,43.2239482 235,43.5003236 C235,43.7747573 234.777633,44 234.5,44 Z M220.499532,45 C219.673011,45 219,44.3289963 219,43.5009294 C219,42.6737918 219.673011,42 220.499532,42 C221.332605,42 222,42.6737918 222,43.5009294 C222,44.3289963 221.332605,45 220.499532,45 Z M207.501071,46 C206.119914,46 205,44.8777896 205,43.4994687 C205,42.1190223 206.119914,41 207.501071,41 C208.879015,41 210,42.1190223 210,43.4994687 C210,44.8777896 208.879015,46 207.501071,46 Z M192.996995,47 C191.342237,47 190,45.6584962 190,44 C190,42.3424975 191.342237,41 192.996995,41 C194.657763,41 196,42.3424975 196,44 C196,45.6584962 194.657763,47 192.996995,47 Z M179.496521,45 C177.565384,45 176,43.4318342 176,41.4995066 C176,39.566192 177.565384,38 179.496521,38 C181.428653,38 183,39.566192 183,41.4995066 C183,43.4318342 181.428653,45 179.496521,45 Z M247.499101,57 C247.22482,57 247,56.7778769 247,56.499554 C247,56.2239072 247.22482,56 247.499101,56 C247.77518,56 248,56.2239072 248,56.499554 C248,56.7778769 247.77518,57 247.499101,57 Z M234.496924,57 C233.67054,57 233,56.3296033 233,55.5005086 C233,54.6734486 233.67054,54 234.496924,54 C235.32946,54 236,54.6734486 236,55.5005086 C236,56.3296033 235.32946,57 234.496924,57 Z M220.5,59 C219.120505,59 218,57.8809777 218,56.4994687 C218,55.120085 219.120505,54 220.5,54 C221.879495,54 223,55.120085 223,56.4994687 C223,57.8809777 221.879495,59 220.5,59 Z M207.497211,60 C205.566215,60 204,58.4307863 204,56.4983389 C204,54.5681063 205.566215,53 207.497211,53 C209.4349,53 211,54.5681063 211,56.4983389 C211,58.4307863 209.4349,60 207.497211,60 Z M262.1,71.209 C262.042,71.209 262,71.166 262,71.105 C262,71.048 262.042,71 262.1,71 C262.158,71 262.206,71.048 262.206,71.105 C262.206,71.166 262.158,71.209 262.1,71.209 Z M247.995831,72 C247.442798,72 247,71.5531034 247,70.9986207 C247,70.4487356 247.442798,70 247.995831,70 C248.550718,70 249,70.4487356 249,70.9986207 C249,71.5531034 248.550718,72 247.995831,72 Z M235.5,73 C234.123664,73 233,71.8781665 233,70.4981906 C233,69.1182147 234.123664,68 235.5,68 C236.876336,68 238,69.1182147 238,70.4981906 C238,71.8781665 236.876336,73 235.5,73 Z M221,74 C219.347899,74 218,72.6564052 218,70.999007 C218,69.3455809 219.347899,68 221,68 C222.661107,68 224,69.3455809 224,70.999007 C224,72.6564052 222.661107,74 221,74 Z M206.997914,75 C204.791917,75 203,73.209218 203,70.9989643 C203,68.7897462 204.791917,67 206.997914,67 C209.210169,67 211,68.7897462 211,70.9989643 C211,73.209218 209.210169,75 206.997914,75 Z M262.496176,84 C262.224665,84 262,83.7749288 262,83.4976258 C262,83.2241216 262.224665,83 262.496176,83 C262.775335,83 263,83.2241216 263,83.4976258 C263,83.7749288 262.775335,84 262.496176,84 Z M248.499042,85 C247.667625,85 247,84.3261626 247,83.4976273 C247,82.6719393 247.667625,82 248.499042,82 C249.332375,82 250,82.6719393 250,83.4976273 C250,84.3261626 249.332375,85 248.499042,85 Z M235.00118,87 C233.344217,87 232,85.6576946 232,83.9970743 C232,82.3434757 233.344217,81 235.00118,81 C236.655783,81 238,82.3434757 238,83.9970743 C238,85.6576946 236.655783,87 235.00118,87 Z M220.499503,88 C218.566719,88 217,86.4318342 217,84.4975328 C217,82.566192 218.566719,81 220.499503,81 C222.434276,81 224,82.566192 224,84.4975328 C224,86.4318342 222.434276,88 220.499503,88 Z M207.496974,89 C205.011432,89 203,86.9853138 203,84.4989987 C203,82.0146862 205.011432,80 207.496974,80 C209.980498,80 212,82.0146862 212,84.4989987 C212,86.9853138 209.980498,89 207.496974,89 Z M262.497193,98 C262.222084,98 262,97.7775713 262,97.5 C262,97.2242875 262.222084,97 262.497193,97 C262.772302,97 263,97.2242875 263,97.5 C263,97.7775713 262.772302,98 262.497193,98 Z M246.496416,99 C245.669764,99 245,98.3278861 245,97.5 C245,96.6713231 245.669764,96 246.496416,96 C247.324662,96 248,96.6713231 248,97.5 C248,98.3278861 247.324662,99 246.496416,99 Z M235.001025,102 C233.344722,102 232,100.660787 232,99 C232,97.3432836 233.344722,96 235.001025,96 C236.657328,96 238,97.3432836 238,99 C238,100.660787 236.657328,102 235.001025,102 Z M220.999492,103 C218.794032,103 217,101.210234 217,99 C217,96.7897656 218.794032,95 220.999492,95 C223.213079,95 225,96.7897656 225,99 C225,101.210234 223.213079,103 220.999492,103 Z M206.001003,104 C203.243178,104 201,101.760406 201,99 C201,96.2395937 203.243178,94 206.001003,94 C208.764848,94 211,96.2395937 211,99 C211,101.760406 208.764848,104 206.001003,104 Z M261.999506,113 C261.450816,113 261,112.55468 261,111.999015 C261,111.44532 261.450816,111 261.999506,111 C262.556105,111 263,111.44532 263,111.999015 C263,112.55468 262.556105,113 261.999506,113 Z M247.494619,115 C246.116958,115 245,113.881376 245,112.497034 C245,111.115065 246.116958,110 247.494619,110 C248.874671,110 250,111.115065 250,112.497034 C250,113.881376 248.874671,115 247.494619,115 Z M235.49669,116 C233.562421,116 232,114.435926 232,112.499452 C232,110.566265 233.562421,109 235.49669,109 C237.428752,109 239,110.566265 239,112.499452 C239,114.435926 237.428752,116 235.49669,116 Z M219.499471,117 C217.012113,117 215,114.979335 215,112.495271 C215,110.012259 217.012113,108 219.499471,108 C221.987887,108 224,110.012259 224,112.495271 C224,114.979335 221.987887,117 219.499471,117 Z M207.001125,118 C203.692293,118 201,115.311115 201,111.996649 C201,108.684416 203.692293,106 207.001125,106 C210.316707,106 213,108.684416 213,111.996649 C213,115.311115 210.316707,118 207.001125,118 Z M261.996755,127 C261.442281,127 261,126.551058 261,126.00092 C261,125.448942 261.442281,125 261.996755,125 C262.552156,125 263,125.448942 263,126.00092 C263,126.551058 262.552156,127 261.996755,127 Z M247.494878,129 C246.117687,129 245,127.881609 245,126.5 C245,125.12178 246.117687,124 247.494878,124 C248.882313,124 250,125.12178 250,126.5 C250,127.881609 248.882313,129 247.494878,129 Z M235.501069,130 C233.567786,130 232,128.433374 232,126.49894 C232,124.567686 233.567786,123 235.501069,123 C237.434351,123 239,124.567686 239,126.49894 C239,128.433374 237.434351,130 235.501069,130 Z M219.5,131 C217.015603,131 215,128.984845 215,126.497949 C215,124.015155 217.015603,122 219.5,122 C221.984397,122 224,124.015155 224,126.497949 C224,128.984845 221.984397,131 219.5,131 Z M206.997241,132 C203.687391,132 201,129.312762 201,126 C201,122.688333 203.687391,120 206.997241,120 C210.313713,120 213,122.688333 213,126 C213,129.312762 210.313713,132 206.997241,132 Z M262,141 C261.449857,141 261,140.553444 261,140.001425 C261,139.445606 261.449857,139 262,139 C262.550143,139 263,139.445606 263,140.001425 C263,140.553444 262.550143,141 262,141 Z M247.49471,143 C246.113332,143 245,141.881625 245,140.504086 C245,139.123045 246.113332,138 247.49471,138 C248.878439,138 250,139.123045 250,140.504086 C250,141.881625 248.878439,143 247.49471,143 Z M235.501092,144 C233.571451,144 232,142.429876 232,140.501084 C232,138.566873 233.571451,137 235.501092,137 C237.437285,137 239,138.566873 239,140.501084 C239,142.429876 237.437285,144 235.501092,144 Z M219.499475,144 C217.01773,144 215,141.982399 215,139.5 C215,137.010306 217.01773,135 219.499475,135 C221.988569,135 224,137.010306 224,139.5 C224,141.982399 221.988569,144 219.499475,144 Z M207.000555,146 C203.68665,146 201,143.31814 201,140.003308 C201,136.689579 203.68665,134 207.000555,134 C210.31113,134 213,136.689579 213,140.003308 C213,143.31814 210.31113,146 207.000555,146 Z M263,155 C262.448619,155 262,154.550931 262,154.001095 C262,153.45126 262.448619,153 263,153 C263.559116,153 264,153.45126 264,154.001095 C264,154.550931 263.559116,155 263,155 Z M247.498741,157 C246.119084,157 245,155.88056 245,154.5 C245,153.11944 246.119084,152 247.498741,152 C248.880916,152 250,153.11944 250,154.5 C250,155.88056 248.880916,157 247.498741,157 Z M234.99703,157 C233.339604,157 232,155.430955 232,153.5 C232,151.565609 233.339604,150 234.99703,150 C236.654455,150 238,151.565609 238,153.5 C238,155.430955 236.654455,157 234.99703,157 Z M220.996566,157 C218.788789,157 217,155.209566 217,153.002434 C217,150.792382 218.788789,149 220.996566,149 C223.212192,149 225,150.792382 225,153.002434 C225,155.209566 223.212192,157 220.996566,157 Z M205.996584,158 C203.236752,158 201,155.762062 201,153.003875 C201,150.237938 203.236752,148 205.996584,148 C208.761296,148 211,150.237938 211,153.003875 C211,155.762062 208.761296,158 205.996584,158 Z M262.5,168 C262.221691,168 262,167.775753 262,167.5 C262,167.22187 262.221691,167 262.5,167 C262.778309,167 263,167.22187 263,167.5 C263,167.775753 262.778309,168 262.5,168 Z M246.499103,168 C245.669755,168 245,167.329181 245,166.5 C245,165.669929 245.669755,165 246.499103,165 C247.330245,165 248,165.669929 248,166.5 C248,167.329181 247.330245,168 246.499103,168 Z M235,170 C233.345251,170 232,168.658771 232,167.002221 C232,165.34567 233.345251,164 235,164 C236.654749,164 238,165.34567 238,167.002221 C238,168.658771 236.654749,170 235,170 Z M221,171 C218.796537,171 217,169.210993 217,167.001613 C217,164.787932 218.796537,163 221,163 C223.212121,163 225,164.787932 225,167.001613 C225,169.210993 223.212121,171 221,171 Z M207.500963,172 C205.016378,172 203,169.759244 203,167 C203,164.237569 205.016378,162 207.500963,162 C209.989403,162 212,164.237569 212,167 C212,169.759244 209.989403,172 207.500963,172 Z M262.242,182.487 C262.107,182.487 262,182.38 262,182.243 C262,182.107 262.107,182 262.242,182 C262.377,182 262.492,182.107 262.492,182.243 C262.492,182.38 262.377,182.487 262.242,182.487 Z M247.999202,182 C247.449322,182 247,181.552392 247,181.001186 C247,180.451562 247.449322,180 247.999202,180 C248.557063,180 249,180.451562 249,181.001186 C249,181.552392 248.557063,182 247.999202,182 Z M235.500561,184 C234.118465,184 233,182.882209 233,181.499443 C233,180.118904 234.118465,179 235.500561,179 C236.881535,179 238,180.118904 238,181.499443 C238,182.882209 236.881535,184 235.500561,184 Z M220.500552,185 C218.566356,185 217,183.432149 217,181.498357 C217,179.564564 218.566356,178 220.500552,178 C222.436958,178 224,179.564564 224,181.498357 C224,183.432149 222.436958,185 220.500552,185 Z M206.997057,185 C204.787589,185 203,183.205353 203,181 C203,178.789781 204.787589,177 206.997057,177 C209.204562,177 211,178.789781 211,181 C211,183.205353 209.204562,185 206.997057,185 Z M193.001526,187 C190.239748,187 188,184.760606 188,182 C188,179.239394 190.239748,177 193.001526,177 C195.769411,177 198,179.239394 198,182 C198,184.760606 195.769411,187 193.001526,187 Z M14.5037847,183 C14.2279226,183 14,182.777311 14,182.5 C14,182.222689 14.2279226,182 14.5037847,182 C14.7729184,182 15,182.222689 15,182.5 C15,182.777311 14.7729184,183 14.5037847,183 Z M247.499351,195 C247.227273,195 247,194.776843 247,194.501294 C247,194.22251 247.227273,194 247.499351,194 C247.777922,194 248,194.22251 248,194.501294 C248,194.776843 247.777922,195 247.499351,195 Z M234.5,196 C233.670251,196 233,195.330071 233,194.5 C233,193.674377 233.670251,193 234.5,193 C235.328853,193 236,193.674377 236,194.5 C236,195.330071 235.328853,196 234.5,196 Z M220.995287,198 C219.343284,198 218,196.655213 218,195 C218,193.340102 219.343284,192 220.995287,192 C222.656716,192 224,193.340102 224,195 C224,196.655213 222.656716,198 220.995287,198 Z M207.500517,198 C205.569697,198 204,196.430291 204,194.5 C204,192.568682 205.569697,191 207.500517,191 C209.430303,191 211,192.568682 211,194.5 C211,196.430291 209.430303,198 207.500517,198 Z M192.997082,200 C190.786965,200 189,197.985999 189,195.500543 C189,193.015088 190.786965,191 192.997082,191 C195.206226,191 197,193.015088 197,195.500543 C197,197.985999 195.206226,200 192.997082,200 Z M179.996858,200 C177.237118,200 175,197.762761 175,195.003639 C175,192.240358 177.237118,190 179.996858,190 C182.764977,190 185,192.240358 185,195.003639 C185,197.762761 182.764977,200 179.996858,200 Z M166.000562,202 C162.693166,202 160,199.313233 160,196 C160,192.683417 162.693166,190 166.000562,190 C169.316959,190 172,192.683417 172,196 C172,199.313233 169.316959,202 166.000562,202 Z M43.5006292,198 C42.1188019,198 41,196.88056 41,195.5 C41,194.11944 42.1188019,193 43.5006292,193 C44.8811981,193 46,194.11944 46,195.5 C46,196.88056 44.8811981,198 43.5006292,198 Z M28.0038351,196 C27.4506232,196 27,195.554394 27,195.001425 C27,194.449406 27.4506232,194 28.0038351,194 C28.5560882,194 29,194.449406 29,195.001425 C29,195.554394 28.5560882,196 28.0038351,196 Z M15.107,194.215 C15.05,194.215 15,194.165 15,194.108 C15,194.05 15.05,194 15.107,194 C15.163,194 15.207,194.05 15.207,194.108 C15.207,194.165 15.163,194.215 15.107,194.215 Z M248.135,209.287 C248.058,209.287 248,209.223 248,209.143 C248,209.065 248.058,209 248.135,209 C248.214,209 248.279,209.065 248.279,209.143 C248.279,209.223 248.214,209.287 248.135,209.287 Z M235.000494,210 C234.449827,210 234,209.549558 234,209 C234,208.446516 234.449827,208 235.000494,208 C235.556105,208 236,208.446516 236,209 C236,209.549558 235.556105,210 235.000494,210 Z M220.496348,210 C219.670273,210 219,209.326975 219,208.5 C219,207.673025 219.670273,207 220.496348,207 C221.322424,207 222,207.673025 222,208.5 C222,209.326975 221.322424,210 220.496348,210 Z M207.997675,213 C206.341341,213 205,211.656527 205,210 C205,208.342318 206.341341,207 207.997675,207 C209.652848,207 211,208.342318 211,210 C211,211.656527 209.652848,213 207.997675,213 Z M193.496798,213 C191.565874,213 190,211.432424 190,209.5 C190,207.567576 191.565874,206 193.496798,206 C195.433059,206 197,207.567576 197,209.5 C197,211.432424 195.433059,213 193.496798,213 Z M179.995828,213 C177.789831,213 176,211.208754 176,209.002072 C176,206.79021 177.789831,205 179.995828,205 C182.208083,205 184,206.79021 184,209.002072 C184,211.208754 182.208083,213 179.995828,213 Z M165.500525,214 C163.01878,214 161,211.988885 161,209.500521 C161,207.014241 163.01878,205 165.500525,205 C167.990668,205 170,207.014241 170,209.500521 C170,211.988885 167.990668,214 165.500525,214 Z M151.499511,214 C149.01456,214 147,211.986191 147,209.500485 C147,207.013809 149.01456,205 151.499511,205 C153.98544,205 156,207.013809 156,209.500485 C156,211.986191 153.98544,214 151.499511,214 Z M137.99578,215 C135.231483,215 133,212.760553 133,210.000524 C133,207.238399 135.231483,205 137.99578,205 C140.761131,205 143,207.238399 143,210.000524 C143,212.760553 140.761131,215 137.99578,215 Z M70.0037201,212 C68.3456156,212 67,210.659631 67,209.002639 C67,207.344591 68.3456156,206 70.0037201,206 C71.6628875,206 73,207.344591 73,209.002639 C73,210.659631 71.6628875,212 70.0037201,212 Z M55.5047847,212 C54.1255981,212 53,210.878615 53,209.5 C53,208.12257 54.1255981,207 55.5047847,207 C56.8851675,207 58,208.12257 58,209.5 C58,210.878615 56.8851675,212 55.5047847,212 Z M42.0003877,210 C41.4474603,210 41,209.552561 41,209.000385 C41,208.447439 41.4474603,208 42.0003877,208 C42.5517642,208 43,208.447439 43,209.000385 C43,209.552561 42.5517642,210 42.0003877,210 Z M28.42,209.846 C28.186,209.846 28,209.656 28,209.423 C28,209.19 28.186,209 28.42,209 C28.648,209 28.832,209.19 28.832,209.423 C28.832,209.656 28.648,209.846 28.42,209.846 Z M234.278,222.563 C234.121,222.563 234,222.438 234,222.28 C234,222.125 234.121,222 234.278,222 C234.434,222 234.556,222.125 234.556,222.28 C234.556,222.438 234.434,222.563 234.278,222.563 Z M220,224 C219.449857,224 219,223.550285 219,223 C219,222.447818 219.449857,222 220,222 C220.550143,222 221,222.447818 221,223 C221,223.550285 220.550143,224 220,224 Z M206.498312,224 C205.667698,224 205,223.327658 205,222.499581 C205,221.670667 205.667698,221 206.498312,221 C207.327237,221 208,221.670667 208,222.499581 C208,223.327658 207.327237,224 206.498312,224 Z M192.496833,225 C191.111698,225 190,223.880394 190,222.497905 C190,221.115417 191.111698,220 192.496833,220 C193.879856,220 195,221.115417 195,222.497905 C195,223.880394 193.879856,225 192.496833,225 Z M179.999481,226 C178.344631,226 177,224.658884 177,223.000515 C177,221.345236 178.344631,220 179.999481,220 C181.662632,220 183,221.345236 183,223.000515 C183,224.658884 181.662632,226 179.999481,226 Z M165.500534,226 C163.566478,226 162,224.432187 162,222.50053 C162,220.566753 163.566478,219 165.500534,219 C167.433522,219 169,220.566753 169,222.50053 C169,224.432187 167.433522,226 165.500534,226 Z M151.495527,226 C149.563396,226 148,224.431392 148,222.498519 C148,220.564659 149.563396,219 151.495527,219 C153.428653,219 155,220.564659 155,222.498519 C155,224.431392 153.428653,226 151.495527,226 Z M137.998896,227 C135.791391,227 134,225.20786 134,223.000548 C134,220.79214 135.791391,219 137.998896,219 C140.209713,219 142,220.79214 142,223.000548 C142,225.20786 140.209713,227 137.998896,227 Z M123.500975,227 C121.570075,227 120,225.205504 120,223.000553 C120,220.788964 121.570075,219 123.500975,219 C125.4309,219 127,220.788964 127,223.000553 C127,225.205504 125.4309,227 123.500975,227 Z M110.5,226 C108.5705,226 107,224.42983 107,222.498972 C107,220.567087 108.5705,219 110.5,219 C112.430535,219 114,220.567087 114,222.498972 C114,224.42983 112.430535,226 110.5,226 Z M83.0011802,226 C81.3442172,226 80,224.655213 80,223 C80,221.343616 81.3442172,220 83.0011802,220 C84.6557828,220 86,221.343616 86,223 C86,224.655213 84.6557828,226 83.0011802,226 Z M69.5,226 C68.1185204,226 67,224.87959 67,223.500625 C67,222.119161 68.1185204,221 69.5,221 C70.8802214,221 72,222.119161 72,223.500625 C72,224.87959 70.8802214,226 69.5,226 Z M54.999612,223 C54.4478075,223 54,222.552561 54,222.000385 C54,221.448209 54.4478075,221 54.999612,221 C55.5529686,221 56,221.448209 56,222.000385 C56,222.552561 55.5529686,223 54.999612,223 Z M42.5040286,223 C42.2282901,223 42,222.773619 42,222.499109 C42,222.222816 42.2282901,222 42.5040286,222 C42.778872,222 43,222.222816 43,222.499109 C43,222.773619 42.778872,223 42.5040286,223 Z M220.206,237.423 C220.093,237.423 220,237.322 220,237.208 C220,237.093 220.093,237 220.206,237 C220.327,237 220.42,237.093 220.42,237.208 C220.42,237.322 220.327,237.423 220.206,237.423 Z M206.997706,238 C206.448394,238 206,237.557714 206,237 C206,236.446857 206.448394,236 206.997706,236 C207.551606,236 208,236.446857 208,237 C208,237.557714 207.551606,238 206.997706,238 Z M192.496849,239 C191.673319,239 191,238.327083 191,237.497917 C191,236.66875 191.673319,236 192.496849,236 C193.326681,236 194,236.66875 194,237.497917 C194,238.327083 193.326681,239 192.496849,239 Z M178.497213,238 C177.675338,238 177,237.327354 177,236.498813 C177,235.66948 177.675338,235 178.497213,235 C179.324662,235 180,235.66948 180,236.498813 C180,237.327354 179.324662,238 178.497213,238 Z M165.49664,240 C164.117832,240 163,238.878505 163,237.497775 C163,236.117045 164.117832,235 165.49664,235 C166.876568,235 168,236.117045 168,237.497775 C168,238.878505 166.876568,240 165.49664,240 Z M151.496464,241 C150.116387,241 149,239.654239 149,237.996993 C149,236.34095 150.116387,235 151.496464,235 C152.877551,235 154,236.34095 154,237.996993 C154,239.654239 152.877551,241 151.496464,241 Z M137.99823,241 C136.343953,241 135,239.652488 135,237.998244 C135,236.342829 136.343953,235 137.99823,235 C139.654867,235 141,236.342829 141,237.998244 C141,239.652488 139.654867,241 137.99823,241 Z M124.997013,241 C123.345549,241 122,239.658488 122,237.997626 C122,236.341512 123.345549,235 124.997013,235 C126.656841,235 128,236.341512 128,237.997626 C128,239.658488 126.656841,241 124.997013,241 Z M110.5,240 C109.120505,240 108,238.880153 108,237.5 C108,236.120909 109.120505,235 110.5,235 C111.879495,235 113,236.120909 113,237.5 C113,238.880153 111.879495,240 110.5,240 Z M97.5,240 C96.1189416,240 95,238.881934 95,237.5 C95,236.121748 96.1189416,235 97.5,235 C98.8835312,235 100,236.121748 100,237.5 C100,238.881934 98.8835312,240 97.5,240 Z M82.5009363,238 C81.6741573,238 81,237.329926 81,236.5 C81,235.673792 81.6741573,235 82.5009363,235 C83.3277154,235 84,235.673792 84,236.5 C84,237.329926 83.3277154,238 82.5009363,238 Z M69.0004778,238 C68.4500717,238 68,237.555028 68,237 C68,236.448767 68.4500717,236 69.0004778,236 C69.5508839,236 70,236.448767 70,237 C70,237.555028 69.5508839,238 69.0004778,238 Z M54.42,237.843 C54.186,237.843 54,237.653 54,237.42 C54,237.186 54.186,237 54.42,237 C54.649,237 54.834,237.186 54.834,237.42 C54.834,237.653 54.649,237.843 54.42,237.843 Z M192.413,250.843 C192.185,250.843 192,250.653 192,250.42 C192,250.19 192.185,250 192.413,250 C192.646,250 192.832,250.19 192.832,250.42 C192.832,250.653 192.646,250.843 192.413,250.843 Z M178.995413,252 C178.447248,252 178,251.553276 178,250.998291 C178,250.450142 178.447248,250 178.995413,250 C179.551606,250 180,250.450142 180,250.998291 C180,251.553276 179.551606,252 178.995413,252 Z M164.997891,251 C164.445382,251 164,250.548765 164,249.996233 C164,249.444537 164.445382,249 164.997891,249 C165.549557,249 166,249.444537 166,249.996233 C166,250.548765 165.549557,251 164.997891,251 Z M152.5,252 C151.673711,252 151,251.328103 151,250.49572 C151,249.666548 151.673711,249 152.5,249 C153.326289,249 154,249.666548 154,250.49572 C154,251.328103 153.326289,252 152.5,252 Z M138.495388,252 C137.671336,252 137,251.328358 137,250.495929 C137,249.667571 137.671336,249 138.495388,249 C139.327639,249 140,249.667571 140,250.495929 C140,251.328358 139.327639,252 138.495388,252 Z M124.501047,252 C123.673534,252 123,251.327083 123,250.497917 C123,249.672917 123.673534,249 124.501047,249 C125.328561,249 126,249.672917 126,250.497917 C126,251.327083 125.328561,252 124.501047,252 Z M110,251 C109.448963,251 109,250.554765 109,249.998023 C109,249.448399 109.448963,249 110,249 C110.556619,249 111,249.448399 111,249.998023 C111,250.554765 110.556619,251 110,251 Z M96.9989744,252 C96.4512821,252 96,251.555216 96,250.999491 C96,250.448855 96.4512821,250 96.9989744,250 C97.5558974,250 98,250.448855 98,250.999491 C98,251.555216 97.5558974,252 96.9989744,252 Z M82.500846,251 C82.2225042,251 82,250.774707 82,250.498325 C82,250.221943 82.2225042,250 82.500846,250 C82.7774958,250 83,250.221943 83,250.498325 C83,250.774707 82.7774958,251 82.500846,251 Z M69.106,250.211 C69.048,250.211 69,250.164 69,250.103 C69,250.046 69.048,250 69.106,250 C69.163,250 69.213,250.046 69.213,250.103 C69.213,250.164 69.163,250.211 69.106,250.211 Z M166.2092,264.72 C166.1522,264.72 166.1082,264.674 166.1082,264.613 C166.1082,264.555 166.1522,264.509 166.2092,264.509 C166.2732,264.509 166.3152,264.555 166.3152,264.613 C166.3152,264.674 166.2732,264.72 166.2092,264.72 Z M152.6398,264.8963 C152.4838,264.8963 152.3628,264.7713 152.3628,264.6133 C152.3628,264.4613 152.4838,264.3333 152.6398,264.3333 C152.7968,264.3333 152.9248,264.4613 152.9248,264.6133 C152.9248,264.7713 152.7968,264.8963 152.6398,264.8963 Z M138.0705,264.9998 C137.8585,264.9998 137.6865,264.8278 137.6865,264.6128 C137.6865,264.4008 137.8585,264.2248 138.0705,264.2248 C138.2855,264.2248 138.4555,264.4008 138.4555,264.6128 C138.4555,264.8278 138.2855,264.9998 138.0705,264.9998 Z M124.5031,264.9324 C124.3311,264.9324 124.1901,264.7884 124.1901,264.6134 C124.1901,264.4404 124.3311,264.2974 124.5031,264.2974 C124.6731,264.2974 124.8161,264.4404 124.8161,264.6134 C124.8161,264.7884 124.6731,264.9324 124.5031,264.9324 Z M109.9338,264.7888 C109.8408,264.7888 109.7638,264.7098 109.7638,264.6128 C109.7638,264.5168 109.8408,264.4408 109.9338,264.4408 C110.0338,264.4408 110.1128,264.5168 110.1128,264.6128 C110.1128,264.7098 110.0338,264.7888 109.9338,264.7888 Z" id="Combined-Shape"></path>
                        </g>
                        <g id="Logo-S2" transform="translate(30.000000, 87.000000)">
                            <path d="M69.7137447,17.341234 C63.3173424,18.5275783 61.6492573,21.6089323 61.3064333,27.7624333 C61.2977679,27.9243675 61.3123907,27.7475397 61.2969555,27.8704797 L61.2685222,28.0237485 C61.1797021,28.5794159 61.2438801,46.5955474 61.2438801,47.1111373 C64.5191219,47.1111373 67.6884836,47.1707118 71.0081354,47.1707118 L100.599857,47.1707118 L100.599857,34.2744642 L73.7298762,34.2744642 C73.8771876,33.8200735 73.7797021,30.8938839 73.7797021,30.1762824 L75.347323,30.1762824 C87.4439188,30.1762824 99.5992766,30.1324139 111.689915,30.1762824 C116.231926,30.1933424 118.458928,27.4894739 118.710495,23.3893965 L118.710495,11.9521818 C118.703996,9.3122205 118.338967,7.55666925 116.799509,5.27117602 C114.725776,2.19388395 111.269373,0.277481625 107.108909,0.286688588 L75.2863946,0.286688588 C66.7921586,0.286688588 61.6779613,3.54811992 61.4274778,12.8336132 L106.180089,12.8336132 L106.180089,17.3071141 L70.0541315,17.3071141 C69.9674778,17.3244449 69.9065493,17.341234 69.7137447,17.341234" id="Fill-1" fill="#0078B4"></path>
                            <g id="Group-5" transform="translate(0.000000, 0.052805)">
                                <mask id="mask-2" fill="white">
                                    <use xlink:href="#path-1"></use>
                                </mask>
                                <g id="Clip-4"></g>
                                <path d="M43.3789865,34.2217408 L0.0112108317,34.2217408 C0.0112108317,36.2681238 -0.0933152805,36.8931141 0.560649903,38.8539265 C1.03859961,40.2853385 2.05353191,42.2848743 3.12885106,43.398646 C3.2517911,43.5248356 3.34819342,43.6001161 3.45515667,43.7347002 C3.69968279,44.0423211 4.47577563,44.7125338 4.8153501,44.9659961 C5.85979884,45.7447969 6.94432495,46.3004642 8.34026306,46.6839072 C9.84045648,47.096325 11.265911,47.0581431 13.1495474,47.0581431 L44.4291219,47.0581431 C45.2182128,47.0581431 46.2596828,47.117176 47.0176325,47.0548936 C52.7996054,46.5801934 57.6002244,41.6452611 57.6262205,35.7909865 C57.637323,33.2471567 57.6197215,30.6984526 57.6197215,28.1548936 C57.3483868,21.468472 51.8461431,17.2885106 45.6950793,17.2885106 L13.8018878,17.2885106 L12.6074197,17.2885106 L12.6074197,12.889207 L13.7520619,12.889207 L57.6281161,12.889207 C57.6281161,9.77725338 56.9874197,7.01408124 55.2353888,4.67578337 C53.4316364,2.26816248 50.6795667,0.693500967 47.6285416,0.349323017 C47.2914043,0.311411992 46.7771683,0.236131528 46.4208046,0.231257253 C43.841501,0.199574468 41.0588317,0.233965184 38.4627389,0.233965184 L11.9442476,0.233965184 C5.94753578,0.233965184 0.831172147,4.33268859 0.101384913,10.3491683 C-0.0437601547,11.5411992 0.0112108317,12.8347776 0.0112108317,14.8039845 L0.0112108317,17.322089 C0.0112108317,18.6952805 -0.0789632495,19.3124178 0.251404255,20.6639458 C1.6067234,26.2165571 5.64316441,29.7579884 11.561617,29.967853 C13.0339188,30.0209284 14.5747311,29.9432108 16.2233191,29.9432108 L45.0925648,29.9432108 L45.0925648,31.8111412 L45.0925648,34.2217408 L43.3789865,34.2217408 Z" id="Fill-3" fill="#0078B4" mask="url(#mask-2)"></path>
                            </g>
                            <path d="M104.878766,34.5154429 L104.878766,46.9900658 L105.060197,47.1706847 L118.74012,47.1706847 L118.680275,34.3350948 L105.060197,34.3350948 C104.920739,34.3350948 104.878766,34.3770677 104.878766,34.5154429" id="Fill-6" fill="#02ABE2"></path>
                            <g id="Group-10" transform="translate(127.543520, 34.443520)">
                                <mask id="mask-4" fill="white">
                                    <use xlink:href="#path-3"></use>
                                </mask>
                                <g id="Clip-9"></g>
                                <path d="M0.17731528,3.60915667 C0.803659574,3.60915667 3.69952031,3.51383752 4.0732147,3.66331528 L4.0732147,12.7272998 L8.30706383,12.7272998 L8.33251838,3.64625532 C8.86787621,3.51329594 11.4831954,3.60915667 12.2308549,3.60915667 L12.2308549,0.0709748549 L0.17731528,0.0709748549 L0.17731528,3.60915667 Z" id="Fill-8" fill="#050505" mask="url(#mask-4)"></path>
                            </g>
                            <path d="M122.718313,46.9901741 C122.718313,47.1285493 122.760557,47.170793 122.899745,47.170793 L127.05723,47.170793 L127.05723,34.4546228 L122.718313,34.4546228 L122.718313,46.9901741 Z" id="Fill-11" fill="#050505"></path>
                        </g>
                    </g>
                </g>
            </g>
        </g>
    </g>
</svg>