<?xml version="1.0" encoding="UTF-8"?>
<svg width="160px" height="163px" viewBox="0 0 160 163" version="1.1" xmlns="http://www.w3.org/2000/svg" xmlns:xlink="http://www.w3.org/1999/xlink">
    <!-- Generator: Sketch 46.2 (44496) - http://www.bohemiancoding.com/sketch -->
    <title>Combined Shape</title>
    <desc>Created with Sketch.</desc>
    <defs></defs>
    <g id="Page-1" stroke="none" stroke-width="1" fill="none" fill-rule="evenodd">
        <g id="Home" transform="translate(-306.000000, -1374.000000)" fill="#824BB0">
            <g id="BG" transform="translate(-6.000000, 0.000000)">
                <path d="M371.5,1536.5 C349.592705,1536.5 329.759372,1536.5 312,1536.5 C317.379459,1496.83333 337.212792,1477 371.5,1477 C405.787208,1477 425.620541,1496.83333 431,1536.5 C413.240628,1536.5 393.407295,1536.5 371.5,1536.5 Z M407,1474 C387.670034,1474 372,1458.32997 372,1439 C372,1419.67003 387.670034,1404 407,1404 C426.329966,1404 442,1419.67003 442,1439 C442,1458.32997 426.329966,1474 407,1474 Z M452,1414 C440.954305,1414 432,1405.04569 432,1394 C432,1382.95431 440.954305,1374 452,1374 C463.045695,1374 472,1382.95431 472,1394 C472,1405.04569 463.045695,1414 452,1414 Z" id="Combined-Shape"></path>
            </g>
        </g>
    </g>
</svg>