<svg width="578" height="578" xmlns="http://www.w3.org/2000/svg">
 <g>
  <title>background</title>
  <rect x="-1" y="-1" width="580" height="580" id="canvas_background" fill="none"/>
 </g>

 <g>
  <title>Layer 1</title>
  <ellipse stroke="#000" opacity="0.55" ry="264.294872" rx="266" id="svg_19" cy="290.794872" cx="290.5" stroke-opacity="null" stroke-width="0" fill="#000000"/>
  <ellipse fill="#2c3e50" stroke-width="null" stroke-opacity="null" cx="270.000006" cy="268.999992" id="svg_207" rx="264.500006" ry="265.999992" stroke="null"/>
  <ellipse fill="#1a91a1" stroke="null" stroke-width="null" stroke-opacity="null" cx="269.5" cy="268" id="svg_205" rx="250" ry="250"/>
  <g id="svg_4" stroke="null"/>
  <g id="svg_5" stroke="null"/>
  <g id="svg_6" stroke="null"/>
  <g id="svg_7" stroke="null"/>
  <g id="svg_8" stroke="null"/>
  <g id="svg_9" stroke="null"/>
  <g id="svg_10" stroke="null"/>
  <g id="svg_11" stroke="null"/>
  <g id="svg_12" stroke="null"/>
  <g id="svg_13" stroke="null"/>
  <g id="svg_14" stroke="null"/>
  <g id="svg_15" stroke="null"/>
  <g id="svg_16" stroke="null"/>
  <g id="svg_17" stroke="null"/>
  <g id="svg_18" stroke="null"/>
  <g id="svg_187" transform="matrix(2.976173516862351,0,0,2.976173516862351,75.75106624811437,347.61961882537275) " stroke="null"/>
  <g id="svg_188" transform="matrix(2.976173516862351,0,0,2.976173516862351,75.75106624811437,347.61961882537275) " stroke="null"/>
  <g id="svg_189" transform="matrix(2.976173516862351,0,0,2.976173516862351,75.75106624811437,347.61961882537275) " stroke="null"/>
  <g id="svg_190" transform="matrix(2.976173516862351,0,0,2.976173516862351,75.75106624811437,347.61961882537275) " stroke="null"/>
  <g id="svg_191" transform="matrix(2.976173516862351,0,0,2.976173516862351,75.75106624811437,347.61961882537275) " stroke="null"/>
  <g id="svg_192" transform="matrix(2.976173516862351,0,0,2.976173516862351,75.75106624811437,347.61961882537275) " stroke="null"/>
  <g id="svg_193" transform="matrix(2.976173516862351,0,0,2.976173516862351,75.75106624811437,347.61961882537275) " stroke="null"/>
  <g id="svg_194" transform="matrix(2.976173516862351,0,0,2.976173516862351,75.75106624811437,347.61961882537275) " stroke="null"/>
  <g id="svg_195" transform="matrix(2.976173516862351,0,0,2.976173516862351,75.75106624811437,347.61961882537275) " stroke="null"/>
  <g id="svg_196" transform="matrix(2.976173516862351,0,0,2.976173516862351,75.75106624811437,347.61961882537275) " stroke="null"/>
  <g id="svg_197" transform="matrix(2.976173516862351,0,0,2.976173516862351,75.75106624811437,347.61961882537275) " stroke="null"/>
  <g id="svg_198" transform="matrix(2.976173516862351,0,0,2.976173516862351,75.75106624811437,347.61961882537275) " stroke="null"/>
  <g id="svg_199" transform="matrix(2.976173516862351,0,0,2.976173516862351,75.75106624811437,347.61961882537275) " stroke="null"/>
  <g id="svg_200" transform="matrix(2.976173516862351,0,0,2.976173516862351,75.75106624811437,347.61961882537275) " stroke="null"/>
  <g id="svg_201" transform="matrix(2.976173516862351,0,0,2.976173516862351,75.75106624811437,347.61961882537275) " stroke="null"/>
  <g id="svg_204">
   <g id="svg_2" stroke="null">
    <path d="m428.414233,187.770109l-148.973301,0l-29.478649,-41.270109l-107.703192,0c-5.636318,0 -10.211404,4.569191 -10.211404,10.211404l0,251.912743c0.406805,0.011791 0.813611,0.035374 1.208625,0.058957l59.045734,-161.035964c1.084814,-4.026783 4.734271,-6.815464 8.902552,-6.815464l237.421039,0l0,-42.850164c0,-5.642213 -4.575086,-10.211404 -10.211404,-10.211404l0,0.000001z" fill="#EBBA16" id="svg_3" stroke="null"/>
   </g>
   <g id="svg_203" transform="rotate(-5.026062488555908 251.84970092773432,251.8139038085934) ">
    <path d="m190.866423,168.481045c-2.404748,0 -4.354142,1.949394 -4.354142,5.73211l0,157.957433c0,1.02678 1.949394,2.976174 4.354142,2.976174l119.267178,0c2.404748,0 4.354142,-1.949394 4.354142,-2.976174l0,-125.064764c0,-2.071417 2.699389,-2.73808 -0.764877,-3.229148l-34.630755,-34.630755l-88.225688,-0.764877l0,0.000001z" fill="#dbdbd9" id="svg_179" stroke="null"/>
    <polygon points="278.7736511230469,169.93045043945312 278.7736511230469,205.19512939453125 314.038330078125,205.19512939453125 " fill="#b5b3ab" id="svg_180" stroke="null"/>
    <path d="m226.244201,267.659048l0,0c-1.035708,0 -2.02975,-0.336308 -2.87796,-0.970233c-3.098197,-2.324392 -3.514861,-4.910686 -3.318433,-6.672581c0.541664,-4.84521 6.532701,-9.91661 17.812398,-15.083247c4.476165,-9.809468 8.735069,-21.895709 11.273745,-31.993865c-2.970221,-6.464249 -5.857109,-14.851106 -3.752955,-19.770721c0.738091,-1.723204 1.657729,-3.044626 3.374981,-3.616051c0.678568,-0.226189 2.392844,-0.511902 3.023792,-0.511902c1.499991,0 2.818436,1.931537 3.752955,3.122006c0.877971,1.119041 2.869031,3.491052 -1.110113,20.243932c4.011882,8.285667 9.696373,16.726095 15.142771,22.505824c3.901763,-0.705353 7.258887,-1.06547 9.993991,-1.06547c4.660688,0 7.485076,1.086303 8.636856,3.324386c0.952376,1.85118 0.562497,4.014858 -1.160708,6.428535c-1.657729,2.318439 -3.94343,3.544623 -6.607105,3.544623c-3.619027,0 -7.833289,-2.285701 -12.532667,-6.800556c-8.443404,1.764871 -18.303467,4.913662 -26.27366,8.398762c-2.488081,5.279732 -4.871996,9.532684 -7.092221,12.651714c-3.050578,4.270809 -5.681515,6.264845 -8.285667,6.264845l0,-0.000001zm7.922574,-15.255865c-6.360083,3.574384 -8.95233,6.511868 -9.139829,8.16662c-0.029762,0.273808 -0.110118,0.994042 1.282731,2.059512c0.44345,-0.13988 3.032721,-1.321421 7.857098,-10.226132zm40.586078,-13.220163c2.425581,1.866061 3.01784,2.809508 4.60414,2.809508c0.696425,0 2.681532,-0.029762 3.60117,-1.312493c0.44345,-0.62202 0.616068,-1.020828 0.68452,-1.235112c-0.366069,-0.193451 -0.851186,-0.586306 -3.497004,-0.586306c-1.502968,0.002976 -3.392838,0.068452 -5.392826,0.324403zm-22.232016,-19.589174c-2.127964,7.363053 -4.937472,15.312413 -7.958288,22.511776c6.220203,-2.413677 12.982069,-4.520808 19.333223,-6.011871c-4.017834,-4.66664 -8.032692,-10.493988 -11.374935,-16.499906l0,0.000001zm-1.806537,-25.18438c-0.291665,0.098214 -3.958311,5.229137 0.285713,9.571374c2.824389,-6.294607 -0.157737,-9.61304 -0.285713,-9.571374z" fill="#CC4B4C" id="svg_181" stroke="null"/>
    <path d="m311.133599,335.146759l-119.267178,0c-2.404748,0 -4.354142,-1.949394 -4.354142,-4.354142l0,-46.240808l127.975461,0l0,46.240808c0,2.404748 -1.949394,4.354142 -4.354142,4.354142l0.000001,0z" fill="#CC4B4C" id="svg_182" stroke="null"/>
    <g id="svg_183" stroke="null" transform="matrix(2.976173516862351,0,0,2.976173516862351,75.75106624811437,347.61961882537275) ">
     <path d="m48.43698,-7.190904l-1.641,0l0,-10.076l2.898,0c0.428,0 0.852,0.068 1.271,0.205c0.419,0.137 0.795,0.342 1.128,0.615c0.333,0.273 0.602,0.604 0.807,0.991s0.308,0.822 0.308,1.306c0,0.511 -0.087,0.973 -0.26,1.388c-0.173,0.415 -0.415,0.764 -0.725,1.046c-0.31,0.282 -0.684,0.501 -1.121,0.656s-0.921,0.232 -1.449,0.232l-1.217,0l0,3.637l0.001,0zm0,-8.832l0,3.992l1.504,0c0.2,0 0.398,-0.034 0.595,-0.103c0.196,-0.068 0.376,-0.18 0.54,-0.335c0.164,-0.155 0.296,-0.371 0.396,-0.649c0.1,-0.278 0.15,-0.622 0.15,-1.032c0,-0.164 -0.023,-0.354 -0.068,-0.567c-0.046,-0.214 -0.139,-0.419 -0.28,-0.615c-0.142,-0.196 -0.34,-0.36 -0.595,-0.492c-0.255,-0.132 -0.593,-0.198 -1.012,-0.198l-1.23,0l0,-0.001z" fill="#FFFFFF" id="svg_184" stroke="null"/>
     <path d="m63.27098,-12.508904c0,0.829 -0.089,1.538 -0.267,2.126s-0.403,1.08 -0.677,1.477s-0.581,0.709 -0.923,0.937s-0.672,0.398 -0.991,0.513c-0.319,0.114 -0.611,0.187 -0.875,0.219c-0.264,0.03 -0.46,0.046 -0.588,0.046l-3.814,0l0,-10.076l3.035,0c0.848,0 1.593,0.135 2.235,0.403s1.176,0.627 1.6,1.073s0.74,0.955 0.95,1.524c0.21,0.57 0.315,1.156 0.315,1.758zm-4.867,4.115c1.112,0 1.914,-0.355 2.406,-1.066s0.738,-1.741 0.738,-3.09c0,-0.419 -0.05,-0.834 -0.15,-1.244c-0.101,-0.41 -0.294,-0.781 -0.581,-1.114s-0.677,-0.602 -1.169,-0.807s-1.13,-0.308 -1.914,-0.308l-0.957,0l0,7.629l1.627,0z" fill="#FFFFFF" id="svg_185" stroke="null"/>
     <path d="m67.31798,-16.022904l0,3.172l4.211,0l0,1.121l-4.211,0l0,4.539l-1.668,0l0,-10.076l6.302,0l0,1.244l-4.634,0z" fill="#FFFFFF" id="svg_186" stroke="null"/>
    </g>
   </g>
   <g id="svg_52" stroke="null" transform="rotate(-35.013118743896484 164.49999999999997,285.09295654296875) ">
    <g id="svg_24" transform="matrix(3.39477836164987,0,0,3.39477836164987,32.453322269293494,372.04628290775145) " stroke="null">
     <path d="m47.881996,-53.613844l-29.022,0c-0.808,0 -1.463,0.655 -1.463,1.926l0,53.074c0,0.345 0.655,1 1.463,1l40.074,0c0.808,0 1.463,-0.655 1.463,-1l0,-42.022c0,-0.696 -0.093,-0.92 -0.257,-1.085l-11.636,-11.636c-0.165,-0.164 -0.389,-0.257 -0.622,-0.257z" fill="#E9E9E0" id="svg_25" stroke="null"/>
     <polygon points="48.396996438503265,-53.46284484863283 48.396996438503265,-41.613838195800795 60.245995461940765,-41.613838195800795 " fill="#D9D7CA" id="svg_26" stroke="null"/>
     <path d="m58.933996,2.386156l-40.074,0c-0.808,0 -1.463,-0.655 -1.463,-1.463l0,-15.537l43,0l0,15.537c0,0.808 -0.655,1.463 -1.463,1.463z" fill="#F29C1F" id="svg_27" stroke="null"/>
     <g id="svg_28" stroke="null">
      <path d="m30.275996,-5.508844l2.557,4.895l-1.9,0l-1.6,-3.801l-0.137,0l-1.723,3.801l-1.9,0l2.557,-4.895l-2.721,-5.182l1.873,0l1.777,4.102l0.137,0l1.928,-4.102l1.873,0l-2.721,5.182z" fill="#FFFFFF" id="svg_29" stroke="null"/>
      <path d="m42.894996,-10.689844l1.668,0l0,10.076l-1.668,0l0,-6.932l-2.256,5.605l-1.449,0l-2.27,-5.605l0,6.932l-1.668,0l0,-10.076l1.668,0l2.994,6.891l2.981,-6.891z" fill="#FFFFFF" id="svg_30" stroke="null"/>
      <path d="m48.759996,-10.689844l0,8.832l4.635,0l0,1.244l-6.303,0l0,-10.076l1.668,0z" fill="#FFFFFF" id="svg_31" stroke="null"/>
     </g>
     <path d="m26.396996,-29.613844c-0.256,0 -0.512,-0.098 -0.707,-0.293c-0.391,-0.391 -0.391,-1.023 0,-1.414l6,-6c0.391,-0.391 1.023,-0.391 1.414,0s0.391,1.023 0,1.414l-6,6c-0.195,0.195 -0.451,0.293 -0.707,0.293z" fill="#F29C1F" id="svg_32" stroke="null"/>
     <path d="m32.396996,-23.613844c-0.256,0 -0.512,-0.098 -0.707,-0.293l-6,-6c-0.391,-0.391 -0.391,-1.023 0,-1.414s1.023,-0.391 1.414,0l6,6c0.391,0.391 0.391,1.023 0,1.414c-0.195,0.195 -0.451,0.293 -0.707,0.293z" fill="#F29C1F" id="svg_33" stroke="null"/>
     <path d="m44.396996,-23.613844c-0.256,0 -0.512,-0.098 -0.707,-0.293c-0.391,-0.391 -0.391,-1.023 0,-1.414l6,-6c0.391,-0.391 1.023,-0.391 1.414,0s0.391,1.023 0,1.414l-6,6c-0.195,0.195 -0.451,0.293 -0.707,0.293z" fill="#F29C1F" id="svg_34" stroke="null"/>
     <path d="m50.396996,-29.613844c-0.256,0 -0.512,-0.098 -0.707,-0.293l-6,-6c-0.391,-0.391 -0.391,-1.023 0,-1.414s1.023,-0.391 1.414,0l6,6c0.391,0.391 0.391,1.023 0,1.414c-0.195,0.195 -0.451,0.293 -0.707,0.293z" fill="#F29C1F" id="svg_35" stroke="null"/>
     <path d="m35.396996,-21.613844c-0.11,0 -0.223,-0.019 -0.333,-0.058c-0.521,-0.184 -0.794,-0.755 -0.61,-1.276l6,-17c0.185,-0.521 0.753,-0.795 1.276,-0.61c0.521,0.184 0.794,0.755 0.61,1.276l-6,17c-0.145,0.412 -0.531,0.668 -0.943,0.668z" fill="#F29C1F" id="svg_36" stroke="null"/>
    </g>
    <g id="svg_37" transform="matrix(3.39477836164987,0,0,3.39477836164987,32.453322269293494,372.04628290775145) " stroke="null"/>
    <g id="svg_38" transform="matrix(3.39477836164987,0,0,3.39477836164987,32.453322269293494,372.04628290775145) " stroke="null"/>
    <g id="svg_39" transform="matrix(3.39477836164987,0,0,3.39477836164987,32.453322269293494,372.04628290775145) " stroke="null"/>
    <g id="svg_40" transform="matrix(3.39477836164987,0,0,3.39477836164987,32.453322269293494,372.04628290775145) " stroke="null"/>
    <g id="svg_41" transform="matrix(3.39477836164987,0,0,3.39477836164987,32.453322269293494,372.04628290775145) " stroke="null"/>
    <g id="svg_42" transform="matrix(3.39477836164987,0,0,3.39477836164987,32.453322269293494,372.04628290775145) " stroke="null"/>
    <g id="svg_43" transform="matrix(3.39477836164987,0,0,3.39477836164987,32.453322269293494,372.04628290775145) " stroke="null"/>
    <g id="svg_44" transform="matrix(3.39477836164987,0,0,3.39477836164987,32.453322269293494,372.04628290775145) " stroke="null"/>
    <g id="svg_45" transform="matrix(3.39477836164987,0,0,3.39477836164987,32.453322269293494,372.04628290775145) " stroke="null"/>
    <g id="svg_46" transform="matrix(3.39477836164987,0,0,3.39477836164987,32.453322269293494,372.04628290775145) " stroke="null"/>
    <g id="svg_47" transform="matrix(3.39477836164987,0,0,3.39477836164987,32.453322269293494,372.04628290775145) " stroke="null"/>
    <g id="svg_48" transform="matrix(3.39477836164987,0,0,3.39477836164987,32.453322269293494,372.04628290775145) " stroke="null"/>
    <g id="svg_49" transform="matrix(3.39477836164987,0,0,3.39477836164987,32.453322269293494,372.04628290775145) " stroke="null"/>
    <g id="svg_50" transform="matrix(3.39477836164987,0,0,3.39477836164987,32.453322269293494,372.04628290775145) " stroke="null"/>
    <g id="svg_51" transform="matrix(3.39477836164987,0,0,3.39477836164987,32.453322269293494,372.04628290775145) " stroke="null"/>
   </g>
   <g id="svg_143" transform="rotate(20.37662124633789 357.27905273437506,247.81393432617188) " stroke="null">
    <g id="svg_116" transform="matrix(3.5237119143866615,0,0,3.5237119143866615,61.6179294049939,38.64467969970468) " stroke="null">
     <path d="m92.891159,31.360488l-29.022,0c-0.808,0 -1.463,0.655 -1.463,1.926l0,53.074c0,0.345 0.655,1 1.463,1l40.074,0c0.808,0 1.463,-0.655 1.463,-1l0,-42.022c0,-0.696 -0.093,-0.92 -0.257,-1.085l-11.636,-11.636c-0.165,-0.164 -0.389,-0.257 -0.622,-0.257z" fill="#E9E9E0" id="svg_117" stroke="null"/>
     <polygon points="93.40615740418434,31.511489868164062 93.40615740418434,43.36049270629883 105.25515642762184,43.36049270629883 " fill="#D9D7CA" id="svg_118" stroke="null"/>
     <path d="m103.943159,87.360488l-40.074,0c-0.808,0 -1.463,-0.655 -1.463,-1.463l0,-15.537l43,0l0,15.537c0,0.808 -0.655,1.463 -1.463,1.463z" fill="#EEAF4B" id="svg_119" stroke="null"/>
     <g id="svg_120" stroke="null">
      <path d="m81.927159,74.079488l0,7.848c0,0.474 -0.087,0.873 -0.26,1.196c-0.174,0.323 -0.406,0.583 -0.697,0.779c-0.292,0.196 -0.627,0.333 -1.005,0.41s-0.769,0.116 -1.169,0.116c-0.201,0 -0.436,-0.021 -0.704,-0.062s-0.547,-0.104 -0.834,-0.191s-0.563,-0.185 -0.827,-0.294c-0.265,-0.109 -0.488,-0.232 -0.67,-0.369l0.697,-1.107c0.091,0.063 0.221,0.13 0.39,0.198s0.353,0.132 0.554,0.191c0.2,0.06 0.41,0.111 0.629,0.157s0.424,0.068 0.615,0.068c0.482,0 0.868,-0.094 1.155,-0.28s0.439,-0.504 0.458,-0.95l0,-7.711l1.668,0l0,0.001z" fill="#FFFFFF" id="svg_121" stroke="null"/>
      <path d="m90.090159,81.598488c0,0.364 -0.075,0.718 -0.226,1.06s-0.362,0.643 -0.636,0.902s-0.611,0.467 -1.012,0.622c-0.401,0.155 -0.857,0.232 -1.367,0.232c-0.219,0 -0.444,-0.012 -0.677,-0.034s-0.468,-0.062 -0.704,-0.116c-0.237,-0.055 -0.463,-0.13 -0.677,-0.226s-0.399,-0.212 -0.554,-0.349l0.287,-1.176c0.127,0.073 0.289,0.144 0.485,0.212s0.398,0.132 0.608,0.191c0.209,0.06 0.419,0.107 0.629,0.144c0.209,0.036 0.405,0.055 0.588,0.055c0.556,0 0.982,-0.13 1.278,-0.39s0.444,-0.645 0.444,-1.155c0,-0.31 -0.105,-0.574 -0.314,-0.793c-0.21,-0.219 -0.472,-0.417 -0.786,-0.595s-0.654,-0.355 -1.019,-0.533c-0.365,-0.178 -0.707,-0.388 -1.025,-0.629c-0.319,-0.241 -0.584,-0.526 -0.793,-0.854c-0.21,-0.328 -0.314,-0.738 -0.314,-1.23c0,-0.446 0.082,-0.843 0.246,-1.189s0.385,-0.641 0.663,-0.882s0.602,-0.426 0.971,-0.554s0.759,-0.191 1.169,-0.191c0.419,0 0.843,0.039 1.271,0.116c0.428,0.077 0.774,0.203 1.039,0.376c-0.055,0.118 -0.119,0.248 -0.191,0.39c-0.073,0.142 -0.142,0.273 -0.205,0.396c-0.064,0.123 -0.119,0.226 -0.164,0.308c-0.046,0.082 -0.073,0.128 -0.082,0.137c-0.055,-0.027 -0.116,-0.063 -0.185,-0.109s-0.167,-0.091 -0.294,-0.137c-0.128,-0.046 -0.297,-0.077 -0.506,-0.096c-0.21,-0.019 -0.479,-0.014 -0.807,0.014c-0.183,0.019 -0.355,0.07 -0.52,0.157s-0.311,0.193 -0.438,0.321c-0.128,0.128 -0.229,0.271 -0.301,0.431c-0.073,0.159 -0.109,0.313 -0.109,0.458c0,0.364 0.104,0.658 0.314,0.882c0.209,0.224 0.469,0.419 0.779,0.588c0.31,0.169 0.646,0.333 1.012,0.492c0.364,0.159 0.704,0.354 1.019,0.581s0.576,0.513 0.786,0.854c0.212,0.342 0.318,0.781 0.318,1.319z" fill="#FFFFFF" id="svg_122" stroke="null"/>
     </g>
     <g id="svg_123" stroke="null">
      <path d="m75.406159,50.360488l0,-4c0,-0.551 0.448,-1 1,-1c0.553,0 1,-0.448 1,-1s-0.447,-1 -1,-1c-1.654,0 -3,1.346 -3,3l0,4c0,1.103 -0.897,2 -2,2c-0.553,0 -1,0.448 -1,1s0.447,1 1,1c1.103,0 2,0.897 2,2l0,4c0,1.654 1.346,3 3,3c0.553,0 1,-0.448 1,-1s-0.447,-1 -1,-1c-0.552,0 -1,-0.449 -1,-1l0,-4c0,-1.2 -0.542,-2.266 -1.382,-3c0.84,-0.734 1.382,-1.8 1.382,-3z" fill="#EEAF4B" id="svg_124" stroke="null"/>
      <circle cx="83.406159" cy="49.860488" r="1.5" fill="#EEAF4B" id="svg_125" stroke="null"/>
      <path d="m95.406159,52.360488c-1.103,0 -2,-0.897 -2,-2l0,-4c0,-1.654 -1.346,-3 -3,-3c-0.553,0 -1,0.448 -1,1s0.447,1 1,1c0.552,0 1,0.449 1,1l0,4c0,1.2 0.542,2.266 1.382,3c-0.84,0.734 -1.382,1.8 -1.382,3l0,4c0,0.551 -0.448,1 -1,1c-0.553,0 -1,0.448 -1,1s0.447,1 1,1c1.654,0 3,-1.346 3,-3l0,-4c0,-1.103 0.897,-2 2,-2c0.553,0 1,-0.448 1,-1s-0.447,-1 -1,-1z" fill="#EEAF4B" id="svg_126" stroke="null"/>
      <path d="m83.406159,55.360488c-0.553,0 -1,0.448 -1,1l0,3c0,0.552 0.447,1 1,1s1,-0.448 1,-1l0,-3c0,-0.552 -0.447,-1 -1,-1z" fill="#EEAF4B" id="svg_127" stroke="null"/>
     </g>
    </g>
    <g id="svg_128" transform="matrix(3.5237119143866615,0,0,3.5237119143866615,61.6179294049939,38.64467969970468) " stroke="null"/>
    <g id="svg_129" transform="matrix(3.5237119143866615,0,0,3.5237119143866615,61.6179294049939,38.64467969970468) " stroke="null"/>
    <g id="svg_130" transform="matrix(3.5237119143866615,0,0,3.5237119143866615,61.6179294049939,38.64467969970468) " stroke="null"/>
    <g id="svg_131" transform="matrix(3.5237119143866615,0,0,3.5237119143866615,61.6179294049939,38.64467969970468) " stroke="null"/>
    <g id="svg_132" transform="matrix(3.5237119143866615,0,0,3.5237119143866615,61.6179294049939,38.64467969970468) " stroke="null"/>
    <g id="svg_133" transform="matrix(3.5237119143866615,0,0,3.5237119143866615,61.6179294049939,38.64467969970468) " stroke="null"/>
    <g id="svg_134" transform="matrix(3.5237119143866615,0,0,3.5237119143866615,61.6179294049939,38.64467969970468) " stroke="null"/>
    <g id="svg_135" transform="matrix(3.5237119143866615,0,0,3.5237119143866615,61.6179294049939,38.64467969970468) " stroke="null"/>
    <g id="svg_136" transform="matrix(3.5237119143866615,0,0,3.5237119143866615,61.6179294049939,38.64467969970468) " stroke="null"/>
    <g id="svg_137" transform="matrix(3.5237119143866615,0,0,3.5237119143866615,61.6179294049939,38.64467969970468) " stroke="null"/>
    <g id="svg_138" transform="matrix(3.5237119143866615,0,0,3.5237119143866615,61.6179294049939,38.64467969970468) " stroke="null"/>
    <g id="svg_139" transform="matrix(3.5237119143866615,0,0,3.5237119143866615,61.6179294049939,38.64467969970468) " stroke="null"/>
    <g id="svg_140" transform="matrix(3.5237119143866615,0,0,3.5237119143866615,61.6179294049939,38.64467969970468) " stroke="null"/>
    <g id="svg_141" transform="matrix(3.5237119143866615,0,0,3.5237119143866615,61.6179294049939,38.64467969970468) " stroke="null"/>
    <g id="svg_142" transform="matrix(3.5237119143866615,0,0,3.5237119143866615,61.6179294049939,38.64467969970468) " stroke="null"/>
   </g>
   <path d="m404.161475,420.599301l-263.88697,0c-6.072602,0 -10.488503,-5.766024 -8.902552,-11.632275l59.935989,-164.319885c1.084814,-4.020888 4.734271,-6.815464 8.902552,-6.815464l263.88697,0c6.072602,0 8.902552,5.801398 8.902552,11.632275l-59.935989,164.319885c-1.084814,4.020888 -4.734271,6.815464 -8.902552,6.815464z" fill="#EFCE4A" id="svg_1" stroke="null"/>
  </g>
  <ellipse fill="#1a91a1" stroke="null" stroke-width="null" stroke-opacity="null" cx="340.5" cy="633" id="svg_206"/>
 </g>
</svg>