<svg width="438.533" height="438.533" xmlns="http://www.w3.org/2000/svg">

 <g>
  <title>background</title>
  <rect fill="none" id="canvas_background" height="402" width="582" y="-1" x="-1"/>
 </g>
 <g>
  <title>Layer 1</title>
  <g id="svg_1">
   <path id="svg_2" fill="#34495e" d="m409.133,109.203c-19.608,-33.592 -46.205,-60.189 -79.798,-79.796c-33.599,-19.606 -70.277,-29.407 -110.062,-29.407c-39.781,0 -76.47,9.801 -110.063,29.407c-33.595,19.604 -60.192,46.201 -79.8,79.796c-19.609,33.597 -29.41,70.286 -29.41,110.064c0,39.78 9.804,76.463 29.407,110.062c19.607,33.592 46.204,60.189 79.799,79.798c33.597,19.605 70.283,29.407 110.063,29.407s76.47,-9.802 110.065,-29.407c33.593,-19.602 60.189,-46.206 79.795,-79.798c19.603,-33.596 29.403,-70.284 29.403,-110.062c0.001,-39.782 -9.8,-76.472 -29.399,-110.064z"/>
  </g>
  <g id="svg_3"/>
  <g id="svg_4"/>
  <g id="svg_5"/>
  <g id="svg_6"/>
  <g id="svg_7"/>
  <g id="svg_8"/>
  <g id="svg_9"/>
  <g id="svg_10"/>
  <g id="svg_11"/>
  <g id="svg_12"/>
  <g id="svg_13"/>
  <g id="svg_14"/>
  <g id="svg_15"/>
  <g id="svg_16"/>
  <g id="svg_17"/>
  <g stroke="null" id="svg_109">
   <g stroke="null" transform="matrix(0.9788088518894763,0,0,0.9788088518894763,-1321.686775647305,-2069.941369417197) " id="svg_107">
    <title stroke="null" transform="translate(0,1.021649956703186) translate(0,1.021649956703186) translate(-8.173199653625488,-1.021649956703186) translate(-41.89561462402344,24.08997917175293) translate(-279.03167724609375,338.53106689453125) translate(1683.3984375,0) translate(0,1754.6314697265625) ">background</title>
    <rect stroke="null" x="1353.297946" y="2117.274166" width="582" height="402" id="svg_105" fill="none"/>
   </g>
   <g stroke="null" transform="matrix(0.9788088518894763,0,0,0.9788088518894763,-1321.686775647305,-2069.941369417197) " id="svg_108">
    <title stroke="null" transform="translate(0,1.021649956703186) translate(0,1.021649956703186) translate(-8.173199653625488,-1.021649956703186) translate(-41.89561462402344,24.08997917175293) translate(-279.03167724609375,338.53106689453125) translate(1683.3984375,0) translate(0,1754.6314697265625) ">Layer 1</title>
    <g stroke="null" id="svg_103">
     <path stroke="null" d="m1763.430946,2227.477166c-19.608,-33.592 -46.205,-60.189 -79.798,-79.796c-33.599,-19.606 -70.277,-29.407 -110.062,-29.407c-39.781,0 -76.47,9.801 -110.063,29.407c-33.595,19.604 -60.192,46.201 -79.8,79.796c-19.609,33.597 -29.41,70.286 -29.41,110.064c0,39.78 9.804,76.463 29.407,110.062c19.607,33.592 46.204,60.189 79.799,79.798c33.597,19.605 70.283,29.407 110.063,29.407s76.47,-9.802 110.065,-29.407c33.593,-19.602 60.189,-46.206 79.795,-79.798c19.603,-33.596 29.403,-70.284 29.403,-110.062c0.001,-39.782 -9.8,-76.472 -29.399,-110.064z" fill="#34495e" id="svg_104"/>
    </g>
    <g stroke="null" id="svg_102"/>
    <g stroke="null" id="svg_101"/>
    <g stroke="null" id="svg_100"/>
    <g stroke="null" id="svg_99"/>
    <g stroke="null" id="svg_98"/>
    <g stroke="null" id="svg_97"/>
    <g stroke="null" id="svg_96"/>
    <g stroke="null" id="svg_95"/>
    <g stroke="null" id="svg_94"/>
    <g stroke="null" id="svg_93"/>
    <g stroke="null" id="svg_92"/>
    <g stroke="null" id="svg_91"/>
    <g stroke="null" id="svg_90"/>
    <g stroke="null" id="svg_89"/>
    <g stroke="null" id="svg_88"/>
    <g stroke="null" id="svg_63">
     <g stroke="null" id="svg_86" transform="matrix(0.8199142334381422,0,0,0.8199142334381422,-1674.1918607027083,-2213.685984783336) ">
      <title stroke="null" transform="translate(0,1.2460448741912842) translate(0,1.2460448741912842) translate(-9.968358993530273,-1.2460448741912842) translate(-51.097557067871094,29.38109588623047) translate(-340.318115234375,412.8859558105469) translate(2053.1396484375,-4.547473508864641e-13) translate(0,2140.018310546875) ">background</title>
      <rect stroke="null" fill="none" id="svg_87" height="402" width="582" y="5296.580291" x="3704.852445"/>
     </g>
     <g stroke="null" id="svg_64" transform="matrix(0.8199142334381422,0,0,0.8199142334381422,-1674.1918607027083,-2213.685984783336) ">
      <title stroke="null" transform="translate(0,1.2460448741912842) translate(0,1.2460448741912842) translate(-9.968358993530273,-1.2460448741912842) translate(-51.097557067871094,29.38109588623047) translate(-340.318115234375,412.8859558105469) translate(2053.1396484375,-4.547473508864641e-13) translate(0,2140.018310546875) ">Layer 1</title>
      <circle stroke="null" id="svg_85" fill="#1a91a1" r="254" cy="5550.580291" cx="3959.852445"/>
      <path stroke="null" id="svg_84" fill="#F9B54C" d="m4127.052447,5615.180287l-10.4,-14.4c-12,-16.8 -26,-32 -42,-45.2l-36.8,-32c-4.8,-4.4 -12.4,-3.6 -16.4,1.6c-3.6,4.8 -2.8,11.6 1.6,15.6l28.4,23.6c0.4,0.4 0.4,1.2 0,1.6s-1.2,0.4 -2,0l-45.6,-37.6c-4,-3.2 -10,-4 -14,-1.2c3.2,-4 3.6,-9.6 0.4,-14l0,0c0,-0.4 -0.4,-0.4 -0.8,-0.8c-4,-4.4 -11.2,-4.8 -16,-1.2l-60,42.4c-0.4,0.4 -1.2,0.4 -1.6,-0.4c-0.4,-0.4 -0.4,-1.2 0.4,-1.6l54.4,-38.8c5.6,-4 6.8,-12 2.8,-17.6c-4,-5.2 -11.2,-6.4 -16.8,-2.8l-62.8,43.6c7.2,-12 12,-24.8 10.8,-36c-0.4,-5.6 -8,-8.4 -13.6,-6.4c-2.4,0.8 -5.2,2.8 -6.8,6.4c0,0 -2,17.2 -24.8,30.8c-23.2,13.6 -29.2,56.8 -29.2,56.8c-3.6,16 -53.2,49.2 -53.2,49.2l38.4,50c23.2,-15.2 62,-29.6 62,-29.6l16.8,-6.4c19.2,-7.2 37.6,-16.8 54.8,-28.4l28,-19.2l33.2,28c-13.6,-4 -27.2,-4.8 -37.6,-0.8c-5.2,2 -6,10 -2.8,14.8c1.2,2 4,4.4 8,5.2c0,0 17.2,-2.4 36.4,16c19.2,18.4 62.4,13.2 62.4,13.2c16.4,-0.8 61.2,38.4 61.2,38.4l38.4,-50c-20.8,-19.2 -45.2,-52.8 -45.2,-52.8zm-185.6,-17.6c-0.4,0.4 -1.2,0.4 -1.6,-0.4c-0.4,-0.4 0,-1.2 0.4,-1.6l12.8,-9.2l2,1.6l-13.6,9.6zm-10,-25.2c-0.4,0.4 -1.2,0.4 -1.6,-0.4c-0.4,-0.4 -0.4,-1.2 0.4,-1.6l26.8,-18.8c0.4,0.8 0.8,1.6 1.2,2l-26.8,18.8zm85.6,32.8c-0.4,0.4 -1.2,0.4 -1.6,0l-25.6,-20.8c-0.4,-2 -0.8,-3.6 -2,-5.2l29.2,24.4c0.4,0 0.4,0.8 0,1.6zm13.6,-22.4c-0.4,0.4 -1.2,0.4 -1.6,0l-35.2,-29.2c0.4,-0.8 0.4,-2 0.4,-3.2l36.4,30.4c0.4,0.8 0.4,1.6 0,2z"/>
      <path stroke="null" id="svg_83" fill="#FF7058" d="m3723.852447,5645.580287c12.8,32.4 32.4,61.6 56.4,85.6l76.8,-48.8l-52,-88.4l-81.2,51.6z"/>
      <path stroke="null" id="svg_82" fill="#4CDBC4" d="m4155.852447,5623.980287l-71.6,73.6l46.4,42c25.6,-23.2 46.4,-51.6 60.8,-83.6l-35.6,-32z"/>
      <path stroke="null" id="svg_81" fill="#FFD05B" d="m3926.652447,5553.180287c6,-0.4 10.8,-5.6 10.8,-11.6l-0.8,-36.8c0,-0.8 0.4,-1.2 1.2,-1.2s1.2,0.4 1.2,1.2l1.6,58.8c0,6 4.4,11.2 10,12c7.2,0.8 13.6,-4.8 13.2,-12l-1.2,-53.6c0,-0.8 0.4,-1.2 1.2,-1.2c0.8,0 1.2,0.4 1.2,1.2l1.6,70c0,6.8 5.6,12 12.4,12l0,0c0.4,0 0.8,0 1.2,0c6,-1.2 10,-6.8 10,-12.8l-2,-73.6c0,-0.8 0.4,-1.2 1.2,-1.2c0.8,0 1.2,0.4 1.2,1.2l2,66.8c0,6.8 6,12.4 13.2,12c6.4,-0.4 11.6,-6 11.6,-12.4l-1.2,-76c6,12.8 14,23.6 24,28.8c5.2,2.8 11.2,-2 12.8,-7.6c0.8,-2.4 0.4,-6 -1.6,-9.2c0,0 -13.2,-11.6 -12,-38s-31.2,-55.6 -31.2,-55.6c-11.2,-12 -11.6,-71.2 -11.6,-71.2l-62.8,4c0,27.6 -9.6,68 -9.6,68l-4,17.6c-4.4,20 -6.8,40.8 -6.8,61.2l0.4,48.4c0.8,6 6.4,11.2 12.8,10.8z"/>
      <path stroke="null" id="svg_80" fill="#E6E9EE" d="m4017.052447,5303.980287c-18.4,-4 -37.6,-6.4 -57.2,-6.4c-15.6,0 -30.8,1.6 -45.2,4l-1.6,85.6l102.4,5.6l1.6,-88.8z"/>
      <g stroke="null" id="svg_79"/>
      <g stroke="null" id="svg_78"/>
      <g stroke="null" id="svg_77"/>
      <g stroke="null" id="svg_76"/>
      <g stroke="null" id="svg_75"/>
      <g stroke="null" id="svg_74"/>
      <g stroke="null" id="svg_73"/>
      <g stroke="null" id="svg_72"/>
      <g stroke="null" id="svg_71"/>
      <g stroke="null" id="svg_70"/>
      <g stroke="null" id="svg_69"/>
      <g stroke="null" id="svg_68"/>
      <g stroke="null" id="svg_67"/>
      <g stroke="null" id="svg_66"/>
      <g stroke="null" id="svg_65"/>
     </g>
    </g>
   </g>
  </g>
 </g>
</svg>