<svg width="438.533" height="438.533" xmlns="http://www.w3.org/2000/svg">

 <g>
  <title>background</title>
  <rect fill="none" id="canvas_background" height="402" width="582" y="-1" x="-1"/>
 </g>
 <g>
  <title>Layer 1</title>
  <g id="svg_1">
   <path id="svg_2" fill="#34495e" d="m409.133,109.203c-19.608,-33.592 -46.205,-60.189 -79.798,-79.796c-33.599,-19.606 -70.277,-29.407 -110.062,-29.407c-39.781,0 -76.47,9.801 -110.063,29.407c-33.595,19.604 -60.192,46.201 -79.8,79.796c-19.609,33.597 -29.41,70.286 -29.41,110.064c0,39.78 9.804,76.463 29.407,110.062c19.607,33.592 46.204,60.189 79.799,79.798c33.597,19.605 70.283,29.407 110.063,29.407s76.47,-9.802 110.065,-29.407c33.593,-19.602 60.189,-46.206 79.795,-79.798c19.603,-33.596 29.403,-70.284 29.403,-110.062c0.001,-39.782 -9.8,-76.472 -29.399,-110.064z"/>
  </g>
  <g id="svg_3"/>
  <g id="svg_4"/>
  <g id="svg_5"/>
  <g id="svg_6"/>
  <g id="svg_7"/>
  <g id="svg_8"/>
  <g id="svg_9"/>
  <g id="svg_10"/>
  <g id="svg_11"/>
  <g id="svg_12"/>
  <g id="svg_13"/>
  <g id="svg_14"/>
  <g id="svg_15"/>
  <g id="svg_16"/>
  <g id="svg_17"/>
  <g stroke="null" id="svg_251">
   <g stroke="null" transform="matrix(0.8100344979980123,0,0,0.8100344979980123,-1741.356774308907,-2152.569341618107) " id="svg_249">
    <title stroke="null" transform="translate(1.2345153093338013,4.547473508864641e-13) translate(-1.2345153093338013,4.547473508864641e-13) translate(0,1.2345153093338013) translate(-1.2345153093338013,4.547473508864641e-13) translate(0,1.2345153093338013) translate(-1.2345153093338013,4.547473508864641e-13) translate(0,-1.2345153093338013) translate(0,-1.2345153093338013) translate(-1.2345153093338013,4.547473508864641e-13) translate(0,1.2345153093338013) translate(-1.2345153093338013,4.547473508864641e-13) translate(0,-1.2345153093338013) translate(-1.2345153093338013,4.547473508864641e-13) translate(0,-1.2345153093338013) translate(0,1.2778849601745605) translate(1.2778849601745605,0) translate(1.2778849601745605,0) translate(0,1.2778849601745605) translate(0,-1.2778849601745605) translate(0,-1.2778849601745605) translate(-1.2778849601745605,0) translate(-1.2778849601745605,0) translate(-1.2778849601745605,0) translate(-1.2778849601745605,0) translate(-1.2778849601745605,0) translate(1.2778849601745605,0) translate(-228.74139404296875,237.6865997314453) translate(2399.986572265625,0) translate(0,2435.236572265625) ">background</title>
    <rect stroke="null" x="2161.516832" y="2670.688657" width="582" height="402" id="svg_247" fill="none"/>
   </g>
   <g stroke="null" transform="matrix(0.8100344979980123,0,0,0.8100344979980123,-1741.356774308907,-2152.569341618107) " id="svg_250">
    <title stroke="null" transform="translate(1.2345153093338013,4.547473508864641e-13) translate(-1.2345153093338013,4.547473508864641e-13) translate(0,1.2345153093338013) translate(-1.2345153093338013,4.547473508864641e-13) translate(0,1.2345153093338013) translate(-1.2345153093338013,4.547473508864641e-13) translate(0,-1.2345153093338013) translate(0,-1.2345153093338013) translate(-1.2345153093338013,4.547473508864641e-13) translate(0,1.2345153093338013) translate(-1.2345153093338013,4.547473508864641e-13) translate(0,-1.2345153093338013) translate(-1.2345153093338013,4.547473508864641e-13) translate(0,-1.2345153093338013) translate(0,1.2778849601745605) translate(1.2778849601745605,0) translate(1.2778849601745605,0) translate(0,1.2778849601745605) translate(0,-1.2778849601745605) translate(0,-1.2778849601745605) translate(-1.2778849601745605,0) translate(-1.2778849601745605,0) translate(-1.2778849601745605,0) translate(-1.2778849601745605,0) translate(-1.2778849601745605,0) translate(1.2778849601745605,0) translate(-228.74139404296875,237.6865997314453) translate(2399.986572265625,0) translate(0,2435.236572265625) ">Layer 1</title>
    <ellipse stroke="null" fill="#1a91a1" stroke-width="null" stroke-opacity="null" cx="2419.016838" cy="2928.188651" id="svg_246" rx="254.000006" ry="254.000006"/>
    <g stroke="null" id="svg_245"/>
    <g stroke="null" id="svg_244"/>
    <g stroke="null" id="svg_243"/>
    <g stroke="null" id="svg_242"/>
    <g stroke="null" id="svg_241"/>
    <g stroke="null" id="svg_240"/>
    <g stroke="null" id="svg_239"/>
    <g stroke="null" id="svg_238"/>
    <g stroke="null" id="svg_237"/>
    <g stroke="null" id="svg_236"/>
    <g stroke="null" id="svg_235"/>
    <g stroke="null" id="svg_234"/>
    <g stroke="null" id="svg_233"/>
    <g stroke="null" id="svg_232"/>
    <g stroke="null" id="svg_231"/>
    <g stroke="null" id="svg_195">
     <path stroke="null" d="m2522.839514,2871.617665l0,5.197894c0,6.369326 1.027021,12.696495 3.040701,18.73843l11.773521,35.320564l22.221333,0l0,-81.479117l-14.814222,0c-12.272232,0.000897 -22.221333,9.949101 -22.221333,22.22223l0,-0.000001z" fill="#5A4146" id="svg_230"/>
     <path stroke="null" d="m2624.259887,2887.005046l-12.534145,43.870404l-59.257784,-51.849776c-8.182086,0 -14.814222,-6.633033 -14.814222,-14.814222l0,0c0,-12.272232 9.949101,-22.221333 22.221333,-22.221333l51.849776,0c8.182086,0 14.814222,6.633033 14.814222,14.814222l0,13.922642c0.000897,5.504655 -0.766902,10.983298 -2.27918,16.278064l0,-0.000001z" fill="#694B4B" id="svg_229"/>
     <rect stroke="null" x="2552.463473" y="2953.101267" width="44.442665" height="32.783058" fill="#E6AF78" id="svg_228"/>
     <path stroke="null" d="m2552.467958,2966.702797c6.869831,2.791345 14.361256,4.362822 22.221333,4.362822s15.351502,-1.571477 22.221333,-4.362822l0,-13.606014l-44.442665,0l0,13.606014l0,0l-0.000001,0z" fill="#D29B6E" id="svg_227"/>
     <path stroke="null" d="m2632.643789,2981.275736l-35.73496,-10.20922l-22.219539,14.745156l-22.221333,-14.746053l-35.733166,10.210117c-9.540086,2.725867 -16.11661,11.445233 -16.11661,21.366528l0,54.154968c0,4.091043 3.316068,7.407111 7.407111,7.407111l133.328893,0c4.091043,0 7.407111,-3.316068 7.407111,-7.407111l0,-54.154968c0,-9.922192 -6.577421,-18.640661 -16.117507,-21.366528z" fill="#D5DCED" id="svg_226"/>
     <polygon stroke="null" points="2582.095843434334,3064.2033691406255 2567.281634449959,3064.2033691406255 2570.985247731209,2985.8796386718755 2578.392230153084,2985.8796386718755 " fill="#AFB9D2" id="svg_225"/>
     <path stroke="null" d="m2574.68929,2960.503893l0,0c-24.545361,0 -44.442665,-19.898202 -44.442665,-44.442665l0,-8.678106c0,-3.928693 1.560714,-7.69683 4.338604,-10.475617l13.432004,-13.432004c2.844266,-2.844266 6.733493,-4.479427 10.753676,-4.352956c23.677999,0.747169 44.636409,5.819488 56.093303,17.009087c2.8048,2.739321 4.268641,6.571142 4.268641,10.490866l0,9.438729c0,24.545361 -19.898202,44.442665 -44.443562,44.442665l-0.000001,0.000001z" fill="#F0C087" id="svg_224"/>
     <path stroke="null" d="m2552.467958,2909.2201c0,-8.544459 7.175695,-15.336254 15.703111,-14.792695c14.953251,0.954367 37.142293,3.453303 50.755483,10.001125c-0.443996,-3.125015 -1.786748,-6.075123 -4.06234,-8.297794c-11.456894,-11.189599 -32.415304,-16.261918 -56.093303,-17.009087l-0.000897,0.000897l0,-0.000897c-4.019286,-0.126472 -7.90941,1.509587 -10.752779,4.352956l-13.431107,13.431107c-2.778788,2.777891 -4.339501,6.546028 -4.339501,10.475617l0,8.678106c0,20.26775 13.580899,37.332449 32.129173,42.676548c-6.173788,-7.617 -9.906944,-17.286249 -9.906944,-27.862326l-0.000897,-21.653556l0,0l0.000001,-0.000001z" fill="#E6AF78" id="svg_223"/>
     <path stroke="null" d="m2619.132853,3024.713804c0,-5.893936 2.34107,-11.545693 6.508355,-15.712978l19.066718,-19.066718c2.548269,3.642562 4.053371,8.027809 4.053371,12.709052l0,54.154968c0,4.091043 -3.316068,7.407111 -7.407111,7.407111l-22.221333,0l0,-39.491436l0,0l0,0.000001z" fill="#C7CFE2" id="svg_222"/>
     <path stroke="null" d="m2578.392846,3000.694063l-7.407111,0c-2.045073,0 -3.703555,-1.658482 -3.703555,-3.703555l0,-11.110666l14.814222,0l0,11.110666c0,2.045073 -1.657585,3.703555 -3.703555,3.703555l-0.000001,0z" fill="#959CB5" id="svg_221"/>
     <g stroke="null" id="svg_218">
      <path stroke="null" d="m2574.68929,2985.812569l-12.554775,9.589419c-2.162575,1.652204 -5.289384,0.990246 -6.596257,-1.397467l-11.262253,-20.567335l4.533245,-6.914679c1.005494,-1.533805 3.148336,-1.794821 4.492882,-0.548044l21.387158,19.838105l0,0.000001z" fill="#C7CFE2" id="svg_220"/>
      <path stroke="null" d="m2574.68929,2985.812569l12.554775,9.590316c2.162575,1.652204 5.289384,0.990246 6.596257,-1.397467l11.262253,-20.567335l-4.533245,-6.914679c-1.005494,-1.533805 -3.148336,-1.794821 -4.492882,-0.548044l-21.387158,19.837208l0,0.000001z" fill="#C7CFE2" id="svg_219"/>
     </g>
     <path stroke="null" d="m2322.107526,2957.411169c-6.32986,-16.771393 -11.350155,-45.602437 -12.434582,-60.613094c-2.063012,-28.564647 -23.5892,-51.849776 -52.688436,-51.849776s-50.625423,23.286026 -52.688436,51.849776c-1.084427,15.00976 -6.104722,43.841701 -12.434582,60.613094c-1.394776,3.697277 0.215271,7.773968 3.856039,9.424378c6.782825,3.073888 21.244541,9.09609 38.685964,11.441645l45.161132,0c17.3598,-2.350937 31.922872,-8.376727 38.685964,-11.441645c3.641665,-1.65041 5.251712,-5.727101 3.856936,-9.424378l0.000001,0z" fill="#5A4146" id="svg_217"/>
     <path stroke="null" d="m2318.251487,2966.836444c3.639871,-1.65041 5.250815,-5.727101 3.855142,-9.424378c-6.328963,-16.771393 -11.350155,-45.602437 -12.433685,-60.613094c-2.062115,-28.564647 -23.5892,-51.849776 -52.687539,-51.849776c-0.073551,0 -0.146205,0 -0.219756,0.000897c-22.328071,0.090593 -30.218645,30.541551 -10.997649,41.903366c1.15439,0.682588 1.894383,1.010876 1.894383,1.010876l16.835077,90.413754l15.068062,0c17.3598,-2.352731 31.922872,-8.377624 38.685964,-11.441645l0.000001,0z" fill="#694B4B" id="svg_216"/>
     <path stroke="null" d="m2310.561833,2993.14882l-23.970408,-11.984307c-5.019398,-2.509699 -8.190159,-7.640321 -8.189262,-13.251714l0.001794,-22.22223l-44.444459,0l0,22.223127c0,5.611393 -3.169863,10.740221 -8.189262,13.24992l-23.970408,11.985204c-7.528201,3.763652 -12.282995,11.457791 -12.282995,19.873984l0,43.773532c0,4.090146 3.316068,7.407111 7.407111,7.407111l118.514672,0c4.091043,0 7.407111,-3.316965 7.407111,-7.407111l0,-43.772635c0,-8.41709 -4.755692,-16.111229 -12.283892,-19.874881l-0.000002,0z" fill="#E6AF78" id="svg_215"/>
     <path stroke="null" d="m2256.181727,2975.318115c7.975785,0 15.615209,-1.644131 22.618687,-4.570918c-0.183877,-0.933737 -0.398251,-1.862093 -0.398251,-2.835296l0.001794,-22.22223l-44.444459,0l0,22.223127c0,0.978585 -0.214374,1.911426 -0.400045,2.848751c7.007963,2.911538 14.643799,4.556566 22.622275,4.556566l-0.000001,0z" fill="#D29B6E" id="svg_214"/>
     <path stroke="null" d="m2310.561833,2993.14882l-17.07636,-8.53818c-7.918379,12.227384 -21.651762,20.336816 -37.303746,20.336816s-29.386264,-8.109432 -37.304643,-20.337713l-17.07636,8.539077c-7.528201,3.763652 -12.283892,11.457791 -12.283892,19.873984l0,43.773532c0,4.091043 3.316068,7.407111 7.407111,7.407111l118.514672,0c4.091043,0 7.407111,-3.316068 7.407111,-7.407111l0,-43.772635c0,-8.41709 -4.755692,-16.111229 -12.283892,-19.874881l-0.000001,0z" fill="#D5DCED" id="svg_213"/>
     <path stroke="null" d="m2256.181727,2960.503893l0,0c-22.596263,0 -41.253069,-16.862883 -44.074014,-38.690449c-0.409015,-3.162687 1.111336,-6.263485 3.958293,-7.69952c3.410249,-1.720373 8.365963,-4.621147 13.110891,-8.854807c5.284002,-4.714431 8.383902,-9.686291 10.134772,-13.336029c1.507793,-3.142954 4.973653,-4.920733 8.351612,-4.058752c26.080063,6.651869 43.835422,20.220211 50.277402,25.759847c1.729342,1.487163 2.725867,3.680234 2.548269,5.95493c-1.794821,22.899436 -20.945853,40.924781 -44.307224,40.924781l-0.000001,-0.000001z" fill="#F0C087" id="svg_212"/>
     <path stroke="null" d="m2297.939786,2913.623285c-6.441083,-5.539636 -24.19734,-19.107978 -50.277402,-25.759847c-3.377958,-0.86198 -6.843819,0.915798 -8.351612,4.058752c-1.32571,2.764436 -3.516987,6.285909 -6.768474,9.880932c-0.000897,0.00897 -0.003588,0.016145 -0.004485,0.025115c-1.009082,1.143626 -2.083642,2.289944 -3.360916,3.430879c-4.744928,4.234557 -9.700642,7.134435 -13.110891,8.854807c-2.846957,1.436036 -4.36641,4.53773 -3.958293,7.700417c2.533917,19.603101 17.873759,35.206649 37.336037,38.182769c-8.868262,-6.032965 -15.483355,-14.329862 -15.483355,-29.120763l0,-10.562623c1.6827,-1.242292 3.377061,-2.480996 5.079495,-4.00045c4.117055,-3.673956 7.711181,-7.922864 10.593119,-12.497369c19.951122,6.225812 33.477307,16.595588 38.605238,21.005052c1.403745,1.230632 4.887545,4.441755 8.96334,8.265503c1.75356,-4.220205 2.913332,-8.748069 3.285571,-13.506451c0.178495,-2.275592 -0.818029,-4.468664 -2.547372,-5.956724l0,0.000001z" fill="#E6AF78" id="svg_211"/>
     <path stroke="null" d="m2194.032138,2999.670629c-2.853236,3.786973 -4.515306,8.432338 -4.515306,13.352174l0,43.773532c0,4.091043 3.316068,7.407111 7.407111,7.407111l22.221333,0l0,-37.322582c0,-4.500058 -2.04597,-8.757038 -5.560266,-11.568117l-19.552871,-15.642118l-0.000001,0z" fill="#C7CFE2" id="svg_210"/>
     <path stroke="null" d="m2525.557308,2983.04006l-61.975579,-22.537063l-44.442665,14.815119l-44.442665,-14.814222l-61.975579,22.537063c-11.70894,4.257878 -19.503538,15.385587 -19.503538,27.844387l0,45.911889c0,4.090146 3.316068,7.407111 7.407111,7.407111l237.029343,0c4.091043,0 7.407111,-3.316965 7.407111,-7.407111l0,-45.911889c0,-12.459697 -7.793701,-23.587406 -19.503538,-27.845284l-0.000001,0z" fill="#FF507D" id="svg_209"/>
     <polygon stroke="null" points="2411.378802418709,2990.1330566406255 2404.324359059334,3064.2033691406255 2433.952777028084,3064.2033691406255 2426.898089528084,2990.1330566406255 " fill="#707487" id="svg_208"/>
     <path stroke="null" d="m2426.915723,3000.309266l-15.553318,0c-2.863999,0 -5.185336,-2.321337 -5.185336,-5.185336l0,-19.805814l25.923094,0l0,19.805814c0.000897,2.863102 -2.32044,5.185336 -5.184439,5.185336l-0.000001,0z" fill="#5B5D6E" id="svg_207"/>
     <path stroke="null" d="m2537.087753,2990.697423c5.001459,5.368317 7.973094,12.518 7.973094,20.187023l0,45.911889c0,4.091043 -3.316068,7.407111 -7.407111,7.407111l-37.035555,0l0,-24.763323c0,-7.858283 3.121427,-15.394556 8.678106,-20.950338l27.791466,-27.792363l0,0.000001z" fill="#D23C69" id="svg_206"/>
     <path stroke="null" d="m2500.618181,2807.747703l0,-62.05182c0,-8.182086 -6.633033,-14.814222 -14.814222,-14.814222l-88.886228,0c-32.72655,0 -59.257784,26.530337 -59.257784,59.257784l0,17.608258c0,7.961433 1.283552,15.870843 3.801324,23.423262l2.465748,7.397244c0.755242,2.265726 1.140039,4.63819 1.140039,7.026799l0,3.801324l148.143115,0l0,-3.801324c0,-2.388609 0.384797,-4.761073 1.140039,-7.026799l2.465748,-7.397244c2.518669,-7.553316 3.802221,-15.462725 3.802221,-23.423262z" fill="#5A4146" id="svg_205"/>
     <path stroke="null" d="m2374.696399,2760.972937c0,16.618909 13.472367,30.091276 30.091276,30.091276l4.166388,0l2.010988,58.331223l82.245122,0l0,-3.801324c0,-2.388609 0.384797,-4.761073 1.140039,-7.026799l2.465748,-7.397244c2.517772,-7.552419 3.801324,-15.461828 3.801324,-23.423262l0,-62.050923c0,-8.182086 -6.633033,-14.814222 -14.814222,-14.814222l-81.015388,0c-16.618909,0 -30.091276,13.472367 -30.091276,30.091276l0.000001,-0.000001z" fill="#694B4B" id="svg_204"/>
     <rect stroke="null" x="2374.694605" y="2908.656808" width="88.888919" height="66.662204" fill="#E6AF78" id="svg_203"/>
     <path stroke="null" d="m2374.696399,2933.699982c13.084879,7.580225 28.233668,11.988792 44.442665,11.988792s31.358683,-4.408567 44.442665,-11.988792l0,-25.046763l-88.886228,0l0.000897,25.046763l0,0l0.000001,0z" fill="#D29B6E" id="svg_202"/>
     <g stroke="null" id="svg_199">
      <path stroke="null" d="m2419.139064,2975.318115l-23.624181,23.624181c-3.175245,3.175245 -8.423369,2.817357 -11.137575,-0.759727l-24.495131,-32.276275l6.406998,-13.501967c1.890796,-3.984305 6.822292,-5.444558 10.576974,-3.130397l42.272915,26.044184l0,0.000001z" fill="#D23C69" id="svg_201"/>
      <path stroke="null" d="m2419.139064,2975.318115l23.624181,23.624181c3.175245,3.175245 8.423369,2.817357 11.137575,-0.759727l24.495131,-32.276275l-6.406998,-13.501967c-1.890796,-3.984305 -6.822292,-5.444558 -10.576974,-3.130397l-42.272915,26.044184l0,0.000001z" fill="#D23C69" id="svg_200"/>
     </g>
     <path stroke="null" d="m2419.139064,2930.87545l0,0c-40.908636,0 -74.072006,-33.16337 -74.072006,-74.072006l0,-8.678106c0,-3.928693 1.560714,-7.69683 4.338604,-10.475617l6.136116,-6.136116c2.777891,-2.777891 4.338604,-6.546028 4.338604,-10.475617l0,-17.756257c0,-3.429982 2.303398,-6.409689 5.640993,-7.198119c17.518562,-4.137685 72.033212,-13.938787 109.132451,13.346792c2.40924,1.7715 3.741228,4.682141 3.741228,7.672612l0,3.934972c0,3.928693 1.560714,7.69683 4.338604,10.475617l6.136116,6.136116c2.777891,2.777891 4.338604,6.546028 4.338604,10.475617l0,8.678106c0.002691,40.908636 -33.160679,74.072006 -74.069315,74.072006l0.000001,0z" fill="#F0C087" id="svg_198"/>
     <path stroke="null" d="m2474.654724,2809.431301c-26.09262,-19.190499 -60.752123,-20.021085 -85.144103,-17.393884c-10.289049,1.107748 -18.790454,2.820048 -23.987451,4.047092c-3.337595,0.788429 -5.640993,3.768137 -5.640993,7.198119l0,17.75536c0,3.92959 -1.560714,7.697727 -4.339501,10.476514l-6.136116,6.136116c-2.778788,2.778788 -4.339501,6.546925 -4.339501,10.476514l0,8.677209c0,37.873317 28.44266,69.052608 65.121224,73.479114c-12.780809,-13.310017 -20.678558,-31.347023 -20.678558,-51.257782l0,-54.141514c0,-7.506674 5.581794,-13.780025 13.029268,-14.713762c17.77599,-2.22895 50.333911,-3.569011 75.856063,10.869384l0,-3.935869c0.001794,-2.990471 -1.332885,-5.902009 -3.740331,-7.672612l-0.000001,0.000001z" fill="#E6AF78" id="svg_197"/>
     <path stroke="null" d="m2301.190376,2990.697423c-5.001459,5.368317 -7.973094,12.518 -7.973094,20.187023l0,45.911889c0,4.091043 3.316068,7.407111 7.407111,7.407111l37.035555,0l0,-24.763323c0,-7.858283 -3.121427,-15.394556 -8.678106,-20.950338l-27.791466,-27.792363l0,0.000001z" fill="#D23C69" id="svg_196"/>
    </g>
    <!-- Generator: Sketch 46.2 (44496) - http://www.bohemiancoding.com/sketch -->
    <desc stroke="null" transform="translate(1.2345153093338013,4.547473508864641e-13) translate(-1.2345153093338013,4.547473508864641e-13) translate(0,1.2345153093338013) translate(-1.2345153093338013,4.547473508864641e-13) translate(0,1.2345153093338013) translate(-1.2345153093338013,4.547473508864641e-13) translate(0,-1.2345153093338013) translate(0,-1.2345153093338013) translate(-1.2345153093338013,4.547473508864641e-13) translate(0,1.2345153093338013) translate(-1.2345153093338013,4.547473508864641e-13) translate(0,-1.2345153093338013) translate(-1.2345153093338013,4.547473508864641e-13) translate(0,-1.2345153093338013) translate(0,1.2778849601745605) translate(1.2778849601745605,0) translate(1.2778849601745605,0) translate(0,1.2778849601745605) translate(0,-1.2778849601745605) translate(0,-1.2778849601745605) translate(-1.2778849601745605,0) translate(-1.2778849601745605,0) translate(-1.2778849601745605,0) translate(-1.2778849601745605,0) translate(-1.2778849601745605,0) translate(1.2778849601745605,0) translate(-228.74139404296875,237.6865997314453) translate(2399.986572265625,0) translate(0,2435.236572265625) ">Created with Sketch.</desc>
    <g stroke="null" id="svg_184">
     <g stroke="null" id="svg_185" fill="none" fill-rule="evenodd" transform="matrix(3.393347652735191,0,0,3.393347652735191,35.52443005829298,186.094061806355) ">
      <g stroke="null" id="svg_186" fill="#FEFEFE">
       <g stroke="null" id="svg_187">
        <g stroke="null" id="svg_188">
         <g stroke="null" id="svg_189">
          <path stroke="null" d="m702.636822,859.546522c-3.029801,0.562231 -3.819601,2.021354 -3.981354,4.935139c-0.004462,0.075857 0.003346,-0.007809 -0.004462,0.051315l-0.013387,0.071394c-0.04239,0.264383 -0.012271,8.794901 -0.012271,9.039203c1.551713,0 3.052112,0.027889 4.623905,0.027889l14.012271,0l0,-6.10757l-12.723825,0c0.070279,-0.214183 0.024542,-1.599681 0.024542,-1.93992l0.741832,0c5.728287,0 11.484462,-0.02008 17.209403,0c2.150757,0.007808 3.20494,-1.271713 3.324303,-3.213865l0,-5.415936c-0.002232,-1.249402 -0.17514,-2.080478 -0.904702,-3.163665c-0.982789,-1.456893 -2.618167,-2.363825 -4.589322,-2.359363l-15.068686,0c-4.021514,0 -6.443346,1.543904 -6.562709,5.941355l21.191873,0l0,2.11729l-17.105658,0c-0.04239,0.008925 -0.070279,0.016734 -0.161753,0.016734" id="svg_194"/>
          <path stroke="null" d="m690.166559,867.56445l-20.535936,0c0,0.969402 -0.050199,1.266135 0.25992,2.194263c0.226455,0.677131 0.707251,1.624223 1.215937,2.151872c0.058008,0.059124 0.103745,0.094821 0.155059,0.158407c0.114901,0.146135 0.483028,0.464063 0.643666,0.584542c0.494183,0.368127 1.008446,0.631394 1.668844,0.812111c0.710598,0.196335 1.385498,0.177371 2.276813,0.177371l14.812112,0c0.373705,0 0.867888,0.029004 1.225976,-0.001116c2.73753,-0.225339 5.010996,-2.56239 5.024382,-5.333386c0.004462,-1.204781 -0.003346,-2.411793 -0.003346,-3.616574c-0.128287,-3.165897 -2.734184,-5.144861 -5.647969,-5.144861l-15.102151,0l-0.565578,0l0,-2.083824l0.542152,0l20.776892,0c0,-1.473626 -0.303426,-2.782152 -1.133386,-3.889881c-0.853387,-1.138964 -2.156335,-1.884143 -3.600956,-2.048127c-0.160638,-0.018964 -0.403825,-0.053546 -0.572271,-0.055777c-1.221514,-0.014502 -2.538964,0.001115 -3.768287,0.001115l-12.55761,0c-2.840159,0 -5.263107,1.939921 -5.607808,4.79012c-0.069164,0.564462 -0.042391,1.176892 -0.042391,2.109482l0,1.19251c0,0.649243 -0.043506,0.942629 0.112669,1.581833c0.64255,2.630438 2.553467,4.305976 5.356813,4.405258c0.697211,0.025658 1.425658,-0.010039 2.206534,-0.010039l13.672032,0l0,0.884621l0,1.14008l-0.812112,0z" id="svg_193"/>
          <path stroke="null" d="m719.288233,867.678904l0,5.907889l0.085896,0.08478l6.477928,0l-0.029004,-6.07745l-6.448924,0c-0.065817,0 -0.085896,0.018964 -0.085896,0.084781" id="svg_192"/>
          <path stroke="null" d="m730.104822,869.35433c0.296733,0 1.667729,-0.045737 1.843984,0.024542l0,4.29259l2.005737,0l0.012271,-4.299283c0.253227,-0.063586 1.491475,-0.017849 1.8451,-0.017849l0,-1.675538l-5.707092,0l0,1.675538z" id="svg_191"/>
          <path stroke="null" d="m727.73542,873.586681c0,0.065817 0.021195,0.084781 0.085896,0.084781l1.97004,0l0,-6.020558l-2.055936,0l0,5.935777z" id="svg_190"/>
         </g>
        </g>
       </g>
      </g>
     </g>
    </g>
   </g>
  </g>
 </g>
</svg>